<svg width="159" height="50" viewBox="0 0 159 50" fill="none" xmlns="http://www.w3.org/2000/svg">
<path d="M159 19.4101H138.892L132.716 0.0267692L126.541 19.4101H106.432L122.728 31.0231L116.469 49.9116L132.717 38.1932L148.959 49.9116L142.7 31.0231L159 19.4101ZM125.248 0H64.9812C59.4925 0 56.1799 0.744671 53.4689 2.393C51.213 3.81745 49.1102 5.7716 47.4519 8.16461C46.3129 9.76914 45.3979 11.4167 44.6872 13.1656V13.1169C44.6872 6.58685 40.4758 1.34576 34.532 0.446965C32.9551 0.219021 30.3206 0 28.3651 0H0V49.9992H27.7619C34.9814 49.9992 38.1434 49.1669 40.8511 46.6944C43.3317 44.4466 44.6114 40.9188 44.6114 36.7995C44.6114 36.6852 44.6074 36.5797 44.6025 36.4661C46.6744 42.3262 50.3493 46.5679 55.1273 48.2689C58.5099 49.4654 62.8792 50 69.1161 50H80.6552V37.1459H72.3269C62.3126 37.124 59.0293 38.0309 57.2806 30.7513H80.6552V19.4628L57.2586 19.4458C57.2586 19.4458 58.4244 12.8411 65.3647 12.8411H72.3953H88.4088V50H102.954V12.8411H121.237L125.248 0ZM12.315 12.88H28.037C31.9293 12.88 31.7355 16.1313 31.7355 16.1313C31.7355 19.5318 28.0232 19.3874 28.0232 19.3874H12.315V12.88ZM31.7616 33.9247C31.7616 37.3252 28.0558 37.1889 28.0558 37.1889H12.3459V30.6726H28.0696C31.9553 30.6726 31.7616 33.9247 31.7616 33.9247ZM37.3911 25.0324C39.7203 24.0817 41.701 22.1138 43.0125 19.681C42.8147 21.215 42.7154 22.8366 42.7154 24.5806C42.7154 26.5258 42.8448 28.3891 43.0931 30.1729C41.8997 27.947 40.0044 26.2111 37.3911 25.0324Z" fill="#9C9C9C"/>
</svg>
