<svg width="240" height="42" viewBox="0 0 240 42" fill="none" xmlns="http://www.w3.org/2000/svg">
<path d="M0 41.2165V0H18.4788C26.3542 0 30.4043 5.00866 30.4043 10.493C30.4043 15.6136 27.1698 19.1392 23.2603 19.9507C27.7323 20.6223 31.22 24.9034 31.22 30.024C31.22 36.2638 27.1136 41.2165 19.182 41.2165H0ZM21.404 12.06C21.404 9.51366 19.5476 7.72285 16.5663 7.72285H8.8316V16.3691H16.5663C19.5476 16.3691 21.404 14.7182 21.404 12.06ZM22.2196 28.7928C22.2196 26.1905 20.3633 24.0919 16.9319 24.0919H8.8316V33.4937H16.96C20.2227 33.4937 22.2196 31.7588 22.2196 28.7928Z" fill="#9C9C9C"/>
<path d="M33.6406 29.2694V11.3613H41.5722V29.0176C41.5722 32.5712 43.7379 35.1455 47.9568 35.1455C52.1195 35.1455 54.3133 32.5712 54.3133 29.0176V11.3613H62.2167V29.2414C62.2167 36.7404 57.6884 42.0009 47.9849 42.0009C38.2814 42.0009 33.6406 36.6844 33.6406 29.2694Z" fill="#9C9C9C"/>
<path d="M64.832 41.2174V35.3413L78.3607 18.2168H64.832V11.3613H89.1048V16.9856L75.3231 34.362H89.358V41.2174H64.832Z" fill="#9C9C9C"/>
<path d="M91.9453 41.2174V35.3413L105.474 18.2168H91.9453V11.3613H116.218V16.9856L102.436 34.362H116.471V41.2174H91.9453Z" fill="#9C9C9C"/>
<path d="M119.422 41.2165V0H148.167V7.72285H128.253V16.3691H143.245V24.0919H128.253V41.2165H119.422Z" fill="#9C9C9C"/>
<path d="M145.469 26.2744C145.469 17.6281 151.938 10.6328 160.994 10.6328C169.995 10.6328 176.014 17.3204 176.014 27.0019V28.8487H153.71C154.272 32.4862 157.254 35.5362 162.344 35.5362C164.904 35.5362 168.363 34.4729 170.304 32.6261L173.848 37.8307C170.867 40.5449 166.141 41.9719 161.501 41.9719C152.36 41.9719 145.469 35.844 145.469 26.2744ZM160.994 17.0685C156.1 17.0685 153.963 20.4543 153.653 23.4203H168.448C168.195 20.5662 166.198 17.0685 160.994 17.0685Z" fill="#9C9C9C"/>
<path d="M178.152 26.2744C178.152 17.6281 184.621 10.6328 193.678 10.6328C202.678 10.6328 208.697 17.3204 208.697 27.0019V28.8487H186.393C186.956 32.4862 189.937 35.5362 195.028 35.5362C197.587 35.5362 201.047 34.4729 202.988 32.6261L206.532 37.8307C203.55 40.5449 198.825 41.9719 194.184 41.9719C185.043 41.9719 178.152 35.844 178.152 26.2744ZM193.678 17.0685C188.784 17.0685 186.646 20.4543 186.337 23.4203H201.131C200.878 20.5662 198.881 17.0685 193.678 17.0685Z" fill="#9C9C9C"/>
<path d="M211.594 41.2727V11.3047H223.688C233.166 11.3047 240.001 16.9569 240.001 26.2747C240.001 35.5645 233.195 41.2727 223.744 41.2727H211.594ZM232.323 26.2747C232.323 21.6298 229.51 17.7684 223.997 17.7684H219.103V34.809H223.997C229.257 34.809 232.323 30.7237 232.323 26.2747Z" fill="#9C9C9C"/>
</svg>
