<svg width="254" height="30" viewBox="0 0 254 30" fill="none" xmlns="http://www.w3.org/2000/svg">
<g clip-path="url(#clip0_79_2930)">
<path d="M32.8385 29.3936H42.1153L47.0888 0.640625H37.812L35.9778 10.9375H27.9356L29.7698 0.640625H20.493L15.5195 29.3936H24.7963L26.6658 18.6335H34.708L32.8385 29.3936Z" fill="#9C9C9C"/>
<path d="M52.3464 0.605933L49.5246 16.6036C49.2777 17.8506 49.1719 19.062 49.1719 20.2021C49.1719 28.6819 56.5086 29.9646 60.9177 29.9646C70.1592 29.9646 74.1451 26.8648 75.5913 18.4919L78.6953 0.570312H69.4185L66.773 15.6059C65.9265 20.309 65.3269 22.7675 61.8701 22.7675C59.6126 22.7675 58.5192 21.5561 58.5192 19.062C58.5192 18.1 58.6603 16.9242 58.9425 15.4634L61.6232 0.570312H52.3464V0.605933Z" fill="#9C9C9C"/>
<path d="M127.723 29.3941H136.999L138.305 21.9831H142.678C150.756 21.9831 155.236 17.5651 155.236 9.51283C155.236 3.84775 151.355 0.605469 144.548 0.605469H132.696L127.723 29.3941ZM142.185 14.8929H139.504L140.738 8.12329H143.243C145.289 8.12329 146.382 9.15654 146.382 11.0449C146.382 13.4321 144.795 14.8929 142.185 14.8929Z" fill="#9C9C9C"/>
<path d="M173.26 0C163.172 0 157.141 6.59145 157.141 17.6722C157.141 25.3682 161.938 30 169.98 30C180.068 30 186.1 23.4086 186.1 12.3278C186.135 4.5962 181.338 0 173.26 0ZM170.544 22.5534C168.146 22.5534 166.735 20.8076 166.735 17.886C166.735 16.7815 166.841 15.8195 167.052 14.715C167.758 10.9382 168.957 7.48218 172.731 7.48218C175.13 7.48218 176.541 9.22803 176.541 12.1496C176.541 13.2542 176.435 14.2162 176.223 15.3207C175.518 19.0618 174.319 22.5534 170.544 22.5534Z" fill="#9C9C9C"/>
<path d="M218.376 29.3936H227.653L231.321 8.33659H238.305L239.645 0.640625H215.907L214.566 8.33659H221.974L218.376 29.3936Z" fill="#9C9C9C"/>
<path d="M202.996 11.2589C200.068 10.3325 198.869 9.94062 198.869 8.55107C198.869 7.6247 199.469 6.52019 201.232 6.52019C202.537 6.52019 203.631 7.26841 204.054 8.37292L212.237 6.12826C211.285 2.0665 207.828 0 201.867 0C190.65 0 189.769 7.58907 189.769 9.90498C189.769 14.6081 192.238 17.4941 197.599 18.9905C199.01 19.3824 200.633 19.81 200.633 21.3777C200.633 22.6247 199.715 23.4085 198.128 23.4085C196.682 23.4085 195.13 22.5534 194.601 21.057L186.523 23.266C187.405 27.5416 191.391 29.9644 197.634 29.9644C202.396 29.9644 210.368 28.6817 210.368 19.9881C210.403 15.6413 207.969 12.791 202.996 11.2589Z" fill="#9C9C9C"/>
<path d="M10.335 29.3936L15.3437 0.640625H0V29.3936H10.335Z" fill="#9C9C9C"/>
<path d="M243.63 0.640625L238.656 29.3936H254V0.640625H243.63Z" fill="#9C9C9C"/>
<path d="M89.7699 20.9143H97.5653L98.8351 13.6815H91.0398L91.9216 8.33706H102.821L104.161 0.605469H83.9852L79.0117 29.3941H88.2885L89.7699 20.9143Z" fill="#9C9C9C"/>
<path d="M114.071 20.9143H121.901L123.171 13.6815H115.376L116.258 8.33706H127.157L128.497 0.605469H108.321L103.348 29.3941H112.624L114.071 20.9143Z" fill="#9C9C9C"/>
</g>
<defs>
<clipPath id="clip0_79_2930">
<rect width="254" height="30" fill="white"/>
</clipPath>
</defs>
</svg>
