<svg width="256" height="35" viewBox="0 0 256 35" fill="none" xmlns="http://www.w3.org/2000/svg">
<path d="M19.1708 4.06055C19.1708 1.26055 16.5314 0.560547 14.4476 0.560547V0.980547C15.6978 0.980547 16.6703 1.40055 16.6703 2.38055C16.6703 2.94055 16.2535 3.78055 15.0032 3.78055C14.0308 3.78055 11.947 3.22055 10.4189 2.66055C8.61297 1.96055 6.94595 1.40055 5.55676 1.40055C2.77838 1.40055 0.833514 3.50055 0.833514 5.88055C0.833514 7.98055 2.36162 8.68055 2.9173 8.96055L3.05622 8.68055C2.77838 8.40055 2.36162 8.12055 2.36162 7.28055C2.36162 6.72055 2.9173 5.74055 4.30649 5.74055C5.55676 5.74055 7.22378 6.30055 9.44649 7.00055C11.3914 7.56055 13.4751 7.98055 14.5865 8.12055V12.4605L12.5027 14.2805V14.4205L14.5865 16.2405V22.2605C13.4751 22.9605 12.2249 23.1005 11.1135 23.1005C9.02973 23.1005 7.22378 22.5405 5.69568 20.8605L11.3914 18.0605V8.40055L4.44541 11.4805C5.00108 9.66055 6.52919 8.40055 8.0573 7.56055L7.91838 7.14055C3.75081 8.26055 0 12.1805 0 16.9405C0 22.5405 4.58432 26.7405 9.72432 26.7405C15.2811 26.7405 18.893 22.2605 18.893 17.6405H18.6151C17.7816 19.4605 16.5314 21.1405 15.0032 21.9805V16.2405L17.2259 14.4205V14.2805L15.0032 12.4605V8.12055C17.087 8.12055 19.1708 6.72055 19.1708 4.06055ZM7.08487 19.4605L5.41784 20.3005C4.44541 19.0405 3.88973 17.3605 3.88973 14.9805C3.88973 14.0005 3.88973 12.8805 4.16757 12.0405L7.08487 10.7805V19.4605ZM21.8103 22.6805L20.0043 24.0805L20.2822 24.3605L21.1157 23.6605L24.1719 26.4605L28.3395 23.6605L28.2005 23.3805L27.0892 24.0805L25.7 22.6805V13.1605L26.8114 12.3205L29.173 14.2805V22.8205C29.173 28.1405 28.0616 28.9805 25.7 29.8205V30.2405C29.5897 30.3805 33.2016 29.1205 33.2016 22.2605V13.0205L34.4519 12.0405L34.1741 11.7605L33.0627 12.6005L29.5897 9.66055L25.7 12.6005V1.12055H25.4222L20.56 4.48055V4.76055C21.1157 5.04055 21.9492 5.32055 21.9492 6.86055L21.8103 22.6805ZM47.2324 21.1405L43.7595 23.8005L40.2865 21.0005V19.3205L46.8157 14.8405V14.7005L43.4816 9.66055L36.2578 13.5805V22.8205L34.8687 23.9405L35.1465 24.2205L36.3968 23.2405L41.12 26.7405L47.3714 21.7005L47.2324 21.1405ZM40.2865 18.7605V11.9005L40.5643 11.7605L43.6205 16.6605L40.2865 18.7605ZM73.7659 2.80055C73.7659 2.38055 73.627 1.96055 73.4881 1.54055H73.2103C72.7935 2.66055 72.2378 3.22055 70.8487 3.22055C69.5984 3.22055 68.7649 2.52055 68.2092 1.96055L64.1805 6.58055L64.4584 6.86055L65.8476 5.60055C66.6811 6.30055 67.3757 6.86055 69.3205 7.00055V18.6205L61.1243 4.48055C60.4297 3.36055 59.4573 1.82055 57.5124 1.82055C55.2897 1.82055 53.3449 3.78055 53.6227 6.86055H54.0395C54.1784 6.02055 54.5951 5.04055 55.5676 5.04055C56.2622 5.04055 56.9568 5.74055 57.3735 6.44055V11.0605C54.873 11.0605 53.2059 12.1805 53.2059 14.2805C53.2059 15.4005 53.7616 17.0805 55.4287 17.5005V17.2205C55.1508 16.9405 55.0119 16.6605 55.0119 16.2405C55.0119 15.5405 55.5676 14.9805 56.54 14.9805H57.2346V20.8605C54.3173 20.8605 51.9557 22.5405 51.9557 25.3405C51.9557 28.0005 54.1784 29.2605 56.6789 29.1205V28.8405C55.1508 28.7005 54.4562 28.0005 54.4562 27.0205C54.4562 25.7605 55.2897 25.2005 56.4011 25.2005C57.5124 25.2005 58.4849 25.9005 59.1795 26.7405L63.2081 22.2605L62.9303 21.9805L61.9578 23.1005C60.4297 21.7005 59.5962 21.2805 57.7903 21.0005V7.00055L68.9038 26.6005H69.7373V7.00055C71.8211 6.86055 73.7659 5.18055 73.7659 2.80055ZM83.907 21.1405L80.4341 23.8005L76.9611 21.0005V19.3205L83.4903 14.8405V14.7005L80.1562 9.66055L72.9324 13.5805V22.8205L71.5432 23.9405L71.8211 24.2205L73.0714 23.2405L77.7946 26.7405L84.0459 21.7005L83.907 21.1405ZM76.9611 18.7605V11.9005L77.2389 11.7605L80.2951 16.6605L76.9611 18.7605ZM106.551 11.2005L105.578 11.9005L102.939 9.66055L99.8827 12.4605L101.133 13.7205V24.2205L97.7989 22.1205V13.4405L98.9103 12.7405L95.7151 9.66055L92.6589 12.4605L93.9092 13.7205V23.8005L93.4924 24.0805L90.5751 21.9805V13.5805C90.5751 11.6205 89.6027 11.0605 88.4914 10.3605C87.5189 9.66055 86.9632 9.24055 86.9632 8.26055C86.9632 7.42055 87.7968 7.00055 88.2135 6.72055V6.44055C87.1022 6.44055 84.1849 7.56055 84.1849 10.2205C84.1849 11.6205 84.8795 12.1805 85.5741 12.8805C86.2686 13.5805 86.9632 14.1405 86.9632 15.4005V23.5205L85.4351 24.6405L85.713 24.9205L87.1022 23.8005L90.2973 26.6005L93.7703 24.2205L97.66 26.6005L105.023 22.2605V12.8805L106.829 11.4805L106.551 11.2005ZM132.39 3.50055L131.001 4.76055L127.944 1.96055L123.36 5.32055V2.24055H122.943L123.082 24.9205C122.665 24.9205 121.415 24.6405 120.443 24.3605L120.165 5.46055C120.165 4.06055 119.192 2.10055 116.692 2.10055C114.191 2.10055 112.524 4.06055 112.524 6.02055H112.941C113.08 5.18055 113.497 4.48055 114.33 4.48055C115.164 4.48055 115.858 5.04055 115.858 6.86055V12.3205C113.358 12.4605 111.83 13.8605 111.83 15.6805C111.83 16.8005 112.385 18.4805 114.052 18.4805V18.2005C113.497 17.9205 113.358 17.5005 113.358 17.2205C113.358 16.3805 114.052 16.1005 115.164 16.1005H115.719V24.7805C113.636 25.4805 112.802 27.0205 112.802 28.7005C112.802 31.0805 114.608 32.7605 117.386 32.7605C119.331 32.7605 120.998 32.4805 122.665 32.0605C124.055 31.7805 125.861 31.3605 126.694 31.3605C127.805 31.3605 128.222 31.9205 128.222 32.6205C128.222 33.6005 127.805 34.0205 127.25 34.1605V34.4405C129.472 34.0205 130.862 32.6205 130.862 30.5205C130.862 28.4205 128.778 27.1605 126.555 27.1605C125.444 27.1605 123.082 27.5805 121.415 27.8605C119.47 28.2805 117.525 28.5605 116.97 28.5605C115.997 28.5605 114.886 28.1405 114.886 26.7405C114.886 25.6205 115.858 24.6405 118.22 24.6405C119.47 24.6405 120.998 24.7805 122.526 25.2005C124.194 25.6205 125.722 26.0405 127.111 26.0405C129.195 26.0405 131.001 25.3405 131.001 22.4005V5.18055L132.668 3.78055L132.39 3.50055ZM126.694 12.0405C126.277 12.4605 125.722 12.8805 125.027 12.8805C124.332 12.8805 123.638 12.4605 123.36 12.0405V5.88055L124.749 4.90055L126.694 6.72055V12.0405ZM126.694 16.2405C126.416 15.9605 125.722 15.5405 125.027 15.5405C124.332 15.5405 123.638 15.9605 123.36 16.2405V12.6005C123.638 12.8805 124.332 13.3005 125.027 13.3005C125.722 13.3005 126.416 12.8805 126.694 12.6005V16.2405ZM126.694 22.8205C126.694 23.9405 125.999 25.0605 124.471 25.0605H123.36V16.8005C123.638 16.5205 124.332 16.1005 125.027 16.1005C125.722 16.1005 126.277 16.5205 126.694 16.8005V22.8205ZM145.726 12.8805L141.281 9.66055L134.474 13.5805V22.6805L133.084 23.8005L133.223 24.0805L134.335 23.2405L138.78 26.6005L145.726 22.4005V12.8805ZM138.224 21.7005V11.6205L141.697 14.1405V24.0805L138.224 21.7005ZM158.923 9.94055H158.645C158.229 10.2205 157.812 10.5005 157.395 10.5005C156.839 10.5005 156.145 10.2205 155.867 9.80055H155.589L153.228 12.4605L150.866 9.80055L146.698 12.6005L146.837 12.8805L147.949 12.1805L149.338 13.7205V22.5405L147.532 23.9405L147.81 24.2205L148.643 23.5205L151.977 26.3205L156.284 23.3805L156.145 23.1005L154.895 23.8005L153.228 22.4005V12.6005C153.922 13.3005 154.756 14.0005 155.728 14.0005C157.673 14.1405 158.784 12.1805 158.923 9.94055ZM175.594 23.3805L170.87 26.6005L164.48 16.8005L169.064 9.66055H169.342C169.898 10.2205 170.731 10.7805 171.704 10.7805C172.676 10.7805 173.371 10.2205 173.788 9.66055H174.065C173.926 12.4605 171.982 14.1405 170.592 14.1405C169.203 14.1405 168.509 13.4405 167.675 13.0205L167.258 13.7205L174.204 24.0805L175.594 23.2405V23.3805ZM160.312 22.6805L158.506 24.0805L158.784 24.3605L159.618 23.6605L162.674 26.4605L166.842 23.6605L166.564 23.3805L165.452 24.0805L164.063 22.6805V1.12055H163.924L158.923 4.48055V4.76055C159.479 5.04055 160.312 5.18055 160.312 6.86055V22.6805ZM198.654 4.06055C198.654 1.26055 196.015 0.560547 193.931 0.560547V0.980547C195.181 0.980547 196.154 1.40055 196.154 2.38055C196.154 2.94055 195.737 3.78055 194.486 3.78055C193.514 3.78055 191.43 3.22055 189.902 2.66055C188.096 2.10055 186.429 1.54055 185.04 1.54055C182.262 1.54055 180.317 3.64055 180.317 6.02055C180.317 8.12055 181.845 8.82055 182.401 9.10055L182.539 8.82055C182.123 8.54055 181.706 8.26055 181.706 7.42055C181.706 6.86055 182.262 5.88055 183.651 5.88055C184.901 5.88055 186.568 6.44055 188.791 7.14055C190.736 7.70055 192.819 8.12055 193.931 8.26055V12.6005L191.847 14.4205V14.5605L193.931 16.3805V22.4005C192.819 23.1005 191.569 23.2405 190.458 23.2405C188.374 23.2405 186.568 22.6805 185.04 21.0005L190.736 18.2005V8.40055L183.79 11.4805C184.484 9.66055 186.012 8.40055 187.402 7.42055L187.263 7.14055C183.095 8.26055 179.344 12.0405 179.344 16.8005C179.344 22.4005 183.929 26.6005 189.069 26.6005C194.625 26.6005 198.237 22.1205 198.237 17.5005H197.959C197.126 19.3205 195.876 21.0005 194.348 21.8405V16.1005L196.57 14.2805V14.1405L194.486 12.3205V8.12055C196.57 8.12055 198.654 6.72055 198.654 4.06055ZM186.568 19.4605L184.901 20.3005C183.929 19.0405 183.373 17.3605 183.373 14.9805C183.373 14.0005 183.512 12.8805 183.79 12.0405L186.707 10.7805L186.568 19.4605ZM203.516 2.66055H203.377L200.599 5.04055V5.18055L202.961 7.84055H203.238L206.017 5.46055V5.32055L203.516 2.66055ZM207.684 23.3805L206.572 24.0805L205.183 22.6805V13.0205L206.572 12.0405L206.295 11.7605L205.322 12.6005L202.822 9.66055L198.793 12.4605L199.071 12.8805L200.043 12.1805L201.294 13.7205V22.8205L199.488 24.2205L199.626 24.5005L200.599 23.8005L203.655 26.6005L207.823 23.8005L207.684 23.3805ZM230.883 23.2405L229.911 23.9405L228.383 22.5405V13.0205L229.772 11.9005L229.494 11.6205L228.383 12.6005L225.188 9.66055L221.02 12.6005L217.825 9.66055L213.935 12.6005L211.435 9.66055L207.406 12.4605L207.545 12.8805L208.517 12.1805L209.907 13.7205V22.8205L208.795 23.9405L211.99 26.6005L215.046 23.8005L213.796 22.5405V13.0205L215.046 12.1805L217.13 14.1405V22.5405L216.019 23.6605L219.214 26.3205L222.27 23.5205L221.02 22.2605V13.0205L222.131 12.3205L224.354 14.2805V22.6805L223.382 23.6605L226.577 26.6005L230.883 23.6605V23.2405ZM242.969 21.1405L239.496 23.8005L236.023 21.0005V19.3205L242.552 14.8405V14.7005L239.218 9.66055L231.995 13.5805V23.1005L236.857 26.6005L243.108 21.5605L242.969 21.1405ZM236.023 18.7605V11.9005L236.301 11.7605L239.357 16.6605L236.023 18.7605ZM255.611 17.5005L252.971 15.4005C254.777 13.8605 255.472 11.7605 255.472 10.3605V9.52055H255.194C254.916 10.2205 254.361 10.9205 253.249 10.9205C252.138 10.9205 251.443 10.3605 250.749 9.52055L244.497 13.0205V18.0605L246.859 19.8805C244.497 21.9805 244.081 23.3805 244.081 24.5005C244.081 25.9005 244.775 26.8805 245.886 27.3005L246.025 27.0205C245.748 26.7405 245.47 26.6005 245.47 25.9005C245.47 25.4805 246.025 24.7805 247.137 24.7805C248.526 24.7805 249.359 25.7605 249.776 26.1805L255.75 22.5405V17.5005H255.611ZM254.083 13.3005C253.11 14.9805 251.027 16.6605 249.776 17.5005L248.248 16.2405V11.3405C248.804 12.7405 250.332 13.8605 251.86 13.8605C252.832 13.8605 253.388 13.7205 254.083 13.3005ZM251.721 24.5005C251.026 22.9605 249.359 21.8405 247.692 21.8405C247.276 21.8405 246.164 21.8405 245.053 22.5405C245.748 21.4205 247.554 19.4605 249.915 18.0605L251.582 19.4605L251.721 24.5005Z" fill="#9C9C9C"/>
</svg>
