<svg width="145" height="120" viewBox="0 0 145 120" fill="none" xmlns="http://www.w3.org/2000/svg">
<g clip-path="url(#clip0_623_3998)">
<mask id="mask0_623_3998" style="mask-type:luminance" maskUnits="userSpaceOnUse" x="0" y="0" width="144" height="120">
<path d="M143.894 0H0.443359V120H143.894V0Z" fill="white"/>
</mask>
<g mask="url(#mask0_623_3998)">
<path d="M40.5125 18.7854C42.5049 22.1003 45.1614 25.4152 48.2606 28.5091C54.2377 34.255 62.2072 39.5589 71.2835 43.5368C85.4515 49.5036 99.8408 51.0506 110.467 48.6196M95.1919 15.2495C92.3141 15.9124 88.3293 15.4705 84.1232 13.7025C77.482 10.8296 73.2759 6.18868 74.6042 3.09476C74.8255 2.65277 75.0469 2.43178 75.2683 2.21078M95.1919 15.2495C96.7416 14.8075 97.8484 14.1445 98.2912 13.0395C98.5125 12.8185 98.5125 12.3765 98.5125 11.9345M95.1919 15.2495C99.6194 23.8682 101.833 40.0008 97.8484 49.9456C97.8484 49.9456 92.7568 69.6141 69.2912 79.3379M87.2225 14.8075C87.6652 28.5091 83.4591 53.4815 61.3217 77.7909M80.8026 12.1555C70.6194 21.4373 55.566 41.9898 53.3522 74.476M75.0469 6.85167C65.7492 9.7246 52.6881 19.4484 48.2606 28.9511C48.2606 28.9511 37.8561 46.1887 46.9324 70.0561M33.8713 36.0229C39.1843 45.9677 49.8103 55.2495 63.7568 61.2163C77.7034 67.1832 91.8713 68.2881 102.497 65.1942M56.4515 5.5257C59.3293 13.4815 67.5202 21.2163 78.8103 26.0782C90.1003 30.9401 101.39 31.1611 109.138 27.8461M57.337 76.4649C77.0393 84.8627 99.8408 75.5809 108.253 55.9124C116.665 36.2439 107.368 13.4815 87.6652 5.08371C67.9629 -3.31408 45.1614 5.96769 36.7492 25.6362C28.337 45.3047 37.6347 68.0671 57.337 76.4649Z" stroke="#9C9C9C" stroke-width="1.661"/>
</g>
<mask id="mask1_623_3998" style="mask-type:luminance" maskUnits="userSpaceOnUse" x="0" y="0" width="144" height="120">
<path d="M143.894 0H0.443359V120H143.894V0Z" fill="white"/>
</mask>
<g mask="url(#mask1_623_3998)">
<path d="M145.001 15.2479V1.98828H131.719V15.2479H141.238C141.238 20.5518 137.032 24.7507 131.719 24.7507V28.5076C139.024 28.5076 145.001 22.5408 145.001 15.2479Z" fill="#9C9C9C"/>
</g>
<mask id="mask2_623_3998" style="mask-type:luminance" maskUnits="userSpaceOnUse" x="0" y="0" width="144" height="120">
<path d="M143.894 0H0.443359V120H143.894V0Z" fill="white"/>
</mask>
<g mask="url(#mask2_623_3998)">
<path d="M127.954 15.2479V1.98828H114.672V15.2479H124.191C124.191 20.5518 119.985 24.7507 114.672 24.7507V28.5076C121.977 28.5076 127.954 22.5408 127.954 15.2479Z" fill="#9C9C9C"/>
</g>
<mask id="mask3_623_3998" style="mask-type:luminance" maskUnits="userSpaceOnUse" x="0" y="0" width="144" height="120">
<path d="M143.894 0H0.443359V120H143.894V0Z" fill="white"/>
</mask>
<g mask="url(#mask3_623_3998)">
<path d="M0 13.2597V26.5193H13.2824V13.2597H3.76336C3.76336 7.9558 7.96947 3.75691 13.2824 3.75691V0C5.9771 0 0 5.96685 0 13.2597Z" fill="#9C9C9C"/>
</g>
<mask id="mask4_623_3998" style="mask-type:luminance" maskUnits="userSpaceOnUse" x="0" y="0" width="144" height="120">
<path d="M143.894 0H0.443359V120H143.894V0Z" fill="white"/>
</mask>
<g mask="url(#mask4_623_3998)">
<path d="M17.0469 13.2597V26.5193H30.3293V13.2597H20.8102C20.8102 7.9558 25.0163 3.75691 30.3293 3.75691V0C23.024 0 17.0469 5.96685 17.0469 13.2597Z" fill="#9C9C9C"/>
</g>
<path d="M52.0228 120.001H44.4961V95.6914H54.4579C56.893 95.6914 59.5495 95.6914 61.5419 97.0174C63.7556 98.3433 65.0839 100.774 65.0839 103.426C65.0839 105.636 64.1984 107.846 62.4274 109.393C60.435 110.94 58.2213 111.382 55.7862 111.382H52.0228V120.001ZM54.0152 105.857C55.7862 105.857 57.7785 105.857 57.7785 103.426C57.7785 101.216 56.0075 100.995 54.2366 100.995H52.0228V105.636H54.0152" fill="#9C9C9C"/>
<path d="M80.8007 120.001L77.2587 110.719H74.8236V120.001H67.2969V95.6914H79.6938C81.9076 95.6914 84.1213 95.9124 85.8923 97.2384C87.8847 98.5643 88.9915 100.774 88.9915 102.984C88.9915 106.078 87.6633 108.067 84.7854 109.393L89.2129 120.001H80.8007ZM77.4801 105.415C79.0297 105.415 81.0221 105.194 81.0221 102.984C81.0221 102.1 80.5793 101.437 79.9152 100.995C79.2511 100.774 78.5869 100.774 77.7015 100.774H74.6022V105.415H77.4801Z" fill="#9C9C9C"/>
<path d="M99.1751 95.4688H91.6484V119.778H99.1751V95.4688Z" fill="#9C9C9C"/>
<path d="M108.253 100.11L107.367 98.121H106.039V100.11H105.375V95.248H107.146C107.589 95.248 107.81 95.2481 108.253 95.469C108.474 95.69 108.696 96.132 108.696 96.574C108.696 97.237 108.253 97.679 107.81 97.9L108.696 100.11H108.253ZM107.146 97.458C107.367 97.458 107.81 97.458 108.031 97.237C108.253 97.016 108.253 96.795 108.253 96.574C108.253 96.353 108.253 96.132 107.81 95.911C107.589 95.69 107.367 95.69 107.146 95.69H106.039V97.458H107.146Z" fill="#9C9C9C"/>
<path d="M106.924 94.1445C108.916 94.1445 110.466 95.6915 110.466 97.4594C110.466 99.4484 108.916 100.774 106.924 100.774C104.931 100.774 103.603 99.2274 103.603 97.4594C103.382 95.6915 104.931 94.1445 106.924 94.1445Z" stroke="#9C9C9C" stroke-width="0.208"/>
</g>
<defs>
<clipPath id="clip0_623_3998">
<rect width="145" height="120" fill="white"/>
</clipPath>
</defs>
</svg>
