<svg width="126" height="60" viewBox="0 0 126 60" fill="none" xmlns="http://www.w3.org/2000/svg">
<path d="M9.8953 30.0174C9.8953 40.6881 18.562 49.3681 29.246 49.3681H47.322C48.4553 49.3681 49.338 48.3014 49.338 47.3601V11.9001C49.339 10.8229 49.7674 9.79021 50.5291 9.02854C51.2907 8.26687 52.3235 7.8385 53.4006 7.83744C54.1056 7.8366 54.7987 8.01965 55.4113 8.36852C56.0239 8.71739 56.535 9.22002 56.894 9.82678L79.6006 48.9761C79.794 49.2877 80.0833 49.528 80.425 49.6611C80.7667 49.7941 81.1424 49.8127 81.4955 49.7139C81.8486 49.6151 82.1602 49.4044 82.3833 49.1134C82.6064 48.8223 82.729 48.4668 82.7326 48.1001V11.9001C82.7337 10.8229 83.1621 9.79021 83.9237 9.02854C84.6854 8.26687 85.7181 7.8385 86.7953 7.83744C87.5003 7.8366 88.1933 8.01965 88.806 8.36852C89.4186 8.71739 89.9296 9.22002 90.2886 9.82678L112.973 48.9734C113.166 49.2849 113.455 49.5252 113.797 49.6583C114.138 49.7914 114.514 49.81 114.867 49.7114C115.22 49.6128 115.531 49.4023 115.755 49.1115C115.978 48.8207 116.101 48.4653 116.105 48.0988V1.16544H108.981V29.1014L95.654 6.16811C93.77 2.94678 90.1966 0.912109 86.3926 0.912109C80.4353 0.912109 75.5926 5.74544 75.5926 11.7028V29.1028L62.266 6.16944C60.3766 2.94944 56.8033 0.91611 53.0033 0.91611C47.046 0.91611 42.2033 5.74944 42.2033 11.7068V40.2934C42.2073 41.3334 41.4246 42.2401 40.286 42.2428H29.2993C26.0566 42.2428 22.9467 40.9546 20.6537 38.6617C18.3608 36.3687 17.0726 33.2588 17.0726 30.0161C17.0726 26.7734 18.3608 23.6635 20.6537 21.3705C22.9467 19.0776 26.0566 17.7894 29.2993 17.7894H38.502V10.6668H29.222C18.5753 10.6668 9.8953 19.3334 9.8953 30.0174ZM118.475 1.16811V48.1014C118.474 49.1786 118.046 50.2113 117.284 50.973C116.523 51.7347 115.49 52.1631 114.413 52.1641C113.708 52.1651 113.015 51.9822 112.402 51.6336C111.79 51.285 111.278 50.7826 110.919 50.1761L88.2326 11.0268C88.0393 10.7153 87.7502 10.475 87.4086 10.3419C87.067 10.2088 86.6915 10.1902 86.3384 10.2888C85.9853 10.3874 85.6738 10.5979 85.4506 10.8887C85.2274 11.1795 85.1046 11.5349 85.1006 11.9014V48.1014C85.0996 49.1786 84.6712 50.2113 83.9095 50.973C83.1479 51.7347 82.1151 52.1631 81.038 52.1641C80.3317 52.1652 79.6374 51.9811 79.0245 51.6302C78.4115 51.2792 77.9013 50.7738 77.5446 50.1641L54.8393 11.0268C54.55 10.5334 53.9833 10.2268 53.3953 10.2268C52.948 10.2282 52.5195 10.4065 52.2033 10.7227C51.887 11.039 51.7087 11.4675 51.7073 11.9148V47.3601C51.7073 49.6934 49.6566 51.7428 47.318 51.7428H29.2446C23.4845 51.7371 17.9618 49.4464 13.8887 45.3733C9.81568 41.3003 7.52495 35.7776 7.5193 30.0174C7.52495 24.2573 9.81568 18.7346 13.8887 14.6615C17.9618 10.5885 23.4845 8.29776 29.2446 8.29211H38.5246V1.16811H29.2686C13.3353 1.16811 0.417969 14.0841 0.417969 30.0188C0.417969 45.9534 13.322 58.8694 29.2686 58.8694H47.5166C54.4286 58.8734 58.874 54.8228 58.85 47.3521V30.8961L72.1766 53.8294C74.0606 57.0508 77.634 59.0854 81.438 59.0854C87.3953 59.0854 92.238 54.2521 92.238 48.2961V30.8961L105.565 53.8294C107.45 57.0508 111.023 59.0854 114.826 59.0854C120.783 59.0854 125.626 54.2521 125.626 48.2961V1.16811H118.475Z" fill="#9C9C9C"/>
</svg>
