<svg width="288" height="120" viewBox="0 0 288 120" fill="none" xmlns="http://www.w3.org/2000/svg">
<path d="M77.0253 49.0926H64V37.0879H104.44V49.0926H91.3707V83.955H77.0253V49.0926Z" fill="#9C9C9C"/>
<path d="M106.641 37.0879H145.893V49.0926H120.986V54.9399H145.893V66.103H120.986V71.9503H145.893V83.955H106.641V37.0879Z" fill="#9C9C9C"/>
<path d="M148.312 37.0879H171.855C187.388 37.0879 192.845 48.6496 192.845 60.4771C192.845 74.8739 185.276 83.9993 169.039 83.9993H148.312V37.0879ZM162.658 71.9503H168.29C177.223 71.9503 178.544 64.6411 178.544 60.2557C178.544 57.2877 177.619 49.0926 167.234 49.0926H162.658V71.9503Z" fill="#9C9C9C"/>
<path d="M213.482 65.8822L209.125 58.573L204.857 65.8822H194.34L204.285 51.131L194.692 37H205.209L209.081 43.9991L213.086 37H223.603L214.01 51.131L223.999 65.8822H213.482Z" fill="#9C9C9C"/>
</svg>
