<svg width="134" height="40" viewBox="0 0 134 40" fill="none" xmlns="http://www.w3.org/2000/svg">
<path d="M103.455 0.30461H133.071V8.04328H132.537L132.303 3.27528H112.903V18.7513H129.388L129.857 15.1553H130.561C130.327 18.4379 130.327 21.6433 130.561 24.9259H129.857L129.388 21.1739H112.889V37.1979H132.963L133.043 31.8833H133.669V39.7766H103.392V38.6833H107.316V1.78861H103.392L103.455 0.30461ZM61.5427 0.224609H64.1694L76.7694 30.4739L89.196 0.224609H91.76L98.7734 38.3686H102.323V39.5419H88.332V38.3686H91.9747L87.5667 13.9819L76.4734 39.5419H73.932L62.8947 13.9819L58.2814 38.3686H61.6734L61.5934 39.5419H51.3614V38.3686H54.504L61.5427 0.224609ZM36.2334 0.30461H49.692V1.39794H45.8254V38.3713H49.692V39.5446H36.2334V38.3713H40.1027V1.39794H36.2027L36.2334 0.30461ZM0.340031 0.30461H34.5667V8.12061H34.0334V3.11794H20.5374V38.3713H24.4707V39.5446H11.0387V38.3713H14.6494V3.11794H0.958698V8.12061H0.332031L0.340031 0.30461Z" fill="#9C9C9C"/>
</svg>
