<svg width="116" height="98" viewBox="0 0 116 98" fill="none" xmlns="http://www.w3.org/2000/svg">
<g clip-path="url(#clip0_79_3054)">
<path d="M9.37815 59.8726L9.67674 60.1202C9.35327 57.8918 9.1791 55.4653 9.82603 53.336C10.7964 49.9191 12.0156 46.6013 12.6377 43.0606C13.1353 40.3122 13.7076 37.2172 13.3842 34.5679C13.0109 36.004 12.6377 37.4153 11.8415 38.6533C8.83075 43.2834 5.74538 48.7306 7.86035 54.6235C7.81059 54.6978 7.73594 54.7721 7.66129 54.7225C6.81531 52.7665 6.61625 50.5629 6.06885 48.483C4.60081 42.9616 0.34598 38.3314 1.59008 31.9434C0.918266 33.3299 0.669446 34.8898 0.321098 36.4002C-0.425363 40.3122 0.321098 44.4472 1.39102 48.0621C2.70977 52.5437 7.11389 55.7625 9.37815 59.8726Z" fill="#9C9C9C"/>
<path d="M8.23241 31.2008C9.2277 29.1704 10.845 27.2392 12.7858 25.8031C17.0655 22.5843 21.7434 18.4246 21.818 12.9774C20.3748 16.8895 16.0703 18.5237 13.2088 21.1977C11.691 22.6091 10.5216 24.3175 9.84975 26.1002L9.75022 26.0259C10.0986 24.4413 10.7704 23.03 11.2431 21.4949C12.4872 17.3352 12.2633 12.3584 16.344 9.56055C14.2539 10.1053 12.4872 11.4423 10.9197 13.1755C7.61036 16.8152 7.90895 22.1881 8.33194 26.9421C8.48123 28.4277 8.40659 29.6904 8.23241 31.2008Z" fill="#9C9C9C"/>
<path d="M13.2109 19.3401C15.5001 17.2107 18.1376 15.6261 20.0784 13.1006C22.3924 10.0551 24.4078 6.63823 27.4435 4.01367C23.3379 5.59831 18.9089 7.23247 16.2465 11.4417C14.679 13.8929 14.4302 16.7898 13.2109 19.3401Z" fill="#9C9C9C"/>
<path d="M14.927 30.1104C15.9223 28.1049 16.5443 25.8269 16.818 23.6233C16.4448 24.5642 15.8725 25.4308 15.0763 26.1736C11.7421 29.3181 7.83562 32.3883 7.08916 36.8451C6.98963 37.4889 6.91498 38.1326 6.74081 38.7516C6.59152 38.8259 6.59152 38.6526 6.54175 38.6031L6.96475 33.1064C7.36286 27.7335 4.52631 21.7663 7.63656 17.0371C7.53703 17.0124 7.46239 17.1114 7.38774 17.1362C4.55119 20.7264 2.66016 24.688 2.66016 29.5162C2.66016 35.4833 6.11876 39.6678 6.54175 45.2635C7.4375 39.4202 12.3641 35.2605 14.927 30.1104Z" fill="#9C9C9C"/>
<path d="M8.33503 66.7799C11.5448 69.3054 15.3766 71.2615 18.3127 73.4899C17.7404 72.029 16.7949 70.692 16.4217 69.1816C14.7048 62.2736 15.6503 54.2514 12.6894 47.8633C13.2368 51.503 11.7936 54.7218 11.4702 58.1882C11.1965 61.0356 11.6941 63.8087 12.8138 66.1857C13.1373 66.9037 13.7344 67.5227 13.9086 68.2655C12.8387 67.2999 12.0673 66.0866 11.3458 64.8981C7.88715 59.3271 0.646486 55.7122 0.148845 48.928C-0.0999749 51.9487 0.173727 55.1427 1.16901 57.8168C2.53752 61.4813 5.22478 64.3287 8.33503 66.7799Z" fill="#9C9C9C"/>
<path d="M51.9781 85.0781C46.3796 85.0781 41.3535 87.777 36.4517 89.8073C31.9978 91.6395 26.1008 91.2929 22.1445 88.5693C24.0853 90.9958 26.6979 92.5061 29.4101 93.5213C34.4114 95.5021 40.2586 93.9917 44.5384 91.2681C47.5988 89.3121 50.2363 86.539 53.894 86.539C59.791 86.539 65.9867 92.5556 71.2865 98.0028C72.1076 97.3343 72.9785 96.641 73.6503 95.8735C68.1016 90.6244 60.2638 85.0781 51.9781 85.0781Z" fill="#9C9C9C"/>
<path d="M41.9745 85.673C42.8454 85.4502 43.8904 85.5245 44.6866 85.2274C41.3524 84.5588 38.1427 83.5437 35.5549 81.1915C31.8475 77.8241 28.5631 74.2339 24.6068 71.6094C27.7171 75.7691 28.588 81.8105 34.2611 83.9151C35.2564 84.2865 36.4258 84.3608 37.2967 84.9055C36.2019 85.0788 35.2563 84.7322 34.2362 84.5093C26.9209 82.9494 18.0131 84.955 12.5391 78.765C14.6043 82.8256 18.884 86.0197 23.0144 87.3567C29.3593 89.4861 36.0028 87.1339 41.9745 85.673Z" fill="#9C9C9C"/>
<path d="M29.7322 82.6265C24.9797 78.8135 24.2581 73.0939 22.1432 68.0924C20.8244 64.9726 18.6846 62.1748 16.3954 59.4512C18.9085 64.4527 17.8137 70.8903 21.0732 75.5947C22.0934 77.0803 23.5117 78.4916 24.8304 79.6553L24.7807 79.7296C23.5863 79.1849 22.5164 78.343 21.4216 77.4517C15.7236 72.7225 7.13931 72.1283 3.73047 64.4279C4.6511 70.0732 9.15475 75.0747 14.0316 78.244C18.6597 81.2647 24.6065 80.9428 29.7322 82.6265Z" fill="#9C9C9C"/>
<path d="M95.9457 13.1006C97.8865 15.6509 100.524 17.2107 102.813 19.3401C101.594 16.7898 101.345 13.8929 99.8024 11.4417C97.14 7.23247 92.711 5.59831 88.6055 4.01367C91.5913 6.63823 93.6068 10.0303 95.9457 13.1006Z" fill="#9C9C9C"/>
<path d="M104.777 21.4949C105.224 23.0052 105.896 24.4413 106.269 26.0259L106.17 26.1002C105.498 24.3175 104.329 22.6091 102.811 21.1977C99.9494 18.4989 95.6448 16.8895 94.2266 12.9527C94.3012 18.4246 98.979 22.5843 103.259 25.7783C105.175 27.2144 106.817 29.1457 107.812 31.176C107.638 29.6657 107.563 28.4029 107.713 26.9421C108.16 22.1634 108.434 16.8152 105.15 13.1755C103.582 11.4423 101.816 10.0805 99.7255 9.56055C103.756 12.3584 103.532 17.3352 104.777 21.4949Z" fill="#9C9C9C"/>
<path d="M109.056 33.0826L109.479 38.5793C109.43 38.6288 109.43 38.7774 109.28 38.7279C109.106 38.1089 109.032 37.4651 108.932 36.8213C108.186 32.3893 104.254 29.2943 100.945 26.1498C100.149 25.407 99.5764 24.5404 99.2031 23.5995C99.4768 25.8032 100.099 28.0811 101.094 30.0866C103.657 35.2367 108.584 39.3964 109.479 45.2645C109.902 39.644 113.361 35.4843 113.361 29.5172C113.361 24.689 111.47 20.7274 108.633 17.1372C108.559 17.0876 108.484 17.0134 108.385 17.0381C111.495 21.7673 108.633 27.7344 109.056 33.0826Z" fill="#9C9C9C"/>
<path d="M109.953 48.457C109.405 50.5368 109.206 52.7652 108.36 54.6965C108.286 54.746 108.211 54.647 108.161 54.5975C110.276 48.7046 107.191 43.2822 104.18 38.6273C103.384 37.4141 103.011 35.978 102.637 34.5419C102.314 37.216 102.886 40.2862 103.384 43.0346C104.031 46.5752 105.225 49.8931 106.195 53.31C106.842 55.4393 106.668 57.841 106.345 60.0942L106.643 59.8466C108.883 55.7364 113.312 52.5176 114.655 48.0113C115.725 44.4211 116.472 40.2615 115.725 36.3494C115.377 34.839 115.103 33.2791 114.456 31.8926C115.676 38.3054 111.421 42.9355 109.953 48.457Z" fill="#9C9C9C"/>
<path d="M79.5473 89.8073C74.6207 87.777 69.6194 85.0781 64.0209 85.0781C55.7601 85.0781 47.8974 90.6491 42.3984 95.8735C43.0703 96.641 43.9411 97.3591 44.7622 98.0028C50.0372 92.5804 56.2577 86.539 62.1548 86.539C65.8124 86.539 68.4499 89.3121 71.5104 91.2681C75.7652 93.967 81.6125 95.5021 86.6387 93.5213C89.3259 92.5061 91.9385 90.9958 93.9042 88.5693C89.9231 91.2681 84.0012 91.6395 79.5473 89.8073Z" fill="#9C9C9C"/>
<path d="M104.701 64.8493C103.955 66.0378 103.208 67.2758 102.138 68.2167C102.313 67.4986 102.91 66.8549 103.233 66.1368C104.353 63.7351 104.851 60.9868 104.577 58.1394C104.229 54.673 102.785 51.4542 103.358 47.8145C100.372 54.2025 101.342 62.2248 99.6254 69.1328C99.2522 70.6679 98.3067 72.0049 97.7344 73.441C100.67 71.2126 104.502 69.2566 107.712 66.7311C110.822 64.3046 113.51 61.4324 114.928 57.7184C115.948 55.0444 116.197 51.8503 115.948 48.8296C115.425 55.6634 108.16 59.2783 104.701 64.8493Z" fill="#9C9C9C"/>
<path d="M94.5528 77.4517C93.458 78.343 92.388 79.1849 91.1937 79.7296L91.1439 79.6553C92.4627 78.4668 93.881 77.0555 94.9011 75.5947C98.1607 70.8903 97.0659 64.4279 99.5789 59.4512C97.2898 62.1748 95.15 64.9726 93.8312 68.0924C91.7162 73.0939 90.9947 78.8135 86.2422 82.6265C91.3679 80.9428 97.3147 81.2647 101.918 78.2688C106.77 75.0995 111.274 70.098 112.219 64.4527C108.835 72.1283 100.276 72.7225 94.5528 77.4517Z" fill="#9C9C9C"/>
<path d="M81.7864 84.5328C80.7662 84.7556 79.8207 85.0775 78.7259 84.9289C79.5968 84.3842 80.7413 84.3099 81.7615 83.9385C87.4346 81.8092 88.3055 75.7677 91.4157 71.6328C87.4595 74.2574 84.1751 77.8476 80.4676 81.2149C77.8799 83.5671 74.6701 84.5575 71.3359 85.2508C72.1322 85.5479 73.1772 85.4736 74.0481 85.6965C80.0447 87.1821 86.6633 89.5095 93.0331 87.4049C97.1386 86.0431 101.418 82.8491 103.508 78.8132C98.0095 84.9784 89.0768 82.9976 81.7864 84.5328Z" fill="#9C9C9C"/>
<path d="M57.9967 0.00195312C35.3541 0.00195312 16.9414 18.3243 16.9414 40.8559C16.9414 63.3875 35.3541 81.7099 57.9967 81.7099C80.6394 81.7099 99.0521 63.3875 99.0521 40.8559C99.0521 18.3243 80.6394 0.00195312 57.9967 0.00195312ZM57.9967 48.6553C53.6673 48.6553 50.1589 45.1642 50.1589 40.8559C50.1589 36.5477 53.6673 33.0565 57.9967 33.0565C62.3262 33.0565 65.8346 36.5477 65.8346 40.8559C65.8346 45.1642 62.3262 48.6553 57.9967 48.6553ZM63.8938 34.2945C62.4506 33.007 60.5845 32.1899 58.5193 32.0661V25.3809C62.4257 25.5047 65.9839 27.0646 68.6463 29.5654L63.8938 34.2945ZM57.4991 32.0661C55.4339 32.1899 53.5677 33.007 52.1246 34.2945L47.3721 29.5654C50.0345 27.0646 53.5926 25.5047 57.4991 25.3809V32.0661ZM51.4279 35.0126C50.134 36.4486 49.3129 38.3056 49.1885 40.3607H42.4704C42.5948 36.4734 44.1623 32.9327 46.6754 30.2834L51.4279 35.0126ZM49.1885 41.3511C49.3129 43.4062 50.134 45.2632 51.4279 46.6993L46.6754 51.4284C44.1623 48.7791 42.5948 45.2384 42.4704 41.3511H49.1885ZM52.1246 47.4173C53.5677 48.7048 55.4339 49.5219 57.4991 49.6457V56.3309C53.5926 56.2071 50.0345 54.6472 47.3721 52.1465L52.1246 47.4173ZM58.4944 49.621C60.5596 49.4972 62.4257 48.6801 63.8689 47.3926L68.6214 52.1217C65.959 54.6225 62.4009 56.1824 58.4944 56.3062V49.621ZM64.5905 46.6993C65.8844 45.2632 66.7055 43.4062 66.8299 41.3511H73.548C73.4236 45.2384 71.856 48.7791 69.3429 51.4284L64.5905 46.6993ZM66.8299 40.3607C66.7055 38.3056 65.8844 36.4486 64.5905 35.0126L69.3429 30.2834C71.856 32.9327 73.4236 36.4734 73.548 40.3607H66.8299ZM69.3429 28.8721C66.4815 26.198 62.6994 24.5143 58.4944 24.3905V16.9625C64.7398 17.0863 70.4129 19.6119 74.6179 23.623L69.3429 28.8721ZM57.4991 24.3905C53.3189 24.5143 49.512 26.198 46.6505 28.8721L41.3756 23.623C45.5806 19.6119 51.2537 17.0863 57.4991 16.9625V24.3905ZM45.9538 29.5654C43.2666 32.4128 41.5746 36.1763 41.4502 40.3607H33.9856C34.11 34.146 36.648 28.5007 40.6789 24.3163L45.9538 29.5654ZM41.4751 41.3511C41.5995 45.5108 43.2915 49.2991 45.9787 52.1465L40.6789 57.3956C36.648 53.2112 34.11 47.5659 33.9856 41.3511H41.4751ZM46.6754 52.8398C49.5369 55.5138 53.3189 57.1975 57.524 57.3213V64.7493C51.2786 64.6255 45.6055 62.1 41.4004 58.0889L46.6754 52.8398ZM58.4944 57.2966C62.6746 57.1728 66.4815 55.4891 69.3429 52.815L74.6179 58.0641C70.4129 62.0752 64.7398 64.6007 58.4944 64.7245V57.2966ZM70.0396 52.1217C72.7269 49.2743 74.4189 45.5108 74.5433 41.3264H82.0079C81.8835 47.5411 79.3455 53.1864 75.3146 57.3708L70.0396 52.1217ZM74.5433 40.3607C74.4189 36.201 72.7269 32.4128 70.0396 29.5654L75.3146 24.3163C79.3455 28.5007 81.8835 34.146 82.0079 40.3607H74.5433ZM75.3146 22.9297C70.9354 18.7453 65.0135 16.1207 58.4944 15.9969V9.41075C66.8299 9.53455 74.394 12.9019 79.9676 18.2748L75.3146 22.9297ZM57.4991 15.9721C50.98 16.0959 45.0581 18.7205 40.6789 22.9049L36.0259 18.2748C41.5995 12.9019 49.1636 9.53455 57.4991 9.41075V15.9721ZM39.9822 23.623C35.7771 27.9807 33.1396 33.8736 33.0152 40.3607H26.4215C26.5459 32.0661 29.9298 24.5391 35.3292 18.9929L39.9822 23.623ZM33.0152 41.3511C33.1396 47.8382 35.7771 53.7311 39.9822 58.0889L35.3292 62.719C29.9298 57.1727 26.5459 49.6457 26.4215 41.3511H33.0152ZM40.6789 58.7822C45.0581 62.9666 50.98 65.5911 57.4991 65.7149V72.2763C49.1636 72.1525 41.5995 68.7852 36.0259 63.4123L40.6789 58.7822ZM58.4944 65.7397C65.0135 65.6159 70.9354 62.9913 75.3146 58.8069L79.9676 63.437C74.394 68.8099 66.8299 72.1773 58.4944 72.3011V65.7397ZM76.0362 58.0889C80.2413 53.7311 82.8788 47.8382 83.0032 41.3511H89.5969C89.4725 49.6457 86.0886 57.1727 80.6892 62.719L76.0362 58.0889ZM83.0032 40.3607C82.8788 33.8736 80.2413 27.9807 76.0362 23.623L80.6892 18.9929C86.0886 24.5391 89.4725 32.0661 89.5969 40.3607H83.0032ZM80.6892 17.5815C74.9165 12.0105 67.1284 8.54415 58.4944 8.42035V0.992352C69.1688 1.11615 78.8479 5.42439 85.9641 12.3324L80.6892 17.5815ZM57.4991 8.42035C48.8899 8.54415 41.077 12.0105 35.3043 17.5815L30.0542 12.3324C37.1705 5.42439 46.8496 1.11615 57.524 0.992352V8.42035H57.4991ZM34.6076 18.2748C29.0092 24.0191 25.5257 31.769 25.4013 40.3607H17.9367C18.0611 29.7387 22.3906 20.1071 29.3327 13.0257L34.6076 18.2748ZM25.4262 41.3511C25.5506 49.9181 29.0341 57.6927 34.6325 63.437L29.3327 68.6614C22.3906 61.6048 18.086 51.9732 17.9616 41.3511H25.4262ZM35.3292 64.1303C41.1019 69.7013 48.8899 73.1677 57.524 73.2915V80.7195C46.8496 80.5957 37.1705 76.2875 30.0542 69.3794L35.3292 64.1303ZM58.4944 73.2915C67.1036 73.1677 74.9165 69.7013 80.6892 64.1303L85.9641 69.3794C78.8479 76.2875 69.1688 80.5957 58.4944 80.7195V73.2915ZM81.3858 63.4123C86.9843 57.6679 90.4678 49.9181 90.5922 41.3264H98.0568C97.9324 51.9484 93.6029 61.58 86.6608 68.6614L81.3858 63.4123ZM90.5922 40.3607C90.4678 31.7938 86.9843 24.0191 81.3858 18.2748L86.6608 13.0257C93.6029 20.1071 97.9324 29.7387 98.0568 40.3607H90.5922Z" fill="#9C9C9C"/>
<path d="M60.3621 31.3984L60.1133 31.4232V31.7203L60.3621 31.6956V31.3984Z" fill="#9C9C9C"/>
<path d="M60.0617 31.002H59.7383V31.2496H60.0617V31.002Z" fill="#9C9C9C"/>
<path d="M59.1406 30.9273L59.4392 30.9768L59.4641 30.7292L59.1655 30.6797L59.1406 30.9273Z" fill="#9C9C9C"/>
<path d="M58.8909 30.829L58.6172 30.8042L58.6421 30.5566L58.9407 30.5814L58.8909 30.829Z" fill="#9C9C9C"/>
<path d="M56.8274 30.5078H56.5039V30.7554H56.8274V30.5078Z" fill="#9C9C9C"/>
<path d="M55.7812 31.0015L56.0798 31.051L56.1047 30.8034L55.831 30.7539L55.7812 31.0015Z" fill="#9C9C9C"/>
<path d="M55.8327 31.3994L55.4844 31.3003L55.559 31.0527L55.8825 31.1518L55.8327 31.3994Z" fill="#9C9C9C"/>
<path d="M55.2334 31.6956L55.1836 31.448L55.4324 31.3984L55.4822 31.646L55.2334 31.6956Z" fill="#9C9C9C"/>
<path d="M22.7649 57.3213V57.866H23.0137L22.9639 57.247L22.6405 57.1232V56.9004H22.4414V57.3213H22.7649Z" fill="#9C9C9C"/>
<path d="M24.5039 58.832L25.126 59.1292L25.325 59.6986L25.6236 59.9215L25.8973 60.5405L25.748 60.8376L25.2752 60.4167L24.9518 59.9462L24.7776 59.5748L24.5039 58.832Z" fill="#9C9C9C"/>
<path d="M34.9538 71.684L35.1777 72.2287L34.8791 72.4021L34.7049 72.1545L34.3068 72.0307L34.2571 71.6593L33.9336 71.1641L34.4312 71.2383L34.9538 71.684Z" fill="#9C9C9C"/>
<path d="M56.7275 34.0982H56.2796L56.2049 33.1821L56.4537 33.0088V32.5384H55.0106L54.9608 32.0679L55.1599 31.9441L54.8364 31.8203L54.5876 32.1422L54.5129 32.5136L54.09 32.5879V32.786H53.7914V33.3307L52.6219 34.2963L50.3079 34.222C50.1337 34.5934 49.7356 34.1725 49.7356 34.1725C49.661 33.9249 49.0638 34.1725 49.0638 34.1725C49.0638 34.643 48.2676 33.9744 48.2676 33.9744L46.8244 32.9345C46.0033 32.1917 44.7592 33.1326 44.7094 33.3554C44.7592 33.9497 43.7639 33.4792 43.7639 33.4792C43.7639 33.4792 42.9428 33.2316 42.8184 33.5535C42.694 33.8754 42.1466 33.8011 42.1466 33.8011L42.0719 33.9744L41.6489 34.0487L41.5743 34.2963L41.0767 34.3706L42.3208 34.3211C42.6442 34.2716 42.1963 35.0391 41.9973 34.9896L41.425 35.0391L41.2259 35.2372H40.6785L40.4297 35.5838L39.6335 35.5343C39.6335 35.5343 39.1856 35.9057 39.2105 36.0295C39.2603 36.1533 39.1359 36.5247 39.0114 36.5247C38.887 36.5247 38.6382 36.8961 38.7129 37.0199C38.7875 37.1437 38.464 37.5646 38.464 37.5646L38.3894 37.9855L38.1406 38.0598V39.1988L37.6429 39.5454V40.0406L36.8965 40.8329L36.9711 41.5015L36.3491 42.17L36.4237 42.8385L36.0505 42.9623L35.9758 43.2594L35.8017 44.126L36.2247 44.1755C36.4237 44.1013 36.3988 44.7203 36.2247 44.7945C36.0505 44.8688 35.6026 45.0421 35.8514 45.2155C36.1002 45.3888 35.1796 45.3393 35.1796 45.0917C35.1796 44.8441 34.682 44.6212 34.5576 44.7203C34.4332 44.7945 34.2341 44.3489 34.2341 44.3489C33.7862 43.8784 32.3679 44.3984 32.3679 44.3984L32.1689 45.0669C31.721 45.1412 31.4224 45.9087 31.4224 45.9087C31.0492 46.0325 30.7506 46.503 30.875 46.6268C30.9994 46.7506 30.676 46.8001 30.676 46.8001V47.7162L30.4769 48.0133L30.5267 49.0037C30.7755 49.0037 30.7257 49.4742 30.7257 49.4742C30.3027 49.5237 30.4023 50.0684 30.4023 50.0684L29.5314 50.3655L29.3572 50.6131L28.2873 50.5636L27.9887 50.8607L27.6901 50.5636H25.6249L25.5503 50.3655L25.1273 50.2913L25.0775 49.8208L24.4555 49.8703L24.3311 50.1179L23.6592 50.1675C23.709 50.5884 22.9874 51.2074 22.9128 51.0341C22.8381 50.8607 22.3654 50.4151 22.5893 50.316C22.7884 50.2417 23.3358 50.1427 23.3358 50.1427V49.8456L21.7931 49.7961L21.6189 50.0437L20.9969 50.0932V50.7617L20.6983 50.836C20.4992 50.9598 20.748 51.4302 20.748 51.4302C21.0466 51.7273 20.6983 52.173 20.6983 52.173C20.4495 52.4206 20.8973 52.8911 20.8973 52.8911C21.2208 52.9653 20.6983 53.2129 20.6983 53.2129C20.7729 53.6339 21.0217 53.7577 21.0217 53.7577C20.7729 54.1786 21.1959 54.3767 21.1959 54.3767L21.2457 55.0947L21.5443 55.268V55.7385L21.7184 56.0356H22.3903L22.3405 54.9957C21.7682 54.3271 22.8381 54.1538 22.8879 54.4014C22.9377 54.649 23.3855 54.7728 23.3855 54.7728C23.4602 55.3918 24.1818 55.7632 24.3808 55.1442C24.5799 54.5252 24.754 54.8966 24.8785 55.1937C25.0029 55.4909 25.7991 56.2089 25.7991 56.2089H26.4211L26.4958 56.8031C27.1925 56.7536 27.4164 56.8527 27.6901 57.7935C27.9887 58.7592 28.7601 59.0068 28.7601 59.0068L29.3323 58.9573C29.3323 58.4621 29.9046 59.0315 29.9046 59.3039C29.9046 59.5515 31.0243 60.5171 31.0243 60.5171L32.144 60.7647L33.1891 61.6066L33.9853 61.5323H34.3087C34.5078 60.8142 35.5031 61.5818 35.6026 61.8294C35.6773 62.077 36.3491 62.4979 36.4237 62.2998C36.4984 62.1018 36.9711 62.2256 37.0458 62.8446C37.1204 63.4636 37.419 63.3398 37.419 63.3398L39.7828 63.2902L40.6039 62.5722L42.7189 62.5227C43.7888 62.4732 43.1419 61.0123 42.9179 61.0123C42.5447 60.7152 43.0423 59.502 43.0423 59.502L40.0316 56.7041C39.3349 56.7041 39.957 55.6889 39.957 55.6889C40.5044 55.3423 39.8326 54.8223 39.8326 54.8223C39.9072 54.3271 39.534 53.7329 39.534 53.7329C38.7875 53.2377 38.9866 52.2721 38.9866 52.2721V51.6035C38.3645 51.0093 39.2354 50.935 39.2354 50.935C39.534 50.4398 39.0363 50.0684 39.0363 50.0684L38.9866 49.5237L38.3148 49.4494L38.2401 47.4934L36.7472 45.364C36.4486 45.2897 36.6725 44.7698 36.6725 44.7698C37.0458 44.5717 36.5979 44.0517 36.5979 44.0517L36.5481 43.1356L37.419 43.0613L37.6181 42.7395H38.041L37.9913 41.65C38.1903 41.1053 38.688 41.4024 38.688 41.4024L39.2603 41.4519L39.5837 40.8329L39.6584 40.3377L39.2105 40.2882C38.7129 39.9911 38.9617 38.9017 38.9617 38.9017C39.7579 37.7379 40.6537 38.4065 40.6537 38.4065L41.2259 38.3569C42.0968 38.9512 41.3006 40.0159 41.3006 40.0159C41.1264 40.2635 41.2259 41.0558 41.2259 41.0558L41.425 42.3928L40.8776 42.8633C40.4297 43.1109 40.4297 43.7051 40.9274 43.8289C41.2508 43.8784 41.1264 44.6707 40.6288 44.126C39.8823 44.126 41.0518 44.7945 40.7034 44.6212C41.4499 44.9926 41.2757 44.2993 41.2757 44.2993L42.271 43.507C42.6442 43.2099 43.316 44.126 43.316 44.2498C43.316 44.3736 44.9583 44.2993 44.9583 44.2993C45.4061 44.5965 45.5803 45.3393 45.5803 45.3393C46.0282 44.745 46.9986 45.2897 46.277 45.6364C46.9488 46.0573 46.9488 46.4287 46.9488 46.4287C47.4962 46.2554 47.4962 46.6763 47.4962 46.8001C47.4962 46.9239 47.6704 46.1811 47.6704 46.1811C47.0483 45.7107 48.4915 45.5621 48.0934 46.3792L47.8446 46.7506L48.2676 47.0725L48.3173 48.0381C49.238 47.9638 48.9891 46.8249 48.9891 46.8249L49.4121 46.7506C49.4121 46.3792 49.7107 46.5773 49.7107 46.5773C49.4121 45.1659 50.3825 44.9183 50.3825 44.9183C50.9299 44.7945 50.9548 43.6556 50.9548 43.6556C50.5816 43.4823 50.7806 42.9128 51.2036 43.408C51.6266 43.9032 50.9548 42.3928 50.9548 42.3928L50.6314 42.0957L50.1835 42.0462L50.1337 41.5757H49.3873L49.2628 42.17L48.9891 42.2938L48.9145 42.1205L48.7901 42.5909H48.0436L47.9939 42.0957L48.4417 41.9719L48.6159 41.7243L48.7403 41.0558H49.2877L49.9844 40.8577C50.0342 40.1397 50.4074 40.313 50.4074 40.313L50.6562 40.5111L51.0295 40.8082L51.0792 41.0558L50.8304 41.1796L50.7806 41.5262L50.9051 41.9967H51.2285C51.3529 41.3281 52.2238 41.3281 52.4726 41.7491L52.7214 41.1548C52.1492 40.8577 52.7214 40.412 52.8707 40.6101C53.0449 40.8082 53.4181 40.0654 53.4181 40.0654C53.4181 40.0654 53.7167 40.4368 53.4181 39.9416C53.1196 39.4464 53.6172 39.1988 53.6172 39.1988C53.5426 38.7036 54.1646 38.7779 54.1646 38.7779L54.2144 38.1093L53.6421 38.0598C53.5177 38.6541 53.02 38.1341 53.2688 38.0103C53.5177 37.8865 53.7665 37.6389 53.7665 37.6389V37.218L54.0153 37.1437L54.0651 36.7228H54.6871L55.2345 36.4752L55.3589 36.2771L55.9312 36.2276L56.7523 35.4848L56.6777 35.1629C56.18 35.1629 56.6777 34.7915 56.6777 34.7915L56.7275 34.0982Z" fill="#9C9C9C"/>
<path d="M40.057 42.3672L39.3106 42.293L39.3603 42.5901H39.5594C39.8828 43.1843 39.6091 44.5956 39.6091 44.5956C39.6091 44.5956 39.1115 44.6452 39.0369 44.3976C38.9622 44.15 38.7383 44.9423 38.9124 45.0661C39.0866 45.1899 39.6589 45.0661 39.7087 45.5365C39.7584 46.007 40.0819 45.2394 40.0819 45.2394L40.057 42.3672Z" fill="#9C9C9C"/>
<path d="M39.3086 45.7593V46.7497L39.9555 47.641L40.2043 47.0468L40.3039 46.6754L40.0053 46.5516L40.0551 45.9326L40.3039 45.8831L40.3288 45.5859L39.7067 46.0069L39.3086 45.7593Z" fill="#9C9C9C"/>
<path d="M40.3782 48.5576V48.1367L40.0796 48.1862L40.0547 48.5081L40.3782 48.5576Z" fill="#9C9C9C"/>
<path d="M40.0085 50.5627V50.2656L39.6602 50.3151V50.6123L40.0085 50.5627Z" fill="#9C9C9C"/>
<path d="M40.5062 49.2744C40.6057 49.2744 40.6804 49.2001 40.6804 49.1011C40.6804 49.002 40.6057 48.9277 40.5062 48.9277C40.4067 48.9277 40.332 49.002 40.332 49.1011C40.332 49.2001 40.4067 49.2744 40.5062 49.2744Z" fill="#9C9C9C"/>
<path d="M40.7796 50.1416C40.8758 50.1416 40.9538 50.064 40.9538 49.9682C40.9538 49.8725 40.8758 49.7949 40.7796 49.7949C40.6834 49.7949 40.6055 49.8725 40.6055 49.9682C40.6055 50.064 40.6834 50.1416 40.7796 50.1416Z" fill="#9C9C9C"/>
<path d="M40.8031 45.3623C40.8993 45.3623 40.9773 45.2847 40.9773 45.1889C40.9773 45.0932 40.8993 45.0156 40.8031 45.0156C40.7069 45.0156 40.6289 45.0932 40.6289 45.1889C40.6289 45.2847 40.7069 45.3623 40.8031 45.3623Z" fill="#9C9C9C"/>
<path d="M54.0668 39.5193H54.3156L54.3653 39.7917L54.1912 39.9402L54.1165 40.1631L53.7931 40.2374L53.0466 40.9554L52.9968 41.2773L52.7978 41.5744L52.549 42.1934L51.6781 42.2429L51.5039 42.9857L51.6283 43.6295L52.3748 43.9266L52.4494 43.5057L52.6982 43.3819L52.748 42.961L52.9222 42.6638L53.171 42.3667L53.2456 42.0448L53.6686 41.7972L54.1663 41.6982L54.3653 41.4506L54.44 40.9554L54.4897 40.584L54.6639 40.3116L55.1616 40.1136V39.3212H54.9127L54.863 39.0241L54.4151 38.9746L54.3156 39.1974H54.1165L54.0668 39.5193Z" fill="#9C9C9C"/>
<path d="M56.0053 41.8716V41.2774L55.9307 40.7327L55.3086 40.4355L54.8607 40.8565L54.7861 41.4507V41.8221L54.3631 41.8964L54.2885 43.0353L53.965 43.1591L54.0148 43.5801L53.5669 43.7039L53.119 43.8277L53.0444 44.3724L52.7209 44.5705L52.5467 45.0657L52.3477 46.2789C52.3477 46.2789 52.7209 46.9969 52.9199 46.6503C53.119 46.3284 53.4673 46.2789 53.4673 46.2789L53.5918 45.9818L54.7114 46.0313C54.7861 45.5609 55.3335 45.7342 55.3335 45.957C55.3335 46.1551 55.7565 46.0065 55.7565 46.0065L56.0551 45.5361H56.503L56.5527 45.0409L56.7518 44.9171V44.1743C57.4236 43.9762 57.3241 43.3325 57.3241 43.3325L57.4982 43.1344L57.4236 42.8373C57.1001 42.7135 57.2494 42.4163 57.4734 42.4906C57.6724 42.5649 57.1748 42.1192 57.1748 42.1192C56.9259 42.3173 56.7269 41.8716 56.7269 41.8716H56.0053Z" fill="#9C9C9C"/>
<path d="M56.6761 46.9221C56.6263 47.4173 56.0043 47.5906 56.0043 47.5906L55.5564 47.4668L55.3076 47.2688L55.2578 46.6745L55.631 46.625L55.7057 46.8726L56.6761 46.9221Z" fill="#9C9C9C"/>
<path d="M58.9166 44.2483C59.0162 44.6197 58.9913 43.6541 59.1654 43.7036C59.3396 43.7531 59.2152 43.1094 59.2152 43.1094L58.4688 43.6541C58.8171 43.7036 58.8669 44.075 58.9166 44.2483Z" fill="#9C9C9C"/>
<path d="M61.1076 42.0707C61.2818 42.4421 61.232 42.9868 61.8541 43.4077C62.0531 43.5563 61.7297 43.8287 61.5306 43.7049C61.3315 43.5811 60.7344 42.6649 60.7344 42.6649V42.1202C60.8588 41.7983 61.033 41.9221 61.1076 42.0707Z" fill="#9C9C9C"/>
<path d="M61.1055 54.7723L61.2299 54.8961L61.3543 55.1189L61.628 54.6485L61.4041 54.5742L61.1055 54.7723Z" fill="#9C9C9C"/>
<path d="M66.0594 53.5088L66.3829 53.286L66.2585 53.0879L65.9102 53.286L66.0594 53.5088Z" fill="#9C9C9C"/>
<path d="M78.0268 62.2248L78.4001 62.3981L78.4498 63.1161C78.9475 63.6113 80.5648 63.1904 80.5648 63.0666C80.5648 62.9428 80.4901 61.5315 80.4901 61.5315L80.2911 61.3334L80.2413 60.2935C80.4155 59.7488 79.4451 58.9564 79.3705 59.1298C79.2958 59.3031 78.7484 59.1793 78.7484 59.3278C78.7484 59.5012 78.4249 60.3182 78.5742 60.6154C78.7484 60.9125 78.4498 60.9125 78.4001 61.2096C78.3503 61.4572 77.9273 61.9524 78.0268 62.2248Z" fill="#9C9C9C"/>
<path d="M77.1048 60.5415C77.0301 60.8634 76.7316 61.0367 76.5574 60.9129C76.3832 60.7891 76.7564 61.111 76.856 61.2843C76.9306 61.4577 77.1794 61.4577 77.279 61.2843C77.3536 61.111 77.3287 60.7396 77.4034 60.5663C77.478 60.4178 77.1546 60.3682 77.1048 60.5415Z" fill="#9C9C9C"/>
<path d="M75.49 52.8906H75.1914V53.6829H75.49V52.8906Z" fill="#9C9C9C"/>
<path d="M79.4696 44.843C79.2954 44.5954 80.2907 44.1745 80.4649 44.6697C80.639 45.1649 80.4649 45.0906 80.2907 45.0411C80.1414 44.9916 79.7184 45.1649 79.4696 44.843Z" fill="#9C9C9C"/>
<path d="M80.3662 39.248L80.3164 39.4956L80.7643 39.5699L80.814 39.3223L80.3662 39.248Z" fill="#9C9C9C"/>
<path d="M79.1967 39.9651L79.2216 40.0394L79.4704 39.9404L79.3709 39.7423L79.3211 39.5938L79.1967 39.668L78.8981 39.8413L78.6244 39.668L78.5 39.8909L78.8235 40.0889L78.8981 40.1385L78.9479 40.0889L79.1967 39.9651Z" fill="#9C9C9C"/>
<path d="M80.7642 29.7896H80.1422C80.1422 29.7896 80.3412 29.8639 79.7689 29.3192C79.1966 28.7744 78.8234 29.443 78.8234 29.443L78.1516 29.5172V30.1858L77.8281 30.3096L77.8779 30.7305L78.3258 30.681C78.3258 30.681 78.3258 31.1762 78.4502 30.9781C78.5746 30.78 79.6196 31.0276 79.5201 31.5228C79.4952 31.7209 80.5651 32.2656 80.4407 32.9341C80.9881 33.0084 80.8637 33.5531 80.8637 33.5531L81.5604 33.6274L81.7595 33.2065L81.9585 33.256V33.0084L81.5107 32.8846L81.436 31.5476L81.1374 31.3495L81.2121 31.0028L80.8886 30.879L81.0628 30.3343L80.7642 29.7896Z" fill="#9C9C9C"/>
<path d="M82.5814 34.0476L82.2579 33.998L81.5115 34.1218L81.0885 34.9142C81.0885 34.9142 81.2875 35.038 81.4617 35.3351C81.6359 35.6322 81.7105 37.3406 81.2129 37.6378C80.7152 37.9349 81.2626 37.7616 81.2626 37.7616L81.188 38.6777C81.3124 39.0986 81.5115 38.8758 81.6359 38.6777C81.7603 38.4796 81.8847 38.4301 82.0589 38.2072C82.233 38.0092 82.4819 37.613 82.5067 37.3406C82.5565 37.0435 82.7556 36.5978 82.6312 36.474C82.5067 36.3502 82.7556 35.756 82.7556 35.756C82.7556 35.756 82.9297 35.4094 82.7556 35.0875C82.5814 34.7408 82.8053 34.3694 82.9297 34.2209L82.5814 34.0476Z" fill="#9C9C9C"/>
<path d="M83.0781 35.7555L83.103 35.4336L83.3518 35.4584L83.3269 35.805L83.0781 35.7555Z" fill="#9C9C9C"/>
<path d="M83.0521 36.9202L82.8281 36.7964L82.9525 36.5488L83.1765 36.6726L83.0521 36.9202Z" fill="#9C9C9C"/>
<path d="M82.7027 33.6024L82.5285 33.231C82.5285 33.231 82.5285 32.9091 82.6031 32.7358C82.6778 32.5624 82.429 32.4139 82.3045 32.3644C82.1801 32.3148 82.2299 31.993 82.1801 31.8196C82.1304 31.6463 81.8567 31.5225 81.8567 31.5225C81.8567 31.5225 81.782 30.9035 81.782 30.7797C81.782 30.6559 81.4088 30.4826 81.5332 30.3588C81.6576 30.235 81.7323 30.0617 81.8567 29.9874C81.9811 29.9131 81.7323 29.3189 81.9313 29.4427C82.1304 29.5665 82.1304 29.7893 82.2299 29.9379C82.3045 30.1112 82.1801 30.6807 82.4041 30.8045C82.6031 30.9283 82.3543 31.3492 82.7027 31.3492C83.0261 31.3492 82.8271 32.1415 82.8271 32.1415C82.8271 32.1415 82.7524 32.7358 82.9515 32.7605C83.1505 32.81 83.0261 33.8004 83.0261 33.8004L82.7027 33.6024Z" fill="#9C9C9C"/>
<path d="M80.0156 26.8431C80.14 27.0164 80.3889 27.1402 80.3889 27.3136C80.3889 27.4869 80.3142 27.6107 80.563 27.6354C80.8118 27.685 80.986 27.5859 81.0607 27.8088C81.1353 28.0068 81.1353 28.3535 81.1104 28.5268C81.0607 28.7001 81.1602 28.9477 81.3593 28.9477C81.5583 28.9477 81.6081 28.9972 81.6081 29.121C81.6081 29.2448 81.8569 28.6506 81.8569 28.6506C81.6578 28.4773 81.4837 28.1059 81.4837 28.1059C81.4837 28.1059 81.2846 27.5116 81.2846 27.4374C81.2846 27.3631 80.986 27.264 80.8616 27.2393C80.7372 27.1898 80.5381 26.8184 80.5381 26.8184L80.0156 26.8431Z" fill="#9C9C9C"/>
<path d="M80.416 26.4473C80.2916 26.274 80.1672 26.1502 79.993 26.0759C79.8188 26.0017 79.6944 25.9026 79.5451 25.9026C79.3709 25.9026 79.2216 25.7293 79.2963 25.5312C79.3709 25.3331 79.1719 25.2341 79.1719 25.0608C79.1719 24.8875 79.2963 24.8875 79.4953 25.0113C79.6944 25.1351 79.6695 25.1846 79.8188 25.3827C79.993 25.5807 80.0676 25.8036 80.2418 25.7541C80.416 25.7045 80.5404 26.1255 80.6897 26.0017C80.8639 25.8779 80.8141 26.2988 80.8141 26.2988L80.416 26.4473Z" fill="#9C9C9C"/>
<path d="M75.5879 31.1761C75.8118 31.3989 74.3438 31.3494 74.3438 31.1761C74.3438 31.0028 74.4682 30.4333 74.8414 30.5571C75.2146 30.6809 75.2644 29.8143 75.2644 29.8143C75.2644 29.8143 74.9409 29.8638 75.2146 29.6905C75.5132 29.5172 75.2146 29.2696 75.0902 29.1458C74.9658 29.022 74.8414 28.7991 74.8414 28.7991H75.4137C75.6625 28.6258 75.7371 27.8335 75.7371 27.8335C76.2348 28.0068 76.4836 27.6602 76.4836 27.6602C76.4836 27.6602 76.5583 27.9078 76.7324 28.1306C76.9066 28.3287 76.3094 28.4277 76.5334 28.5515C76.7324 28.6753 76.832 29.0467 76.7324 29.1705C76.6578 29.2943 76.185 29.22 76.185 29.0467C76.185 28.8734 76.0108 29.2448 76.185 29.4676C76.3592 29.6657 75.986 29.9628 75.8864 29.9628C75.8118 29.9628 75.2644 30.0371 75.7123 30.3095C76.1601 30.5571 76.6578 30.4333 76.6578 30.4333C76.6578 30.4333 77.031 30.3838 77.1554 30.6066C77.2798 30.8047 77.1057 30.8542 76.9066 30.8542C76.7075 30.8542 75.7123 30.7799 75.7123 30.7799C75.7123 30.7799 75.4634 31.0523 75.5879 31.1761Z" fill="#9C9C9C"/>
<path d="M72.9243 31.5464C73.1233 31.4969 73.621 31.4722 73.7205 31.596C73.7951 31.7198 73.4219 31.8931 73.4219 31.8931L72.9243 31.9674C72.775 31.7693 72.7252 31.596 72.9243 31.5464Z" fill="#9C9C9C"/>
<path d="M78.2734 28.0553C78.5969 27.882 79.3185 27.882 79.2687 27.6344C79.219 27.3868 79.6917 27.3125 79.6917 27.3125L79.8161 27.8077L80.1893 28.0553L80.2391 28.5257C80.2391 28.5257 80.3635 28.4515 79.9156 28.5753C79.4678 28.6991 79.7415 28.8971 79.7415 28.8971L78.7462 28.9467L78.6218 28.5257L78.2734 28.0553Z" fill="#9C9C9C"/>
<path d="M76.6568 25.7778C76.9056 25.7778 76.5821 26.7435 77.2291 26.6444C77.9009 26.5701 77.2788 26.9415 77.7765 26.9663C78.2741 27.0158 78.1497 26.5949 78.3239 26.2978C78.498 26.0007 78.3985 25.8273 78.1248 25.7531C77.8262 25.6788 77.8262 25.6788 77.7516 25.3321C77.6769 25.0103 77.3286 24.9112 77.3286 24.9112L77.2042 24.416L76.6568 24.7379L76.1094 25.4559C76.1094 26.0502 76.408 25.7778 76.6568 25.7778Z" fill="#9C9C9C"/>
<path d="M77.7539 29.3179L77.8783 29.0703L78.1023 29.1694L77.9778 29.4417L77.7539 29.3179Z" fill="#9C9C9C"/>
<path d="M77.5769 28.9219H77.3281V29.219H77.5769V28.9219Z" fill="#9C9C9C"/>
<path d="M77.5301 23.3516L77.5798 23.723L77.331 23.7477L77.2812 23.3763L77.5301 23.3516Z" fill="#9C9C9C"/>
<path d="M77.0809 27.2383H76.832V27.4364H77.0809V27.2383Z" fill="#9C9C9C"/>
<path d="M76.1616 27.2392L76.1367 26.9916L76.5597 26.9668L76.5846 27.2144L76.1616 27.2392Z" fill="#9C9C9C"/>
<path d="M72.7513 31.2751L72.5273 31.176L72.6518 30.8789L72.8757 30.9779L72.7513 31.2751Z" fill="#9C9C9C"/>
<path d="M71.4585 30.5081L71.4336 30.2605L71.8566 30.2109L71.8815 30.4585L71.4585 30.5081Z" fill="#9C9C9C"/>
<path d="M64.2917 30.4336L63.3711 30.4584L63.396 30.706L64.2917 30.6812V30.4336Z" fill="#9C9C9C"/>
<path d="M62.7753 30.7803L62.6758 30.4089L62.9246 30.3594L62.9992 30.7308L62.7753 30.7803Z" fill="#9C9C9C"/>
<path d="M62.5981 31.0517L62.5234 30.8041L62.6478 30.7793L62.7225 31.0021L62.5981 31.0517Z" fill="#9C9C9C"/>
<path d="M64.663 30.3337L64.6133 30.6309L65.0612 30.6804C65.0612 30.6804 65.2602 30.8537 65.2602 30.9775C65.2602 31.1013 65.5588 31.2251 65.7081 31.2251C65.8823 31.2251 66.3301 30.8785 66.3301 30.8785C66.3301 30.8785 66.5292 30.2842 66.3799 30.3337C66.2057 30.3833 65.8823 30.6309 65.8325 30.3833C65.7827 30.1357 65.2851 30.2595 65.2851 30.2595L64.663 30.3337Z" fill="#9C9C9C"/>
<path d="M66.7292 29.8878C66.7292 30.0116 66.6546 30.1849 66.9034 30.2344C67.1522 30.2839 67.6001 30.0611 67.6499 30.3087C67.6996 30.5563 67.6996 30.7296 68.0231 30.8534C68.3466 30.9772 68.5705 31.0267 68.8193 31.0267C69.0682 31.0267 69.6156 30.9524 69.6156 30.9524C69.6156 30.9524 70.2127 31.0515 70.3123 31.1505C70.7601 31.621 71.0587 31.7448 71.1831 31.5219C71.3075 31.3238 71.1334 30.8534 71.1085 30.6801C71.0587 30.5068 70.4864 29.7144 70.2874 29.8878C70.0883 30.0611 70.0386 29.8878 69.6653 30.0116C69.2921 30.1354 68.4959 30.0611 68.471 29.8878C68.4212 29.7144 67.8489 29.6402 67.8489 29.4668C67.8489 29.2935 67.4259 29.0954 67.4757 29.343C67.5255 29.5906 67.1771 29.7144 67.1025 29.6402C66.9781 29.5411 66.7292 29.8878 66.7292 29.8878Z" fill="#9C9C9C"/>
<path d="M76.2361 24.5404L76.5347 23.6243C76.1117 23.55 76.2113 23.0795 76.2113 23.0795C76.1615 22.7081 75.5892 22.2872 75.3901 22.411C75.1911 22.5348 75.2657 21.5444 75.2657 21.5444C75.2657 21.5444 75.639 21.2968 75.8131 21.4206C75.9873 21.5444 74.3949 19.3408 74.0714 19.5389C73.7479 19.7369 73.0015 19.3408 73.0264 18.9446C73.0761 18.5732 71.5334 17.3105 71.5334 17.3105C71.5334 17.3105 71.0358 16.9886 70.9611 17.2362C70.8865 17.4838 70.7123 17.6571 70.9611 17.7809C71.21 17.9047 71.1602 17.5828 71.4588 17.8552C71.7574 18.1523 72.2799 18.5237 72.0808 18.7713C71.8818 19.0189 71.633 19.118 71.633 19.118L71.9315 19.4646H72.3794L72.4541 20.1826C72.4541 20.1826 72.9517 20.4302 73.0761 20.7273C73.2005 21.0245 73.2005 21.1978 73.0761 21.3463C72.9517 21.5197 72.7029 21.8168 72.7527 22.0891C72.8024 22.3863 73.1259 22.5101 73.1259 22.5101L73.4493 22.5596L73.6982 22.6834V23.2281C74.0216 23.1538 74.569 23.5995 74.5193 23.8966C74.4695 24.1937 74.5939 24.0204 75.0169 24.3175C75.4399 24.6147 75.3155 24.6642 75.5892 24.8623C75.8629 25.0356 76.1117 24.9118 76.2361 24.5404Z" fill="#9C9C9C"/>
<path d="M69.4176 18.8451C69.3679 18.6717 69.2932 18.1023 69.5421 18.127C69.7909 18.1765 69.6167 18.127 69.9153 18.2508C70.2139 18.3746 70.2388 18.0527 70.2388 18.0527H70.6866L71.2589 18.5232L71.1843 18.8946L70.7613 18.9441C70.5622 18.6222 70.1392 18.746 70.2139 19.0184C70.2885 19.3155 70.0148 19.8602 69.8406 19.885C69.6665 19.9345 69.1439 19.9345 69.1688 19.6869C69.2435 19.4393 69.4176 18.8451 69.4176 18.8451Z" fill="#9C9C9C"/>
<path d="M69.0938 17.7311V17.4092C69.0938 17.4092 69.044 17.0873 68.845 17.0873C68.6459 17.0873 68.2727 16.8397 68.3473 16.6664C68.422 16.4931 67.6506 16.3197 67.6506 16.3197C67.6506 16.3197 66.9539 15.6512 67.2027 15.7255C67.4516 15.7998 67.3272 15.4284 67.3272 15.4284C67.3272 15.4284 66.8295 15.5027 66.7051 15.4779C66.5807 15.4284 66.6305 15.057 66.6305 15.057C66.6305 15.057 66.1328 14.9332 66.1328 15.057C66.1328 15.1808 66.307 15.1808 66.3816 15.4284C66.4563 15.676 66.4314 16.0969 66.8046 16.1712C67.1779 16.2455 67.2525 16.3445 67.3023 16.5178C67.352 16.6911 67.7999 16.7159 67.7999 16.7159L68.1234 16.8892L69.0938 17.7311Z" fill="#9C9C9C"/>
<path d="M64.6158 13.4717L64.4914 13.1251L64.168 13.0508V13.4222L64.6158 13.4717Z" fill="#9C9C9C"/>
<path d="M64.4914 11.7136C64.0684 11.3917 65.0637 11.9612 65.0637 11.9612C65.3872 11.9612 65.6111 12.2088 65.6111 12.3326C65.6111 12.4564 66.059 12.4069 66.059 12.4069L66.1088 12.1097L65.7853 11.6888L65.4867 11.4907C65.4867 11.4907 65.0388 11.4412 65.0388 11.3174C65.0388 11.2184 64.6656 11.8374 64.4914 11.7136Z" fill="#9C9C9C"/>
<path d="M72.1051 11.9627C71.9807 12.3341 71.9309 12.8293 71.7319 12.8293C71.5328 12.8293 71.6075 13.3741 71.6075 13.3741C71.6075 13.3741 72.1549 13.3741 72.3042 13.4236C72.4783 13.4731 72.4783 13.894 72.4783 13.894C73.1004 13.8445 73.3492 14.6863 73.2746 14.9092C73.1999 15.1073 73.5234 15.1073 73.5234 15.1073C73.5234 15.1073 73.5234 15.7758 73.4487 15.9491C73.3741 16.1224 73.9961 16.2462 74.1454 16.4938C74.3196 16.7414 74.0708 17.5833 73.9464 17.6328C73.822 17.6823 74.2698 17.8061 74.245 18.0042C74.1952 18.2023 74.3694 18.0042 74.4191 18.3508C74.4689 18.6727 74.5435 19.3907 74.5435 19.3907L75.1158 19.4403C75.1905 18.8955 76.2604 18.8708 76.4346 18.9451C77.1313 19.1927 77.6787 20.2821 77.6787 20.5297C77.6787 20.7773 77.2308 20.8268 77.2308 20.8268L77.3054 22.0401C78.0021 22.2381 78.5993 23.2533 78.4998 23.4266C78.4251 23.5999 78.9974 23.5504 78.9974 23.5504C79.0721 22.8076 79.7936 23.0552 79.8185 23.3028C79.8683 23.5504 79.9927 24.0951 79.9927 24.0951L80.1918 24.4665L80.4903 24.7637L80.9382 24.7141L81.0626 24.9617L81.61 25.036C81.61 25.036 82.0579 25.5312 82.1077 25.655C82.1574 25.7788 82.7795 25.7293 82.9288 25.7788C83.103 25.8283 83.3518 25.9521 83.3767 26.1502C83.4264 26.3483 83.6752 26.6949 83.6752 26.6949C83.6752 26.6949 84.1729 26.8187 84.2227 26.9921C84.2724 27.1654 84.4715 27.5368 84.4715 27.5368L84.8945 27.8834L84.9442 28.2548L85.3921 28.3043L85.5165 28.7995L86.263 28.75L86.686 28.4529C87.2334 28.1558 87.6066 27.7844 87.6315 27.6111C87.6812 27.4377 87.7559 26.8187 88.1789 26.9425C88.6019 27.0663 88.3033 26.0264 88.3033 26.0264C88.3033 26.0264 87.731 25.6055 87.7559 25.4074C87.8057 25.2093 87.1836 24.7884 87.2085 24.6151C87.2583 24.4418 86.6611 24.1199 86.7109 23.9466C86.7606 23.7733 86.4123 23.3276 86.4123 23.3276L85.7902 22.7333L85.7156 22.3619L85.2179 22.3124L84.2227 21.0992L84.2724 20.7525L83.9738 20.703V20.2326L83.6752 20.0593L83.2274 20.0097L82.3067 19.0193L82.2321 18.5489H81.7842L81.8589 17.6823C82.1574 17.3109 81.9833 16.5929 81.9833 16.5929C81.9833 16.5929 81.411 16.89 81.1124 16.7662C80.8138 16.6424 81.2368 16.3453 81.2368 16.3453V16.0234L80.988 15.7758C80.988 15.7758 80.2913 15.8501 80.2415 15.7263C80.1918 15.6025 80.0673 15.0577 80.0673 15.0577L80.0176 14.3397L79.719 14.2159L79.6692 13.9683L79.2214 14.0178V13.5226L78.9725 13.4483L78.7237 13.3245L78.674 12.8293L77.7533 12.7798L77.4547 12.3589L77.1313 11.8637L76.0862 11.7894L75.8374 11.5418L75.4144 11.4675L75.1158 11.3438L74.9914 11.5418L74.1952 11.5913L74.1454 11.8389C73.7971 12.0123 72.1549 11.8389 72.1051 11.9627Z" fill="#9C9C9C"/>
<path d="M76.4575 10.8734C76.3829 10.5515 77.2786 10.2544 77.5026 10.502C77.7016 10.7496 78.2988 10.7991 78.3734 12.0371C78.3983 12.4828 77.627 11.5666 77.627 11.5666L77.0049 11.3686C76.6566 11.2943 76.4824 11.0962 76.4575 10.8734Z" fill="#9C9C9C"/>
<path d="M64.3177 11.3917L64.0938 11.2926L64.2679 10.8965L64.4919 11.0203L64.3177 11.3917Z" fill="#9C9C9C"/>
<path d="M62.1763 7.28221L61.6289 6.73749V6.26705L61.4548 6.09373L61.2806 5.49949L60.7332 5.32617L60.1858 5.52425L59.6135 5.89565L58.9914 5.96993L58.668 6.34133L59.9867 6.46513L60.2355 6.88605L61.1811 6.96033L61.8031 7.57933C62.3754 7.82693 62.4998 7.57933 62.1763 7.28221Z" fill="#9C9C9C"/>
<path d="M62.102 5.22667C62.0024 4.85527 61.4799 5.69711 62.0273 5.84567C62.5747 6.01899 63.0972 5.84567 63.0972 5.84567L63.2216 5.59807L65.2869 5.64759C65.461 5.47427 65.5357 5.22667 65.5357 5.22667C65.5357 5.22667 66.0333 5.05335 66.2324 5.15239C66.4314 5.22667 66.2821 4.55815 66.0582 4.65719C65.8591 4.73147 65.4361 4.70671 65.4361 4.70671H64.6897C64.6399 4.40959 63.993 4.53339 63.9432 4.70671C63.9183 4.85527 63.6695 4.90479 63.6695 4.90479L62.724 4.97907C62.6245 5.22667 62.1517 5.39999 62.102 5.22667Z" fill="#9C9C9C"/>
<path d="M57.9955 12.2838C58.6424 12.4819 58.8664 12.3333 58.9161 12.16C58.9659 11.9867 58.9908 11.9619 59.2396 11.9124C59.4884 11.8629 59.1899 11.3677 58.941 11.4172C58.6922 11.4667 58.4434 11.3429 58.3936 11.1201C58.3439 10.922 57.9458 10.3773 57.896 10.7982C57.8462 11.2191 57.5974 11.2191 57.6472 11.5162C57.7218 11.7886 57.8462 12.2343 57.9955 12.2838Z" fill="#9C9C9C"/>
<path d="M53.2427 12.7538C53.2178 12.6052 54.0638 12.5805 54.1882 12.7043C54.3126 12.8281 54.238 13.0509 54.6112 13.0509C54.9845 13.0509 54.8103 13.2985 54.7854 13.4223C54.7356 13.5461 54.3375 13.4966 54.2878 13.3728C54.238 13.249 53.616 13.1995 53.616 13.1995C53.616 13.1995 53.2925 12.9519 53.2427 12.7538Z" fill="#9C9C9C"/>
<path d="M66.8792 4.31098L66.9787 4.41002L67.0533 4.33574L67.4763 3.9891L67.3022 3.79102L66.9787 4.06338L66.7796 3.84054L66.6055 4.03862L66.8792 4.31098Z" fill="#9C9C9C"/>
<path d="M65.0387 3.3455L65.0885 3.29598L65.5613 2.99886L65.412 2.80078L65.0387 3.04838L64.765 2.87506L64.6406 3.0979L64.9641 3.29598L65.0387 3.3455Z" fill="#9C9C9C"/>
<path d="M63.5437 11.8622L63.8174 12.2831L64.0164 12.1346L63.7427 11.6889L63.693 11.6394H63.6432L63.2202 11.5898L63.1953 11.8374L63.5437 11.8622Z" fill="#9C9C9C"/>
<path d="M50.0087 23.2773L50.0585 23.7478H50.6805C50.9293 23.7478 50.4815 23.4507 50.4815 23.4507C50.4815 23.4507 49.9838 23.5002 50.0087 23.2773Z" fill="#9C9C9C"/>
<path d="M50.8047 23.3016L50.954 23.1035L51.2028 23.3016L51.0535 23.4997L50.8047 23.3016Z" fill="#9C9C9C"/>
<path d="M43.2656 15.478L43.4398 15.3047L43.6886 15.5523L43.5144 15.7256L43.2656 15.478Z" fill="#9C9C9C"/>
<path d="M54.9359 69.4789L55.1101 69.6522L55.3091 69.4541L55.4335 69.3303L55.2842 69.2313L54.8612 69.0332L54.7617 69.256L55.0105 69.3798L54.9359 69.4789Z" fill="#9C9C9C"/>
<path d="M51.6752 66.458L51.9738 66.6561L52.1231 66.458L51.9489 66.3342L52.0733 66.2352L51.924 66.0371L51.6752 66.2599L51.5508 66.359L51.6752 66.458Z" fill="#9C9C9C"/>
<path d="M82.8551 58.3127C82.8054 58.0899 82.5566 58.0156 82.5317 58.0156L82.457 58.2632C82.4819 58.2632 82.5068 58.288 82.5317 58.3127L82.5814 58.5356C82.5566 58.5603 82.5317 58.5851 82.5317 58.6099L82.7059 58.7832C82.8303 58.5851 82.88 58.4613 82.8551 58.3127Z" fill="#9C9C9C"/>
<path d="M83.2262 57.5212L82.8281 57.4964L82.853 57.125L83.2511 57.1745L83.2262 57.5212Z" fill="#9C9C9C"/>
<path d="M92.8078 54.2769C92.982 54.1778 93.2059 53.955 93.181 54.4254C93.1562 54.8959 92.9571 54.7473 92.8078 54.8959C92.6585 55.0444 92.559 54.4254 92.8078 54.2769Z" fill="#9C9C9C"/>
<path d="M94.9197 52.4938V52.4442C94.9197 52.37 94.8948 52.2709 94.845 52.1719L94.6211 52.2957C94.646 52.3452 94.646 52.4195 94.6709 52.469C94.6709 52.5433 94.6957 52.6176 94.7455 52.6671C94.7953 52.6918 94.845 52.7166 94.9197 52.6918L94.8699 52.4442C94.8699 52.469 94.8948 52.469 94.9197 52.4938Z" fill="#9C9C9C"/>
<path d="M94.375 52.6915C94.4496 52.9391 94.5243 53.1867 94.5243 53.2114L94.7482 53.1124C94.7482 53.1124 94.6487 52.8648 94.5989 52.6172L94.375 52.6915Z" fill="#9C9C9C"/>
<path d="M93.454 53.683L93.2051 53.6582C93.1802 53.8563 93.23 54.1039 93.4291 54.1286L93.4788 53.881C93.4788 53.881 93.454 53.782 93.454 53.683Z" fill="#9C9C9C"/>
<path d="M92.3846 48.7057C92.3597 48.6315 92.3349 48.5572 92.2602 48.5324C92.086 48.4581 91.7626 48.5819 91.6133 48.681L91.7626 48.8791C91.9119 48.78 92.1358 48.7305 92.1607 48.7553C92.1607 48.7553 92.1607 48.7553 92.1607 48.7305L92.3846 48.7057Z" fill="#9C9C9C"/>
<path d="M80.9134 35.361C80.7393 35.5343 80.366 35.6086 80.366 35.6086L80.2416 36.079L80.0426 36.2524C80.0426 36.2524 80.0923 36.3762 80.0426 36.6733C79.9928 36.9704 79.6196 37.1437 79.6196 37.1437L79.4454 37.3418C79.4454 37.3418 78.4501 37.3913 78.3257 37.3418C77.9525 37.1685 78.2013 36.6733 78.4501 36.7228C78.6989 36.7723 78.4004 36.0048 78.4004 36.0048L78.7238 35.9552C78.7238 35.9552 78.7736 35.2124 78.898 35.2124C79.0224 35.2124 78.8482 34.9648 78.6989 34.841C78.5248 34.7172 78.3257 34.2963 78.1515 34.3458C77.9774 34.3954 77.3304 34.3458 77.3304 34.3458L77.206 34.5934L76.7581 34.6677C76.7581 34.6677 76.8079 34.9896 76.7084 35.0886C76.4596 35.3858 75.514 36.0048 75.9122 34.9648L76.0366 34.7172V34.3458L75.2901 34.2963C75.2901 34.2963 74.9169 34.1725 74.9169 33.9992C74.9169 33.8259 74.8671 33.6278 74.8671 33.6278L73.9962 32.6622L72.9512 32.5384L72.8765 32.3403L72.2545 32.266C71.508 31.8946 70.8362 32.2165 70.9606 32.8602C71.085 33.4792 71.2841 33.7268 70.886 33.7268C70.463 33.7268 70.3883 33.405 70.3883 33.405C70.3883 33.405 70.0649 33.2812 70.0649 33.4545C70.0649 33.6278 69.9405 33.9497 70.0649 34.123C70.1893 34.2963 69.8907 34.5439 69.7663 34.4201C69.6419 34.2963 69.3184 33.9249 69.3931 33.8011C69.4677 33.6773 68.8208 32.885 69.4677 32.7612C70.1395 32.6374 69.4179 32.266 69.6668 32.167L69.9902 31.9936H70.3137L70.5128 31.8203L69.9653 31.746L69.6419 31.6965L69.0198 31.647C68.3978 32.0679 68.2734 32.5631 68.2734 32.5631C67.9499 33.1821 67.1537 32.3155 67.4523 31.9689C67.7509 31.6222 66.5316 31.9194 66.3326 32.0927C66.1335 32.266 65.5115 32.167 65.5115 32.167C65.3871 32.5384 64.8148 32.1174 64.9641 31.8698C65.1382 31.6222 65.1382 31.4489 65.1382 31.4489L64.9392 31.3994L64.6904 31.8698C64.1181 31.8698 63.9439 32.1917 64.0683 32.4146C64.1927 32.6126 63.8941 32.365 63.8195 32.6622C63.7448 32.9593 63.8693 32.9593 64.1181 33.0831C64.3669 33.2069 63.9937 33.2069 64.1678 33.405C64.342 33.603 64.8397 33.405 64.5411 33.7021C64.2425 33.9992 63.6702 33.8754 63.6702 33.8754C63.6204 34.2468 62.8491 34.1725 62.7496 34.0487C62.6749 33.9249 62.0529 33.1821 62.0529 33.1821L61.2566 33.1326C61.182 32.5384 61.6299 32.8355 61.804 32.3898C61.9782 31.9194 62.0529 31.1766 62.0529 31.1766C62.0529 31.1766 61.3811 31.127 61.3562 31.3499C61.3064 31.548 60.9083 31.6965 60.9083 31.6965C60.9083 31.6965 60.5848 31.8203 60.7092 31.9936C60.8337 32.167 60.4604 32.2412 60.4604 32.2412C60.4604 32.2412 60.5351 32.5136 60.4107 32.6126C60.0872 32.9593 59.2412 32.6622 59.1168 32.5384L58.6191 32.3403L58.1215 32.0184L57.5492 32.266L57.375 32.4393H56.753L56.7032 32.9345L57.8229 33.0583L57.8976 34.0982L57.4497 33.9497H57.1511L57.0267 33.7021L56.7779 33.6526V34.5687L57.0267 34.7668L57.2258 34.9648L57.6488 35.0144L57.7234 35.5096L58.7684 35.5591L58.8929 35.7572L59.5149 35.8067L60.7092 37.0199L60.6346 37.3913L60.4355 37.5151C60.5102 37.8122 59.8881 37.6389 59.8881 37.6389V37.8865L60.1867 37.936L60.4853 38.1094L60.9083 37.3913C61.3562 37.0942 61.5801 37.5151 61.605 37.7627C61.6548 38.0103 61.4059 37.9608 61.4059 37.9608V38.555L61.6548 38.6293C62.0777 39.1245 61.4806 39.4216 61.4806 39.4216L61.3562 39.8426C61.2318 40.214 60.7839 40.1397 60.7839 40.1397L60.6097 40.3873L60.1121 40.5111L61.0825 40.6349C61.182 40.2882 61.4308 40.214 61.5552 40.3873C61.6796 40.5606 61.6796 40.8577 61.6796 40.8577L61.9285 40.9072L61.8787 41.3777L62.1275 41.452V42.789L62.4261 43.1109C62.9237 42.9128 62.9237 43.2347 62.6749 43.408C62.4261 43.5813 62.6003 44.3241 62.6003 44.3241L62.4012 44.5222V44.8688L62.1524 45.0422V45.5126C61.7294 45.3145 61.2318 45.3888 61.1074 45.5126C60.7341 45.265 59.9379 45.3393 59.9379 45.5621C60.1867 45.884 59.6393 45.983 59.6393 45.983L59.3407 46.3049C59.5398 46.7258 59.1417 46.7754 59.1417 46.7754V47.5677L58.644 48.0381L58.6938 49.1276C58.6938 49.4247 59.3158 49.4494 59.4403 49.3009C59.5647 49.1275 60.0623 49.6475 60.0623 49.6475H60.4355L60.5102 48.9047L60.2614 48.7809V47.5677L60.6844 47.0972C61.182 46.9239 61.0078 48.1867 61.0078 48.3105C61.0576 48.7809 61.2566 48.7314 61.4557 48.6324C61.8787 48.459 61.5303 49.1028 61.2069 49.0533C60.8834 49.0037 61.0825 49.4742 61.0825 49.4742L61.2815 49.5485L60.9083 49.8456L60.5848 50.217L60.1618 50.0932L59.6642 50.0437L59.49 49.7465L59.1914 49.697L59.1417 50.2913L58.9426 50.5389L58.445 51.0341C59.1168 51.0341 58.3703 51.5045 58.1962 51.5045C58.5694 51.6283 58.1464 51.9997 57.2009 51.7026V51.9997L56.8774 52.0492L57.176 52.3711L57.4995 52.4206L57.375 53.1387C57.375 53.6834 56.0065 53.312 55.8821 53.1882L55.8324 53.931L55.5835 53.9805L55.6333 54.4757L55.5835 55.1937L56.0314 55.1195V55.4166L57.1511 55.4661L58.7684 53.7577L59.714 53.5596C59.7886 53.1387 60.2116 53.6339 60.2116 53.6339C60.6346 53.5843 60.7092 53.8815 60.7092 53.8815L61.2566 53.9557C61.7045 54.0795 61.4308 54.1291 61.4557 54.3024C61.5055 54.55 61.7045 54.4757 61.7045 54.4757L61.7792 53.931L62.028 53.9805L61.7792 53.6834L61.3313 53.4853L60.8337 53.2872C60.5102 52.8168 60.9083 52.9158 61.2566 52.9653H61.804C61.804 52.9653 62.4261 53.8072 62.4261 54.0053C62.4261 54.2033 62.7247 54.2529 62.7247 54.2529L63.0979 54.2033L63.2223 54.5005H63.5956L63.72 54.7481H64.4664L64.5162 54.3767L63.8195 54.2529L63.7697 53.8319L63.2721 53.7081C63.0979 52.9901 63.3965 52.792 63.5956 53.1139L63.8444 53.1634L63.7697 52.5444L64.0683 52.4701L63.9937 51.6035L63.7448 51.5293V51.2321L64.7899 51.2817C64.7152 50.7369 64.8397 50.4893 64.8397 50.4893H65.1382L65.188 50.6874L66.457 50.8112L67.3527 49.7961C67.303 49.7218 67.4523 49.6723 67.3527 49.5732C67.2283 49.4494 67.0542 49.5732 66.8551 49.4494C66.656 49.3256 66.8551 48.6076 66.8053 48.459C66.7556 48.2857 67.502 48.0381 67.3776 48.4095C67.2532 48.7809 67.3776 48.9542 67.3776 48.9542C67.925 48.459 68.3729 49.0037 68.3231 49.1276C68.2734 49.2514 68.6217 49.3751 68.8208 49.2514C69.0198 49.1276 69.2687 49.6227 69.194 49.8703C69.1194 50.1179 68.3729 50.0684 68.3231 49.8208C68.2734 49.5732 68.149 49.6475 68.0743 49.7713C67.9997 49.8951 67.6264 49.9694 67.4025 49.8456C67.3527 49.8208 67.3527 49.7961 67.3279 49.7713L66.4321 50.7865H66.4819C66.9795 51.0836 66.7307 51.455 66.5565 51.5293C66.3823 51.6035 66.1086 51.6035 66.1086 51.6035L66.034 51.7769L64.9641 51.8511L64.8894 52.2721C64.342 52.1978 64.143 52.7673 64.2674 53.0644C64.3918 53.3615 64.2674 53.6091 64.2674 53.6091L64.7152 53.8072L65.2875 53.6339C65.3622 53.2129 65.7354 53.1387 66.0838 52.8911C66.4072 52.6435 66.9546 53.3615 66.7805 53.6834C66.6063 54.0053 66.6063 54.1538 66.6063 54.1538L66.656 54.5252L66.233 54.6985L65.9096 54.8719L65.8598 55.0699H64.7401L64.5411 55.268L63.9937 55.3175L63.8195 55.5651L63.4463 55.6147C63.4463 55.6147 62.8242 55.9118 63.073 56.2337C63.3219 56.5803 62.028 56.5308 61.7543 56.0603C61.6796 56.4813 61.2069 56.1099 61.2069 56.1099L60.759 55.9861L60.7092 55.3671C60.6346 54.9461 59.8384 54.9461 59.8881 55.2433C59.9379 55.5404 58.3952 55.3671 58.3952 55.3671L57.8976 55.6147L57.4497 55.887L57.3999 56.0851L56.6535 56.1594L56.33 56.3327L56.2056 56.0851H55.8821L55.5587 56.5555C54.6878 56.6051 53.8667 57.1003 53.9413 57.2983C54.016 57.4964 53.6179 57.7193 53.6179 57.7193L53.2446 57.8431L52.9958 58.2145L52.4982 58.3878L52.4235 59.2544L52.1747 59.4277V59.7991L51.8761 59.8734V60.0715L51.4531 60.121L51.7019 60.74L52.0254 60.9133C52.5977 60.9876 52.3489 61.7056 52.3489 61.7056L52.6723 61.7551L52.8465 62.2256L53.17 62.8941C53.2944 63.3893 53.6676 63.2655 53.8418 63.2407C54.016 63.1912 54.1653 63.7359 54.1653 63.7359L55.8075 63.7855C55.8075 63.7855 55.7328 63.9588 56.0065 64.0331C56.3051 64.1073 58.1962 64.2064 58.2708 64.0826C58.1962 63.7112 59.3158 63.6121 59.7637 63.9588C60.2116 64.2807 60.8337 64.0826 60.8337 64.0826L61.4557 64.8254L61.8787 65.7415L62.5754 65.9396L63.073 66.0634L63.2472 66.7814L63.6204 66.8309L63.7448 67.3014C64.1927 67.6233 63.6204 68.3413 63.6204 68.3413V69.2574L63.9439 69.4307L63.8941 69.7774L64.4415 70.3221L65.0636 70.3716L66.6312 72.0305L67.8753 72.4019L68.0743 73.0704L68.3978 73.0209L68.6466 72.8228L69.6419 72.7733L70.1395 72.3029L70.6869 72.2286L75.2901 68.3413L74.8671 68.0937V67.1776C75.6136 66.6329 75.6633 65.6672 74.9418 65.5929C74.4192 65.5187 74.6432 64.9739 75.1408 64.8749L75.4394 64.7511V64.3797L76.3849 63.5131V62.8446L74.3197 61.1361C73.3991 60.8143 74.3197 58.8087 74.9418 58.8335C75.5638 58.883 74.892 55.7385 74.892 55.7385L74.5685 55.5651L74.6432 54.55H74.1953L73.4488 55.5156L73.2498 56.1841C73.1751 57.0507 70.6123 56.9022 70.4879 56.7784C70.3635 56.6546 69.4926 56.2832 69.4926 56.2832C69.4926 56.2832 68.8208 55.7385 68.6964 55.9118C68.572 56.0851 67.9997 55.7137 67.9997 55.8375C67.9997 55.9613 67.4523 55.5404 67.4523 55.5404L66.6312 55.2433L67.2532 55.1195L67.1288 54.6243L68.1987 55.169C68.3231 55.3423 68.8705 55.2928 68.8705 55.2928L69.0447 55.4909C69.0447 55.4909 69.3682 55.4413 69.5921 55.6889C69.7912 55.9365 70.886 55.7385 70.886 55.7385L71.1846 55.9861L71.6324 56.1594L72.9263 56.2089L72.9761 55.4166L73.2249 55.169L73.1751 54.6738L73.4737 54.4262V54.0053L73.7225 53.931L73.7723 53.0149L73.9714 52.9653V50.9598L73.3493 50.3655C73.2995 50.5636 72.6526 50.5636 72.6526 50.5636C72.6526 50.5636 72.4784 50.8607 72.354 50.8607C72.2296 50.8607 72.5282 51.2321 72.4287 51.4797C72.354 51.7273 72.0057 51.7273 72.0057 51.7273L71.3836 51.9007L71.2094 52.0987H70.5376L70.463 51.554L71.2094 51.3559L71.6324 51.1579L71.8315 50.7369C71.8813 50.316 72.3789 50.3655 72.3789 50.3655C72.3789 50.3655 73.3244 49.5732 73.3742 49.2018C73.424 48.8304 73.7474 47.7905 74.3197 47.7905H75.3896C75.8126 47.6172 75.6882 47.0725 75.6882 47.0725L76.2356 46.9982L76.3103 47.2953C76.3103 47.2953 77.0567 47.3696 77.1314 47.2458C77.206 47.122 77.3802 46.8249 77.5792 46.9487C77.7783 47.0725 78.4501 46.6516 78.4501 46.6516C78.4999 46.3544 79.5201 46.4782 79.5201 46.4782L79.6445 46.1068C79.6445 46.1068 78.9478 45.1412 78.8234 45.1412C78.6989 45.1412 78.0271 44.547 77.9525 44.7698C77.2807 44.5965 77.3304 43.6804 77.3304 43.6804L77.0816 43.0861C77.0816 42.7395 76.4596 42.0462 76.3351 42.1205C75.7131 41.65 76.161 41.1301 76.3351 41.0806C76.5093 41.031 76.9074 40.4616 76.9074 40.4616L77.1065 39.8673L77.8032 39.6692L77.8778 39.1245L77.5046 39.075C77.5046 39.075 77.9276 38.3322 78.1267 38.3322C78.3257 38.3322 79.6942 38.3322 79.8186 38.2579C79.943 38.1836 80.1919 37.5151 80.1919 37.3913C80.1919 37.2675 80.5153 37.218 80.6397 37.1932C80.7642 37.1437 81.0627 36.8218 81.1374 36.6485C81.3613 36.2276 81.0876 35.1877 80.9134 35.361Z" fill="#9C9C9C"/>
<path d="M57.995 50.4134C58.0447 50.3639 58.1194 50.6115 58.2438 50.562C58.3682 50.5372 58.418 50.7848 58.2935 50.7848C58.1691 50.7848 58.1691 50.9334 58.1691 51.0076C58.1691 51.0819 58.1691 51.2305 58.0696 51.3295C57.9701 51.4286 57.8954 51.3543 57.771 51.3048C57.6466 51.2305 57.5968 51.2305 57.4227 51.2305C57.2734 51.2305 57.3978 51.4781 57.3978 51.4781C57.3978 51.4781 56.7509 51.4533 56.8753 51.3543C56.9997 51.2552 57.1241 51.2305 57.0246 51.1562C56.925 51.0819 57.0246 51.0324 57.0246 50.9086C57.0246 50.7848 57.3231 50.8343 57.2485 50.76C57.149 50.661 57.2485 50.3144 57.3978 50.5124L57.4973 50.2896C57.3978 50.1906 57.4724 50.1658 57.2734 50.0915C57.0992 50.0172 57.2485 49.6458 57.2485 49.6458L57.2734 49.3982C57.3231 49.0764 57.9452 49.0516 57.995 49.324C58.0198 49.5963 57.995 49.7944 57.995 49.7944L58.1691 49.8687C58.1691 49.8687 58.1442 50.0668 57.995 50.0668C57.8457 50.0668 57.995 50.1658 57.8954 50.2648L57.995 50.4134Z" fill="#9C9C9C"/>
<path d="M55.957 50.7356C56.0566 50.5375 56.2556 49.7452 56.5044 49.9928C56.7533 50.2404 56.9025 49.9928 56.9025 49.9928C56.9025 49.9928 57.027 50.1166 56.9523 50.3642C56.9025 50.6118 56.8279 50.8594 56.6786 50.9089C56.5293 50.9336 56.4049 51.0327 56.2059 51.0574C56.0566 51.0822 55.957 50.7356 55.957 50.7356Z" fill="#9C9C9C"/>
</g>
<defs>
<clipPath id="clip0_79_3054">
<rect width="116" height="98" fill="white"/>
</clipPath>
</defs>
</svg>
