<svg width="260" height="57" viewBox="0 0 260 57" fill="none" xmlns="http://www.w3.org/2000/svg">
<path d="M26.7796 5.08056L17.2634 53.4645L13.9542 53.463L4.43945 5.08056H3.12891V3.9082H15.3335V5.08056H12.0243L18.7131 39.2649L25.4003 5.08056H21.4702L21.4718 3.9082H28.9863V5.08056H26.7796Z" fill="#9C9C9C"/>
<path d="M28.8574 37.1281L36.3031 37.1297L32.5795 17.8999L28.8574 37.1281ZM22.3063 52.2906H24.5129L34.0276 3.9082H37.3368L46.8531 52.2906H47.9572V53.463H35.959L35.9575 52.2906H39.2682L36.5095 38.3005H28.6494L25.8907 52.2906H29.8207L29.8223 53.463H22.3047V52.2906H22.3063Z" fill="#9C9C9C"/>
<path d="M71.6793 5.08056V53.6005H69.3694L52.9955 7.42371V52.2906H56.2359V53.463H49.8568V52.2906H51.5129V5.08056H48.4102V3.9082H59.5107L70.1967 33.3031V5.08056H66.9548V3.9082H74.2988V5.08056H71.6793Z" fill="#9C9C9C"/>
<path d="M76.9 53.463L76.8984 52.2906H79.1051V5.08056H76.9V3.9082H89.0342V5.08056H86.7603V52.2906H89.0342V53.463H76.9Z" fill="#9C9C9C"/>
<path d="M98.7554 53.463V52.2906H101.031V4.943H100.893C97.6529 4.943 94.4813 8.25061 93.8589 23.2755H92.6875V3.9082H117.097V23.2755H115.924C115.236 8.25218 111.787 4.943 108.891 4.943H108.683L108.685 52.2906H111.027V53.463H98.7554Z" fill="#9C9C9C"/>
<path d="M138.119 5.08056V3.9082H144.944V5.08056H143.083L136.668 30.5129L136.669 52.2922L138.945 52.2906V53.463L126.74 53.4645V52.2922L129.016 52.2906V30.6489L121.844 5.08056H120.258V3.9082H132.739V5.08056H129.292L135.844 28.3057L141.703 5.08056H138.119Z" fill="#9C9C9C"/>
<path d="M167.203 53.463V52.2906H169.202V5.08056H167.203V3.9082H188.855L188.854 18.7268H187.682C187.063 8.25061 183.89 5.08056 178.513 5.08056H176.857V27.2725H177.476C181.682 27.2725 182.922 25.5499 183.338 18.7268H184.44V37.472H183.338C182.923 30.0283 181.682 28.4449 177.82 28.4433L176.857 28.4449V52.289H179.889V53.463H167.203Z" fill="#9C9C9C"/>
<path d="M193.615 37.1281H201.062L197.337 17.8999L193.615 37.1281ZM187.064 52.2906H189.271L198.787 3.9082H202.095L211.612 52.2906H212.818V53.463H200.717V52.2906H204.026L201.267 38.3005H193.409L190.647 52.2906L194.58 52.2922V53.4645L187.062 53.463L187.064 52.2906Z" fill="#9C9C9C"/>
<path d="M214.359 53.463V52.2906H216.36V5.08056H214.359V3.9082H226.082V5.08056H224.015V52.2906H226.081V53.463H214.359Z" fill="#9C9C9C"/>
<path d="M239.495 5.08056L239.494 26.2393H240.529C244.253 26.2393 246.941 26.5159 246.939 17.4169L246.941 15.005C246.941 6.18101 244.253 5.079 240.942 5.079L239.495 5.08056ZM246.528 47.1228L246.527 34.9913C246.528 28.5121 244.666 27.4101 240.804 27.4101H239.495V52.2906H242.528V53.463H229.84V52.2906H231.838V5.08056H229.843V3.9082H240.943C249.08 3.9082 254.319 7.63005 254.321 16.1085C254.319 23.5522 249.839 26.1705 244.323 26.8598V26.9286C250.114 27.8243 254.115 30.2378 254.115 38.9914V50.3617C254.115 51.8779 254.598 52.2906 255.424 52.2906C255.976 52.2906 256.526 52.0843 256.873 51.9451V53.1175C256.459 53.3942 255.147 53.8741 253.356 53.8741C249.079 53.8756 246.528 52.3594 246.528 47.1228Z" fill="#9C9C9C"/>
</svg>
