<svg width="171" height="54" viewBox="0 0 171 54" fill="none" xmlns="http://www.w3.org/2000/svg">
<path fill-rule="evenodd" clip-rule="evenodd" d="M112.118 13.4688C113.535 15.0904 116.635 15.0204 118.479 16.21C115.991 16.8523 112.857 16.8499 110.602 17.7295C111.133 16.3337 111.61 14.8852 112.118 13.4688Z" fill="#9C9C9C"/>
<mask id="mask0_79_2906" style="mask-type:luminance" maskUnits="userSpaceOnUse" x="0" y="0" width="171" height="55">
<path d="M170.312 54.0147H0V0H170.312V54.0147Z" fill="#FEFDFC"/>
</mask>
<g mask="url(#mask0_79_2906)">
<path fill-rule="evenodd" clip-rule="evenodd" d="M94.5459 19.0996C93.8011 22.5152 92.2406 26.4247 91.3662 30.2122C96.1808 30.2806 101.259 29.2946 106.209 28.9954C106.879 28.0951 107.208 26.8535 107.574 25.6465C108.567 27.0588 109.266 29.7011 108.332 31.7341C100.814 31.6295 95.409 37.816 88.0339 37.8235C84.7311 37.8274 81.9238 35.9172 83.4882 32.1908C85.6967 26.9327 91.1734 23.2606 94.5459 19.0996Z" fill="#9C9C9C"/>
</g>
<mask id="mask1_79_2906" style="mask-type:luminance" maskUnits="userSpaceOnUse" x="0" y="0" width="171" height="55">
<path d="M170.312 54.0147H0V0H170.312V54.0147Z" fill="#FEFDFC"/>
</mask>
<g mask="url(#mask1_79_2906)">
<path fill-rule="evenodd" clip-rule="evenodd" d="M117.572 7.37794C115.649 7.61158 114.284 9.72382 113.028 10.4226C113.119 10.4135 113.206 10.3987 113.176 10.2692C113.407 9.22995 113.846 8.40258 113.935 7.22625C103.854 3.65791 94.0434 8.87515 86.8217 12.8572C81.0471 16.0411 75.8945 19.7815 72.2791 23.5129C73.5858 21.2747 74.9732 19.0601 76.5212 16.9685C78.0897 14.844 79.8379 12.9238 81.2185 11.0319C78.1988 10.2375 75.1716 9.3986 72.1264 8.7472C67.7974 7.82174 61.7768 6.28722 58.1909 8.29051C57.1532 8.86932 56.3048 10.2946 55.3132 10.4226C54.4928 10.5297 53.1416 9.92706 52.1309 9.81404C48.4294 9.40104 45.0241 9.74566 41.6794 10.4226C38.5466 11.0532 31.922 12.1728 31.0739 15.14C30.5298 17.0452 31.7415 18.892 31.5291 20.7758C31.3216 22.63 29.5503 25.081 28.6509 26.56C27.5495 28.3723 26.4302 29.9783 24.5598 30.8209C23.4256 25.1495 24.6598 20.1055 25.6216 15.2949C26.2152 12.331 27.4109 9.29711 26.3801 6.31191C23.4924 5.90908 21.0591 8.20639 18.199 9.35532C12.8261 11.5165 6.84107 13.4854 6.08138 19.7081C5.65313 23.212 6.96366 25.4413 7.89939 27.9294C9.90345 33.276 12.3818 37.8022 15.3228 41.9351C14.5214 43.4159 12.6328 43.8015 12.4421 45.8898C13.2973 47.1067 15.0775 47.2659 16.8364 47.2617C21.9197 47.2502 26.0872 44.6804 29.8626 42.5418C38.083 37.8953 43.6065 30.7384 49.4049 23.9706C50.4236 22.78 51.2622 21.3464 52.5878 20.6225C53.8914 26.636 51.3565 29.8503 49.555 34.7782C48.8609 36.6767 46.6697 42.6177 47.7379 45.4315C48.9078 48.528 58.8793 48.6634 61.5233 46.6551C62.8556 45.6434 63.3855 43.3563 64.1009 41.9351C65.0131 40.1072 65.8032 38.5275 66.5235 36.9117C66.5636 43.5807 71.4931 45.5387 76.8231 46.9583C88.1516 49.9685 99.575 44.5914 105.755 40.8716C104.982 45.8124 106.892 46.3079 110.755 47.1134C120.745 49.1851 130.805 46.7935 138.93 44.8264C146.38 43.0232 152.37 41.7503 153.474 34.3214C152.281 33.2852 149.301 33.4137 147.263 33.7146C141.256 34.5976 135.439 37.6512 127.419 37.0627C125.956 36.9554 122.796 36.4417 122.568 35.5423C122.216 34.1367 124.719 33.1532 126.815 32.8019C132.826 31.7787 141.514 32.811 146.353 30.9716C148.677 30.0904 151.48 27.5469 151.198 24.7307C151.014 22.8295 148.544 21.8345 146.2 21.6893C139.571 21.273 134.834 25.161 127.876 23.8197C128.746 22.7141 128.902 20.8954 129.994 20.0133C135.081 19.9061 140.025 20.9226 144.839 20.6225C151.534 20.2012 155.308 17.3683 158.474 13.6197C158.813 13.2158 159.662 12.7812 159.382 12.0986C147.755 10.3211 131.906 5.61276 117.572 7.37794ZM170.286 7.98713C170.469 8.7221 169.654 9.42736 169.228 9.96709C165.664 14.4689 161.71 19.7931 156.96 23.2104C157.303 25.0019 157.121 27.378 156.501 28.6888C157.746 30.2866 159.065 31.7995 159.835 33.8671C158.823 39.2672 156.471 43.4594 152.717 46.1984C149.05 48.8685 144.094 49.9206 138.475 51.2215C127.608 53.7386 109.726 56.2217 101.665 49.6972C92.935 54.8433 75.2924 55.5235 67.128 49.3929C61.3231 56.7742 38.4275 56.1277 41.8329 41.4783C37.5883 44.7075 31.31 49.1629 25.3195 51.6775C18.3737 54.5902 5.21827 54.2638 6.5342 44.3705C6.69215 43.1923 7.18723 42.5261 7.74589 41.4783C5.7147 37.9134 4.43037 35.4417 3.20193 32.3426C2.02426 29.3714 0.228114 25.9912 0.0200666 21.8402C-0.419114 13.0136 6.42551 7.41674 13.2018 4.79001C16.6617 3.44571 19.4717 1.50578 22.8963 0.527673C28.015 -0.937518 32.4045 1.89246 32.7407 6.61773C38.6925 4.84225 45.9397 2.88291 53.7987 4.02858C60.0564 -0.860724 72.2767 2.16083 80.3088 4.48405C82.1243 5.01008 84.5689 6.37039 85.9127 6.31191C87.0522 6.26538 89.1097 4.7124 90.3033 4.18068C95.9392 1.67022 103.306 -1.00251 111.361 0.375849C112.886 0.63513 114.282 1.44649 115.904 1.5937C117.007 1.69288 118.353 1.34581 119.541 1.29019C138.363 0.366894 154.035 5.44371 170.286 7.98713Z" fill="#9C9C9C"/>
</g>
</svg>
