<svg width="277" height="70" viewBox="0 0 277 70" fill="none" xmlns="http://www.w3.org/2000/svg">
<path d="M112.222 48.4666C112.222 47.88 111.842 47.4459 111.064 47.2768V46.8972C111.495 46.8972 112.928 46.9552 113.332 46.9552C113.681 46.9552 115.069 46.8972 115.501 46.8972V47.2768C114.779 47.4183 114.4 47.8465 114.4 48.4666V55.9136C114.4 58.2718 115.688 59.6048 118.383 59.6048C120.705 59.6048 122.512 58.5568 122.512 56.0889V48.4376C122.512 47.8845 122.166 47.4459 121.296 47.2768V46.8972C121.613 46.8972 122.798 46.9552 123.203 46.9552C123.548 46.9552 124.792 46.8972 125.111 46.8972V47.2768C124.271 47.478 123.898 47.8555 123.898 48.4376V55.6786C123.898 58.9284 122.017 60.7949 117.959 60.7949C114.18 60.7949 112.222 59.0685 112.222 56.0154V48.4666Z" fill="#9C9C9C"/>
<path d="M128.431 60.2114C129.31 60.0468 129.657 59.5993 129.657 59.0506V48.7578C129.657 47.8848 129.194 47.4921 128.406 47.2758V46.8962C128.852 46.9297 129.601 46.9493 129.983 46.9493C130.33 46.9493 130.869 46.9435 131.233 46.8962L140.114 57.3932V48.438C140.114 47.8862 139.766 47.4476 138.899 47.2758V46.8962C139.217 46.8962 140.36 46.9555 140.766 46.9555C141.119 46.9555 142.344 46.8962 142.666 46.8962V47.2758C141.819 47.4766 141.41 47.8575 141.41 48.438V60.7949H140.875C140.538 60.7173 139.902 60.3532 138.932 59.2839L130.986 49.9797V59.0506C130.986 59.602 131.302 60.0392 132.17 60.2114V60.5924C131.851 60.5924 130.709 60.5316 130.303 60.5316C129.952 60.5316 128.753 60.5924 128.431 60.5924V60.2114Z" fill="#9C9C9C"/>
<path d="M198.51 57.4362H198.885C199.084 58.2053 199.522 58.9065 200.136 59.3116C200.774 59.764 201.776 59.9804 202.585 59.9804C204.372 59.9804 205.504 59.0908 205.504 57.6829C205.504 56.225 204.053 55.4679 202.315 54.5948C201.022 53.9444 198.482 52.8705 198.482 50.4022C198.482 48.103 200.227 46.6727 203.017 46.6727C204.858 46.6727 205.722 47.1251 206.965 47.0671L206.941 49.8567H206.562C206.065 48.2128 204.58 47.64 202.953 47.64C201.135 47.64 200.454 48.6855 200.454 49.7487C200.454 51.2708 201.936 52.0382 203.615 52.7912C205.504 53.6366 207.553 54.7046 207.553 57.0828C207.553 59.3344 205.801 60.9648 202.599 60.9648C200.693 60.9648 199.551 60.4179 198.549 60.294L198.51 57.4362Z" fill="#9C9C9C"/>
<path d="M236.677 54.9257L233.061 49.0941C232.444 48.0702 231.971 47.5305 231.283 47.2748V46.8966C231.779 46.8966 233.117 46.9563 233.497 46.9563C233.841 46.9563 235.286 46.8966 235.807 46.8966V47.2748C235.345 47.357 235.128 47.5899 235.128 47.9405C235.128 48.2497 235.338 48.6475 235.548 48.9933C235.754 49.3359 238.214 53.4375 238.214 53.4375L240.783 48.995C241.042 48.5499 241.225 48.1082 241.225 47.817C241.225 47.5519 241.039 47.3325 240.601 47.2748V46.8966C241.036 46.8966 241.95 46.9563 242.241 46.9563C242.532 46.9563 243.582 46.8966 244.014 46.8966V47.249C243.026 47.6558 242.409 48.5271 241.81 49.5371L238.523 55.06M238.747 54.3636V59.0224C238.747 59.4841 239.098 60.0645 239.888 60.2105V60.5918C239.448 60.5918 238.008 60.5307 237.591 60.5307C237.241 60.5307 235.86 60.5918 235.362 60.5918V60.2105C236.156 60.0645 236.536 59.4841 236.536 59.0224V54.5679" fill="#9C9C9C"/>
<path d="M169.485 46.897H177.965C178.227 46.897 178.686 46.8667 178.948 46.7525H179.327L179.268 49.522H178.892C178.569 48.6507 178.234 47.953 176.593 47.953H172.912V52.7795H175.749C176.163 52.7795 176.664 52.7443 176.881 52.6925C177.519 52.5524 177.8 52.1956 177.928 51.649H178.307C178.28 52.0662 178.28 53.0186 178.28 53.3005C178.28 53.5838 178.307 54.5862 178.307 55.0404H177.928C177.746 54.4948 177.498 54.0804 176.881 53.9282C176.664 53.8702 176.154 53.8229 175.749 53.8229H172.912V59.4845H176.916C178.665 59.4845 179.173 58.7516 179.607 57.7157L179.982 57.8037L179.607 60.6484C178.307 60.5325 177.527 60.5325 176.05 60.5325H171.819C171.411 60.5325 169.915 60.5922 169.48 60.5922V60.2126C170.244 60.0663 170.69 59.6867 170.69 58.951V48.4802C170.69 47.8311 170.343 47.4257 169.485 47.2811V46.897Z" fill="#9C9C9C"/>
<path d="M147.827 48.5544C147.827 47.8521 147.41 47.4653 146.593 47.2883V46.9122C147.048 46.9122 148.52 46.9698 148.949 46.9698C149.308 46.9698 150.821 46.9122 151.281 46.9122V47.2883C150.469 47.4653 150.043 47.8152 150.043 48.5544V58.9524C150.043 59.6546 150.461 60.0369 151.281 60.2105V60.5918C150.822 60.5918 149.371 60.5321 148.949 60.5321C148.583 60.5321 147.048 60.5918 146.592 60.5918V60.2105C147.427 60.0538 147.827 59.6867 147.827 58.9524V48.5544Z" fill="#9C9C9C"/>
<path d="M212.153 48.5544C212.153 47.8521 211.731 47.4653 210.916 47.2883V46.9122C211.371 46.9122 212.844 46.9698 213.27 46.9698C213.632 46.9698 215.144 46.9122 215.604 46.9122V47.2883C214.792 47.4653 214.367 47.8152 214.367 48.5544V58.9524C214.367 59.6546 214.785 60.0369 215.604 60.2105V60.5918C215.148 60.5918 213.699 60.5321 213.27 60.5321C212.91 60.5321 211.371 60.5918 210.916 60.5918V60.2105C211.749 60.0538 212.153 59.6867 212.153 58.9524V48.5544Z" fill="#9C9C9C"/>
<path d="M223.938 46.9546C219.29 46.9546 218.546 46.8677 217.596 46.8083L217.604 49.63H217.982C218.329 48.3791 219.022 48.0882 219.919 48.0882H222.835V58.9524C222.835 59.6863 222.435 60.0538 221.599 60.2105V60.5918C222.058 60.5918 223.606 60.5321 223.964 60.5321C224.39 60.5321 225.845 60.5918 226.298 60.5918V60.2105C225.477 60.0369 225.06 59.6546 225.06 58.9524V48.0882H227.953C228.884 48.0882 229.549 48.4067 229.896 49.63H230.27L230.277 46.8083C229.332 46.8677 228.588 46.9546 223.938 46.9546Z" fill="#9C9C9C"/>
<path d="M186.846 58.9534C186.846 59.6556 187.29 60.0366 188.11 60.2116V60.5929C187.655 60.5929 186.168 60.5332 185.744 60.5332C185.38 60.5332 183.928 60.5929 183.471 60.5929V60.2116C184.231 60.0656 184.68 59.6877 184.68 58.9534V48.4491C184.68 47.8032 184.33 47.3963 183.474 47.25V46.8722C183.928 46.8722 185.366 46.9298 185.773 46.9298C186.438 46.9298 188.329 46.8173 189.074 46.8173C192.332 46.8173 194.146 48.1717 194.146 50.4933C194.146 52.3184 192.796 53.5527 190.716 54.0569C190.716 54.0569 191.191 54.334 191.664 54.8871C192.238 55.5679 193.79 57.8064 194.434 58.589C195.077 59.3741 195.9 60.2499 196.782 60.2895V60.5956C196.359 60.6884 195.681 60.7695 195.163 60.7695C194.057 60.7695 193.173 60.3765 192.316 59.333C191.573 58.4248 190.314 56.5403 189.572 55.588C189.098 54.9817 188.523 54.5079 187.472 54.334C187.268 54.2991 187.076 54.2701 186.846 54.2429V58.9534ZM186.846 53.3712C187.279 53.4306 187.917 53.4582 188.548 53.4582C191.099 53.4582 191.902 51.9834 191.902 50.678C191.902 48.8315 190.675 47.6872 188.443 47.6872C187.981 47.6872 187.311 47.7452 186.846 47.8332V53.3712Z" fill="#9C9C9C"/>
<path d="M154.548 48.5991C154.251 47.9379 153.795 47.4534 153.018 47.2816V46.8958C153.501 46.8958 155.176 46.9569 155.544 46.9569C155.882 46.9569 157.346 46.8958 157.843 46.8958V47.2705C157.402 47.3558 156.899 47.6011 156.899 48.0552C156.899 48.3796 157.094 48.8216 157.469 49.6536L160.979 57.682L164.301 49.6398C164.563 48.9907 164.753 48.4879 164.753 48.1039C164.753 47.6791 164.363 47.3848 163.811 47.2705V46.8958C164.253 46.8958 165.335 46.9569 165.671 46.9569C165.979 46.9569 167.249 46.8958 167.734 46.8958V47.2816C166.905 47.5069 166.4 47.9655 165.935 49.0518L161.045 60.6406H159.939L154.548 48.5991Z" fill="#9C9C9C"/>
<path d="M167.084 12.0494C166.519 10.7954 165.652 9.88133 164.184 9.55386V8.82404C165.097 8.82404 168.132 8.93377 168.829 8.93377C169.471 8.93377 172.41 8.82404 173.347 8.82404V9.53557C172.516 9.69879 171.561 10.165 171.561 11.0256C171.561 11.6333 171.937 12.4732 172.634 14.0467L179.292 29.2619L185.592 14.0208C186.084 12.7868 186.45 11.8438 186.45 11.1139C186.45 10.3034 185.705 9.75366 184.66 9.53557V8.82404C185.494 8.82404 187.52 8.93377 188.164 8.93377C188.749 8.93377 191.156 8.82404 192.072 8.82404V9.5128C190.501 9.94103 189.541 10.8475 188.666 12.9055L179.404 34.873H177.308L167.084 12.0494Z" fill="#9C9C9C"/>
<path d="M77.4336 34.0378C78.643 33.7604 79.4932 33.2076 79.4932 31.8304V11.6911C79.4932 10.3688 78.702 9.82012 77.4336 9.48816V8.77352C78.0687 8.77352 80.8042 8.88187 81.4695 8.88187C82.2364 8.88187 85.1037 8.77352 85.7343 8.77352V9.48816C84.5263 9.76387 83.6307 10.3153 83.6307 11.6911V20.1039H98.556V11.6911C98.556 10.3153 97.7603 9.76387 96.4994 9.48816V8.77352C97.1297 8.77352 99.9459 8.88187 100.711 8.88187C101.372 8.88187 104.171 8.77352 104.795 8.77352V9.48816C103.586 9.76387 102.69 10.3153 102.69 11.6911V31.8304C102.69 33.1527 103.531 33.7073 104.795 34.0378V34.6973C104.171 34.6973 101.372 34.6427 100.711 34.6427C99.9459 34.6427 97.1297 34.6973 96.4994 34.6973V34.0378C97.6999 33.7604 98.556 33.2076 98.556 31.8304V22.3127H83.6307V31.8304C83.6307 33.2076 84.4704 33.7073 85.7343 34.0378V34.6973C85.1037 34.6973 82.2364 34.6427 81.4695 34.6427C80.8042 34.6427 78.0687 34.6973 77.4336 34.6973V34.0378Z" fill="#9C9C9C"/>
<path d="M250.072 34.0381C251.621 33.7607 252.475 33.1423 252.475 31.721V11.6914C252.475 10.3111 251.633 9.76414 250.136 9.48843V8.77379C250.998 8.77379 253.805 8.88214 254.583 8.88214C255.838 8.88214 259.338 8.60643 262.064 8.60643C271.245 8.60643 276.819 13.7604 276.819 21.5973C276.819 29.2147 271.019 34.8594 261.552 34.8594C258.823 34.8594 255.586 34.643 254.319 34.643C253.549 34.643 250.931 34.7524 250.072 34.7524V34.0381ZM256.609 32.711C257.544 32.8818 259.272 32.9884 260.634 32.9884C268.347 32.9884 272.362 28.322 272.362 21.8136C272.362 15.0661 268.126 10.3187 260.915 10.3187C259.441 10.3187 257.6 10.4298 256.609 10.5916V32.711Z" fill="#9C9C9C"/>
<path d="M146.148 31.6469C146.148 32.9816 146.989 33.7066 148.536 34.0372V34.7518C147.674 34.7518 144.866 34.6421 144.058 34.6421C143.376 34.6421 140.62 34.7518 139.76 34.7518V34.0372C141.196 33.7601 142.044 33.0409 142.044 31.6469V11.7608C142.044 10.5372 141.386 9.76354 139.763 9.48749V8.77285C140.625 8.77285 143.347 8.8812 144.111 8.8812C145.373 8.8812 148.953 8.66967 150.366 8.66967C156.54 8.66967 159.977 11.2367 159.977 15.6273C159.977 19.0887 157.413 21.4179 153.477 22.3793C153.477 22.3793 154.37 22.9021 155.268 23.9546C156.358 25.242 159.365 29.5689 160.581 31.0509C161.796 32.5351 163.355 34.1924 165.023 34.2687V34.8526C164.224 35.0258 162.945 35.1738 161.967 35.1738C159.862 35.1738 158.191 34.4333 156.564 32.4526C155.163 30.7342 152.71 27.0809 151.305 25.2772C150.408 24.1281 149.326 23.2327 147.339 22.9021C146.948 22.8348 146.58 22.783 146.148 22.7344V31.6469ZM146.148 21.0846C146.965 21.1926 148.172 21.2475 149.37 21.2475C154.199 21.2475 155.716 18.4534 155.716 15.9852C155.716 12.4799 153.394 10.3177 149.164 10.3177C148.292 10.3177 147.022 10.4292 146.148 10.5907V21.0846Z" fill="#9C9C9C"/>
<path d="M227.528 31.6469C227.528 32.9816 228.372 33.7066 229.921 34.0372V34.7518C229.06 34.7518 226.255 34.6421 225.447 34.6421C224.753 34.6421 222.007 34.7518 221.143 34.7518V34.0372C222.576 33.7601 223.425 33.0409 223.425 31.6469V11.7608C223.425 10.5372 222.761 9.76354 221.147 9.48749V8.77285C222.013 8.77285 224.726 8.8812 225.496 8.8812C226.761 8.8812 230.339 8.66967 231.743 8.66967C237.928 8.66967 241.354 11.2367 241.354 15.6273C241.354 19.0887 238.796 21.4179 234.857 22.3793C234.857 22.3793 235.754 22.9021 236.646 23.9546C237.746 25.242 240.753 29.5689 241.964 31.0509C243.184 32.5351 244.743 34.1924 246.401 34.2687V34.8526C245.613 35.0258 244.327 35.1738 243.359 35.1738C241.25 35.1738 239.571 34.4333 237.949 32.4526C236.547 30.7342 234.102 27.0809 232.685 25.2772C231.788 24.1281 230.709 23.2327 228.727 22.9021C228.33 22.8348 227.966 22.783 227.528 22.7344V31.6469ZM227.528 21.0846C228.355 21.1926 229.556 21.2475 230.754 21.2475C235.585 21.2475 237.097 18.4534 237.097 15.9852C237.097 12.4799 234.774 10.3177 230.552 10.3177C229.672 10.3177 228.408 10.4292 227.528 10.5907V21.0846Z" fill="#9C9C9C"/>
<path d="M108.722 34.0332C110.356 33.6495 111.253 32.586 111.849 31.1629L120.115 11.1703C120.466 10.3431 120.875 8.64262 120.875 8.64262H123.188C123.188 8.64262 123.602 10.3476 123.946 11.1765L132.682 31.2178C133.305 32.5981 133.979 33.5946 135.716 34.0332L135.711 34.6992C134.766 34.6992 131.826 34.6444 131.157 34.6444C130.492 34.6444 127.683 34.6992 126.739 34.6992L126.742 34.0332C128.014 33.7196 128.415 33.0691 128.415 32.4397C128.415 31.9052 128.196 31.3017 127.929 30.6757L126.051 26.3699H116.426L114.706 30.6999C114.513 31.1905 114.284 31.8838 114.284 32.3514C114.284 33.0736 114.66 33.6495 116.103 34.0332L116.1 34.6992C115.245 34.6992 112.988 34.6444 112.46 34.6444L108.721 34.6992L108.722 34.0332ZM125.18 24.3285L121.069 14.7017L117.241 24.3285H125.18Z" fill="#9C9C9C"/>
<path d="M190.612 34.0332C192.245 33.6495 193.145 32.586 193.738 31.1629L202.006 11.1703C202.358 10.3431 202.772 8.64262 202.772 8.64262H205.085C205.085 8.64262 205.494 10.3476 205.837 11.1765L214.575 31.2178C215.193 32.5981 215.874 33.5946 217.604 34.0332L217.6 34.6992C216.658 34.6992 213.715 34.6444 213.041 34.6444C212.382 34.6444 209.575 34.6992 208.63 34.6992V34.0332C209.909 33.7196 210.304 33.0691 210.304 32.4397C210.304 31.9052 210.087 31.3017 209.826 30.6757L207.94 26.3699H198.315L196.593 30.6999C196.4 31.1905 196.173 31.8838 196.173 32.3514C196.173 33.0736 196.549 33.6495 197.992 34.0332V34.6992C197.134 34.6992 194.881 34.6444 194.349 34.6444L190.609 34.6992L190.612 34.0332ZM207.07 24.3285L202.957 14.7017L199.132 24.3285H207.07Z" fill="#9C9C9C"/>
<path d="M58.0847 1.35633H1.78385V22.5555C2.80966 40.2645 9.98584 51.8932 16.8887 59.0968C20.3449 62.7035 23.7363 65.2044 26.2599 66.8018C27.5214 67.6003 28.5651 68.1724 29.2903 68.5435C29.633 68.7189 29.9044 68.8494 30.094 68.9376C54.4688 53.2858 58.0847 32.3986 58.0847 22.5747V1.35633Z" stroke="#9C9C9C" stroke-width="1.33333"/>
<path d="M1 0.631014H58.6902V22.5312C58.6902 32.5621 54.9725 53.8388 30.061 69.6758C30.061 69.6758 3.0672 58.3471 1 22.5312L1 0.631014Z" stroke="#0D1114" stroke-width="0.306667"/>
<path d="M44.7417 28.8128C44.7417 28.8128 44.2278 30.4595 41.9426 28.7669L34.0964 28.5764C34.0964 28.5764 33.0689 28.9087 32.9292 27.8283C32.9292 27.8283 33.1173 25.6699 33.0219 25.4808C33.0219 25.4808 33.0689 24.8714 32.0381 24.8714C32.0381 24.8714 30.4528 25.0588 30.4058 23.6481C30.4058 23.6481 30.1288 22.146 32.3216 22.1961C32.3216 22.1961 33.0219 22.5236 33.0689 21.6295C33.0689 21.6295 32.9766 15.5248 33.0219 15.0586C33.0219 15.0586 33.2097 14.4979 32.1335 14.402C32.1335 14.402 30.5939 14.7295 30.4058 13.6998C30.4058 13.6998 30.3135 12.1504 31.3426 12.0545C31.3426 12.0545 32.6021 12.1504 32.8352 11.8198C32.8352 11.8198 33.1173 12.0055 33.0689 10.8843L33.1173 8.95539C33.1173 8.95539 33.2522 8.44055 34.048 8.49093C34.048 8.49093 35.4966 8.58375 35.6861 8.44055C35.6861 8.44055 36.0091 8.02025 36.1045 7.82943C36.1045 7.82943 36.8532 7.78388 36.9912 7.97263C36.9912 7.97263 38.1127 8.72385 42.3621 8.44055C42.3621 8.44055 43.017 8.44055 43.1533 8.62964C43.1533 8.62964 43.9504 9.23869 44.4159 8.58375C44.4159 8.58375 45.1162 8.44055 47.2167 8.49093C47.2167 8.49093 49.508 9.09859 51.0919 7.78388L51.6072 7.87843C51.6072 7.87843 52.2604 8.95539 52.7273 8.62964C52.7273 8.62964 54.1292 8.49093 54.3609 8.77112C54.3609 8.77112 54.8264 9.47058 54.5943 11.3077C54.5943 11.3077 54.3173 12.1031 55.6705 12.1031C55.6705 12.1031 57.2135 11.8198 57.0237 13.2746C57.0237 13.2746 57.4435 14.9186 54.8779 14.6853C54.8779 14.6853 54.549 15.1546 54.5943 15.4838C54.5943 15.4838 54.549 20.8327 54.502 21.4466C54.502 21.4466 54.4563 22.2924 55.5751 22.2434C55.5751 22.2434 57.0711 22.146 57.1209 23.5094C57.1209 23.5094 57.3059 25.2934 55.1553 24.9629C55.1553 24.9629 54.502 25.0588 54.4049 25.4808L54.3173 27.8283C54.3173 27.8283 54.3609 29.0016 53.0561 28.7183C52.8697 28.7183 45.7722 28.8632 45.1632 28.6758C45.1632 28.6758 44.8326 28.6285 44.7417 28.8128Z" fill="#9C9C9C"/>
<path d="M29.6571 36.658C29.6571 36.658 29.9845 36.5193 30.0769 36.2877C30.0769 36.2877 31.059 36.1914 31.1966 36.0517L34.281 36.2877C34.281 36.2877 37.3152 36.5193 38.6231 35.5762C38.6231 35.5762 39.093 35.5762 39.4201 35.7194C39.4201 35.7194 40.0703 35.8626 40.2567 36.14L42.0332 36.0927C42.0332 36.0927 43.0606 36.4247 42.9652 37.0828V37.9254C42.9652 37.9254 42.7774 39.6166 43.2442 39.7125H44.6019C44.6019 39.7125 45.7237 40.2277 45.5826 40.884C45.5826 40.884 45.6297 41.8195 44.6506 42.01C44.6506 42.01 43.6654 42.2902 43.3424 42.246C43.3424 42.246 43.0136 42.6667 42.9652 43.1829L42.8289 49.3334C42.8289 49.3334 42.7334 49.9901 43.7156 49.8969C43.7156 49.8969 45.1597 49.7555 45.5826 50.5567C45.5826 50.5567 45.9568 51.9156 45.2098 52.1502L44.6506 52.4291L43.4334 52.6244C43.4334 52.6244 42.9229 52.6668 42.8742 53.5581V55.1986C42.8742 55.1986 42.9229 56.3294 42.0332 56.3294L40.7253 56.4236C40.7253 56.4236 40.3992 56.701 39.7463 56.5137C39.7463 56.5137 31.806 56.6582 31.5255 56.5627L30.5908 56.7528C30.5908 56.7528 29.5644 57.6914 28.7233 56.9843L28.0701 56.4678C28.0701 56.4678 27.6019 56.5627 27.4186 56.5137C27.2308 56.4678 18.6372 56.6096 18.6372 56.6096C18.6372 56.6096 16.8155 56.8001 16.6775 56.1862C16.6775 56.1862 16.4444 53.7942 16.5367 53.5078C16.5367 53.5078 16.5367 52.8069 16.1169 52.7614C16.1169 52.7614 14.2951 52.6668 14.2481 52.4763C14.2481 52.4763 13.266 51.7758 13.5465 51.0729C13.5465 51.0729 13.8753 50.1302 14.8543 50.037C14.8543 50.037 16.3486 50.2748 16.3486 49.8514C16.3486 49.8514 16.4444 49.5695 16.4444 49.1019C16.4444 49.1019 16.5367 43.5121 16.4897 43.1374C16.4897 43.1374 16.6291 42.4334 16.0215 42.4334C16.0215 42.4334 15.3682 42.6194 14.9498 42.3392C14.9498 42.3392 13.8283 42.3865 13.5949 41.4934C13.5949 41.4934 13.4071 40.9313 13.6858 40.4575C13.6858 40.4575 14.2014 39.4261 15.6957 39.7564C15.6957 39.7564 16.5367 39.9927 16.6291 39.3847L16.5851 37.1269C16.5851 37.1269 16.3956 36.5193 17.5642 36.1914C17.5642 36.1914 19.0584 36.6121 19.5239 35.8626C19.5239 35.8626 20.0392 34.8263 20.4545 35.5306C20.4545 35.5306 21.3457 36.3778 23.7737 36.2877C23.7737 36.2877 27.9778 35.9558 28.0701 36.14C28.0701 36.14 29.0979 36.2877 29.3766 36.6121L29.6571 36.658Z" fill="#9C9C9C"/>
<path d="M16.9609 28.8112C16.9609 28.8112 16.4457 30.4579 14.1574 28.764L6.31251 28.5749C6.31251 28.5749 5.28509 28.9072 5.144 27.8257C5.144 27.8257 5.33212 25.6683 5.23497 25.4793C5.23497 25.4793 5.28509 24.8668 4.25595 24.8668C4.25595 24.8668 2.67071 25.0586 2.62505 23.6497C2.62505 23.6497 2.34322 22.1428 4.53778 22.1945C4.53778 22.1945 5.23497 22.522 5.28509 21.6296C5.28509 21.6296 5.19103 15.5278 5.23497 15.0557C5.23497 15.0557 5.42583 14.4981 4.35138 14.4018C4.35138 14.4018 2.80836 14.7279 2.62505 13.6951C2.62505 13.6951 2.52962 12.1488 3.55567 12.0529C3.55567 12.0529 4.81686 12.1488 5.05166 11.8241C5.05166 11.8241 5.33212 12.0056 5.28509 10.8779L5.33212 8.95556C5.33212 8.95556 5.47286 8.43899 6.2624 8.48627C6.2624 8.48627 7.71445 8.57909 7.90222 8.43899C7.90222 8.43899 8.22833 8.0187 8.31758 7.82787C8.31758 7.82787 9.06936 7.7837 9.20873 7.96659C9.20873 7.96659 10.3271 8.72229 14.5813 8.43899C14.5813 8.43899 15.2315 8.43899 15.3726 8.62809C15.3726 8.62809 16.1652 9.23714 16.6321 8.57909C16.6321 8.57909 17.3323 8.43899 19.4356 8.48627C19.4356 8.48627 21.7197 9.09566 23.3098 7.7837L23.822 7.87998C23.822 7.87998 24.4752 8.95556 24.9465 8.62809C24.9465 8.62809 26.3454 8.48627 26.5802 8.76957C26.5802 8.76957 27.0484 9.47351 26.8105 11.3062C26.8105 11.3062 26.5331 12.1029 27.8867 12.1029C27.8867 12.1029 29.4263 11.8241 29.2416 13.2731C29.2416 13.2731 29.6628 14.917 27.0941 14.6837C27.0941 14.6837 26.7652 15.1544 26.8105 15.4822C26.8105 15.4822 26.7652 20.8312 26.7195 21.445C26.7195 21.445 26.6742 22.2846 27.7943 22.2418C27.7943 22.2418 29.2886 22.1428 29.3339 23.5096C29.3339 23.5096 29.5203 25.2919 27.3742 24.9613C27.3742 24.9613 26.7195 25.0586 26.6241 25.4793L26.5331 27.8257C26.5331 27.8257 26.5802 29 25.2692 28.7198C25.0828 28.7198 17.9887 28.8585 17.379 28.6743C17.379 28.6743 17.0533 28.627 16.9609 28.8112Z" fill="#9C9C9C"/>
<path d="M44.7417 28.8128C44.7417 28.8128 44.2278 30.4595 41.9426 28.7669L34.0964 28.5764C34.0964 28.5764 33.0689 28.9087 32.9292 27.8283C32.9292 27.8283 33.1173 25.6699 33.0219 25.4808C33.0219 25.4808 33.0689 24.8714 32.0381 24.8714C32.0381 24.8714 30.4528 25.0588 30.4058 23.6481C30.4058 23.6481 30.1288 22.146 32.3216 22.1961C32.3216 22.1961 33.0219 22.5236 33.0689 21.6295C33.0689 21.6295 32.9766 15.5248 33.0219 15.0586C33.0219 15.0586 33.2097 14.4979 32.1335 14.402C32.1335 14.402 30.5939 14.7295 30.4058 13.6998C30.4058 13.6998 30.3135 12.1504 31.3426 12.0545C31.3426 12.0545 32.6021 12.1504 32.8352 11.8198C32.8352 11.8198 33.1173 12.0055 33.0689 10.8843L33.1173 8.95539C33.1173 8.95539 33.2522 8.44055 34.048 8.49093C34.048 8.49093 35.4966 8.58375 35.6861 8.44055C35.6861 8.44055 36.0091 8.02025 36.1045 7.82943C36.1045 7.82943 36.8532 7.78388 36.9912 7.97263C36.9912 7.97263 38.1127 8.72385 42.3621 8.44055C42.3621 8.44055 43.017 8.44055 43.1533 8.62964C43.1533 8.62964 43.9504 9.23869 44.4159 8.58375C44.4159 8.58375 45.1162 8.44055 47.2167 8.49093C47.2167 8.49093 49.508 9.09859 51.0919 7.78388L51.6072 7.87843C51.6072 7.87843 52.2604 8.95539 52.7273 8.62964C52.7273 8.62964 54.1292 8.49093 54.3609 8.77112C54.3609 8.77112 54.8264 9.47058 54.5943 11.3077C54.5943 11.3077 54.3173 12.1031 55.6705 12.1031C55.6705 12.1031 57.2135 11.8198 57.0237 13.2746C57.0237 13.2746 57.4435 14.9186 54.8779 14.6853C54.8779 14.6853 54.549 15.1546 54.5943 15.4838C54.5943 15.4838 54.549 20.8327 54.502 21.4466C54.502 21.4466 54.4563 22.2924 55.5751 22.2434C55.5751 22.2434 57.0711 22.146 57.1209 23.5094C57.1209 23.5094 57.3059 25.2934 55.1553 24.9629C55.1553 24.9629 54.502 25.0588 54.4049 25.4808L54.3173 27.8283C54.3173 27.8283 54.3609 29.0016 53.0561 28.7183C52.8697 28.7183 45.7722 28.8632 45.1632 28.6758C45.1632 28.6758 44.8326 28.6285 44.7417 28.8128Z" fill="#0D1114"/>
<path d="M44.7411 28.8126C44.7411 28.8126 44.2272 30.4596 41.9421 28.767L34.0941 28.5765C34.0941 28.5765 33.0667 28.9085 32.9273 27.827C32.9273 27.827 33.1168 25.6683 33.0196 25.4792C33.0196 25.4792 33.0667 24.8698 32.0375 24.8698C32.0375 24.8698 30.4509 25.0589 30.4039 23.6479C30.4039 23.6479 30.1265 22.1458 32.3194 22.1944C32.3194 22.1944 33.0196 22.5223 33.0667 21.6296C33.0667 21.6296 32.9743 15.5246 33.0196 15.057C33.0196 15.057 33.2091 14.4949 32.133 14.4003C32.133 14.4003 30.5917 14.7282 30.4039 13.6981C30.4039 13.6981 30.3129 12.147 31.3403 12.0528C31.3403 12.0528 32.5998 12.147 32.8336 11.8182C32.8336 11.8182 33.1168 12.0038 33.0667 10.881L33.1168 8.95238C33.1168 8.95238 33.25 8.43753 34.0488 8.48791C34.0488 8.48791 35.496 8.58074 35.6841 8.43753C35.6841 8.43753 36.0072 8.01862 36.104 7.82779C36.104 7.82779 36.8513 7.78086 36.9906 7.96996C36.9906 7.96996 38.1108 8.72084 42.3615 8.43753C42.3615 8.43753 43.0165 8.43753 43.1528 8.62629C43.1528 8.62629 43.9499 9.23568 44.4154 8.58074C44.4154 8.58074 45.1156 8.43753 47.2161 8.48791C47.2161 8.48791 49.5075 9.09558 51.0927 7.78086L51.6083 7.87369C51.6083 7.87369 52.2612 8.95238 52.7267 8.62629C52.7267 8.62629 54.1287 8.48791 54.3604 8.76639C54.3604 8.76639 54.8272 9.46895 54.5955 11.303C54.5955 11.303 54.3168 12.1015 55.6713 12.1015C55.6713 12.1015 57.213 11.8182 57.0232 13.2716C57.0232 13.2716 57.443 14.9169 54.8773 14.6823C54.8773 14.6823 54.5499 15.1516 54.5955 15.4821C54.5955 15.4821 54.5499 20.8311 54.5028 21.4436C54.5028 21.4436 54.4558 22.289 55.5759 22.2434C55.5759 22.2434 57.0733 22.1458 57.1217 23.5078C57.1217 23.5078 57.3053 25.2918 55.1561 24.9612C55.1561 24.9612 54.5028 25.0589 54.406 25.4792L54.3168 27.827C54.3168 27.827 54.3604 29.0017 53.0573 28.7183C52.8709 28.7183 45.7716 28.8616 45.1627 28.6742C45.1627 28.6742 44.8321 28.6283 44.7411 28.8126Z" stroke="#0D1114" stroke-width="0.0133333"/>
<path d="M35.9155 9.47109C35.9155 9.47109 36.0078 10.4111 36.0078 10.6488C36.0078 10.8817 35.8701 24.2125 35.8701 24.2125C35.8701 24.2125 36.0078 25.2453 35.1242 25.7632C35.1242 25.7632 34.8877 25.8547 34.8438 25.198L34.9351 11.1195C34.9351 11.1195 35.0288 9.37792 35.9155 9.47109Z" fill="#9C9C9C"/>
<path d="M35.918 9.4695C35.918 9.4695 36.0089 10.4095 36.0089 10.6472C36.0089 10.8815 35.8727 24.214 35.8727 24.214C35.8727 24.214 36.0089 25.2468 35.1253 25.763C35.1253 25.763 34.8888 25.8562 34.8418 25.1995L34.9359 11.1179C34.9359 11.1179 35.0282 9.37633 35.918 9.4695Z" stroke="#0D1114" stroke-width="0.016"/>
<path d="M34.3765 25.9026C34.3765 25.9026 34.4692 12.665 34.4253 12.4304C34.3765 12.1988 34.4692 12.6222 34.4692 12.6222C34.4692 12.6222 34.3295 10.3185 34.9374 9.37717C34.9374 9.37717 34.7479 8.58351 33.6749 9.56765L33.6278 11.49C33.6278 11.49 33.6278 12.5718 32.6488 12.5246C32.6488 12.5246 31.5273 12.4759 31.0134 12.9925C31.0134 12.9925 30.7333 14.0266 31.8061 13.841C31.8061 13.841 33.4885 13.841 33.5825 14.5401L33.4885 21.6306C33.4885 21.6306 33.8626 22.8097 32.5565 22.8097C32.5565 22.8097 30.9637 22.7093 31.0134 23.6952C31.0134 23.6952 31.3423 24.5389 32.6958 24.26C32.6958 24.26 33.6749 24.4443 33.6278 25.3874V27.17C33.6278 27.17 33.5338 27.8785 34.4692 27.9226H41.7542C41.7542 27.9226 42.1256 27.9682 42.1256 27.4989C42.1256 27.4989 42.0803 27.1245 41.5208 27.1245L35.451 27.0299C35.451 27.0299 34.4692 27.3605 34.3765 25.9026Z" fill="#9C9C9C"/>
<path d="M35.7768 25.8812C35.7768 25.8812 35.589 26.5379 36.289 26.4005H41.0996L42.4044 26.6855C42.4044 26.6855 43.7579 26.3536 42.4044 25.6038C42.4044 25.6038 38.1094 25.6465 37.7366 25.5551C37.7366 25.5551 36.8485 25.3218 36.6573 25.2749C36.6573 25.2749 36.1953 25.0875 35.7768 25.8812Z" fill="#9C9C9C"/>
<path d="M35.7768 25.8798C35.7768 25.8798 35.589 26.5379 36.289 26.4009H41.101L42.4061 26.6855C42.4061 26.6855 43.7607 26.3522 42.4061 25.601C42.4061 25.601 38.1107 25.6434 37.7362 25.5537C37.7362 25.5537 36.8485 25.3191 36.659 25.2718C36.659 25.2718 36.1953 25.0844 35.7768 25.8798Z" stroke="#0D1114" stroke-width="0.016"/>
<path d="M43.7607 26.5393C43.7607 26.5393 42.874 26.5393 42.9197 27.7153C42.9197 27.7153 43.0134 28.6035 43.9471 28.6035C43.9471 28.6035 44.785 28.4651 44.6958 27.5266C44.6958 27.5266 44.1805 26.3533 43.7607 26.5393Z" fill="#9C9C9C"/>
<path d="M44.4143 26.0705C44.4143 26.0705 44.8342 25.6029 45.116 25.6029C45.116 25.6029 49.7856 26.0232 50.5737 25.4611C50.5737 25.4611 51.2785 25.321 51.4662 25.4611C51.4662 25.4611 52.1651 26.0232 52.1651 26.3524C52.1651 26.3524 52.1195 26.7772 51.2785 26.5367C51.2785 26.5367 46.0013 26.5884 45.7208 26.5884C45.7208 26.5884 44.2705 26.9145 44.4143 26.0705Z" fill="#9C9C9C"/>
<path d="M44.4143 26.0712C44.4143 26.0712 44.8342 25.6019 45.116 25.6019C45.116 25.6019 49.7869 26.0225 50.5768 25.4601C50.5768 25.4601 51.2812 25.32 51.4693 25.4601C51.4693 25.4601 52.1679 26.0225 52.1679 26.3545C52.1679 26.3545 52.1226 26.7796 51.2812 26.5387C51.2812 26.5387 46.0013 26.5905 45.7208 26.5905C45.7208 26.5905 44.2705 26.9166 44.4143 26.0712Z" stroke="#0D1114" stroke-width="0.016"/>
<path d="M45.0215 27.5928C45.0215 27.5928 45.0215 27.2133 45.6761 27.2133L52.2114 27.1677C52.2114 27.1677 52.8207 27.4969 52.8207 26.3723C52.8207 26.3723 53.06 21.2553 53.0812 15.6213C53.0888 13.9439 53.1647 12.1844 53.1056 10.554C53.1056 10.554 52.9601 9.84863 52.7723 9.70542C52.7723 9.70542 52.7723 8.95593 53.5677 9.23785C53.5677 9.23785 54.2679 9.28513 54.0815 10.3683L54.1299 12.0043C54.1299 12.0043 53.9892 12.7127 55.247 12.5226C55.247 12.5226 56.5064 12.7127 56.5566 13.1789C56.5566 13.1789 56.9294 14.122 55.4378 14.026H54.3589C54.3589 14.026 53.8938 14.3066 54.0331 14.8718L53.8938 21.6801C53.8938 21.6801 53.7997 22.8516 54.9212 22.8074C54.9212 22.8074 56.0866 22.7587 56.3214 23.1352C56.3214 23.1352 57.1202 24.3081 55.3894 24.2139C55.3894 24.2139 54.315 24.1649 54.0815 24.3554C54.0815 24.3554 53.8938 24.5883 53.7541 26.7974C53.7541 26.7974 53.8495 28.1122 52.8674 27.9676C52.8674 27.9676 46.375 28.0604 45.7688 27.922C45.7688 27.922 45.1155 28.1122 45.0215 27.5928Z" fill="#9C9C9C"/>
<path d="M36.6179 9.04377L36.4768 24.1171C36.4768 24.1171 36.4315 24.8166 37.5986 24.9581C37.5986 24.9581 38.9518 25.0982 39.2762 24.9581C39.2762 24.9581 40.1691 24.9094 42.4529 25.0053C42.4529 25.0053 43.0165 25.5737 43.0636 24.8639C43.0636 24.8639 43.4333 12.6636 43.2517 10.1225C43.2517 10.1225 43.2002 9.04377 42.4089 8.99649C42.4089 8.99649 38.8595 9.28463 38.5323 8.99649L37.1304 8.62485C37.1304 8.62485 36.5695 8.6704 36.6179 9.04377Z" fill="#9C9C9C"/>
<path d="M43.9937 9.79834C43.9937 9.79834 43.8543 16.8871 43.901 17.1218L43.8086 23.0818L43.6191 25.1491C43.6191 25.1491 43.901 25.5708 44.1347 25.2906C44.1347 25.2906 45.629 24.9097 46.5624 25.0577C46.5624 25.0577 49.5544 25.3365 50.1589 24.8641C50.1589 24.8641 50.6271 25.0988 50.7637 24.3475C50.7637 24.3475 50.9484 11.2076 50.8622 10.973C50.8622 10.973 51.0425 9.08991 50.9484 8.90702C50.9484 8.90702 50.9076 8.485 50.1118 8.85837C50.1118 8.85837 50.2028 9.23622 45.7698 9.08991C45.7698 9.08991 44.0891 9.04402 43.9937 9.79834Z" fill="#9C9C9C"/>
<path d="M51.4223 9.61264L51.377 24.4438C51.377 24.4438 51.7498 25.763 52.356 25.6246C52.356 25.6246 52.4469 25.3396 52.4923 24.8703L52.6817 10.7386C52.6817 10.7386 52.2118 8.48979 51.4223 9.61264Z" fill="#9C9C9C"/>
<path d="M51.4203 9.61145L51.375 24.4457C51.375 24.4457 51.7492 25.7652 52.3554 25.6265C52.3554 25.6265 52.4481 25.3415 52.4934 24.8722L52.6812 10.7374C52.6812 10.7374 52.2116 8.48859 51.4203 9.61145Z" stroke="#0D1114" stroke-width="0.016"/>
<path d="M45.687 14.053C45.5476 13.6783 46.481 13.631 46.481 13.631L46.9496 13.7238C47.2771 13.6783 47.6042 13.8197 47.6042 13.8197C47.9303 14.3349 47.3694 14.6151 47.3694 14.6151L47.183 15.2276C47.1346 15.7456 47.183 20.2049 47.183 20.2049C47.2771 20.4365 47.6499 20.8571 47.6499 20.8571C47.6499 21.2819 47.1346 21.1891 47.1346 21.1891L45.7824 21.2363C45.3612 21.1891 45.5006 20.718 45.5006 20.718C45.9675 20.4837 46.1086 19.6366 46.1086 19.6366V14.9916L45.687 14.053Z" fill="#0D1114"/>
<path d="M39.3841 18.4192L39.2917 19.874L39.7084 20.5766C39.992 20.9513 39.5234 21.2363 39.5234 21.2363L38.0291 21.0959C37.7518 20.9513 38.0291 20.4834 38.0291 20.4834C38.4037 20.2522 38.4503 19.638 38.4503 19.638L38.4037 16.9157L38.4503 14.9443C38.4503 14.7079 38.0775 14.289 38.0775 14.289C37.7518 14.2418 37.8441 13.8197 37.8441 13.8197C37.9368 13.5837 38.7277 13.7238 38.7277 13.7238H40.6919C42.5607 14.3349 42.2803 15.6966 42.2803 15.6966C42.4214 17.0558 40.9738 17.6224 40.9738 17.6224L40.877 18.3736L42.2332 20.5293C42.4667 20.718 42.4214 20.9085 42.4214 20.9085C42.2332 21.4251 41.4846 20.9085 41.4846 20.9085L39.8056 18.2777C39.6645 18.0886 39.3841 18.4192 39.3841 18.4192ZM39.4311 14.7079C39.4764 15.7438 39.4764 17.1517 39.4764 17.1517C40.3662 17.8571 40.877 16.8684 40.877 16.8684C42.0424 15.7438 40.877 14.7079 40.6919 14.4291C40.5024 14.1458 39.5691 14.3805 39.5691 14.3805L39.4311 14.7079Z" fill="#0D1114"/>
<path d="M29.6571 36.658C29.6571 36.658 29.9845 36.5193 30.0769 36.2877C30.0769 36.2877 31.059 36.1914 31.1966 36.0517L34.281 36.2877C34.281 36.2877 37.3152 36.5193 38.6231 35.5762C38.6231 35.5762 39.093 35.5762 39.4201 35.7194C39.4201 35.7194 40.0703 35.8626 40.2567 36.14L42.0332 36.0927C42.0332 36.0927 43.0606 36.4247 42.9652 37.0828V37.9254C42.9652 37.9254 42.7774 39.6166 43.2442 39.7125H44.6019C44.6019 39.7125 45.7237 40.2277 45.5826 40.884C45.5826 40.884 45.6297 41.8195 44.6506 42.01C44.6506 42.01 43.6654 42.2902 43.3424 42.246C43.3424 42.246 43.0136 42.6667 42.9652 43.1829L42.8289 49.3334C42.8289 49.3334 42.7334 49.9901 43.7156 49.8969C43.7156 49.8969 45.1597 49.7555 45.5826 50.5567C45.5826 50.5567 45.9568 51.9156 45.2098 52.1502L44.6506 52.4291L43.4334 52.6244C43.4334 52.6244 42.9229 52.6668 42.8742 53.5581V55.1986C42.8742 55.1986 42.9229 56.3294 42.0332 56.3294L40.7253 56.4236C40.7253 56.4236 40.3992 56.701 39.7463 56.5137C39.7463 56.5137 31.806 56.6582 31.5255 56.5627L30.5908 56.7528C30.5908 56.7528 29.5644 57.6914 28.7233 56.9843L28.0701 56.4678C28.0701 56.4678 27.6019 56.5627 27.4186 56.5137C27.2308 56.4678 18.6372 56.6096 18.6372 56.6096C18.6372 56.6096 16.8155 56.8001 16.6775 56.1862C16.6775 56.1862 16.4444 53.7942 16.5367 53.5078C16.5367 53.5078 16.5367 52.8069 16.1169 52.7614C16.1169 52.7614 14.2951 52.6668 14.2481 52.4763C14.2481 52.4763 13.266 51.7758 13.5465 51.0729C13.5465 51.0729 13.8753 50.1302 14.8543 50.037C14.8543 50.037 16.3486 50.2748 16.3486 49.8514C16.3486 49.8514 16.4444 49.5695 16.4444 49.1019C16.4444 49.1019 16.5367 43.5121 16.4897 43.1374C16.4897 43.1374 16.6291 42.4334 16.0215 42.4334C16.0215 42.4334 15.3682 42.6194 14.9498 42.3392C14.9498 42.3392 13.8283 42.3865 13.5949 41.4934C13.5949 41.4934 13.4071 40.9313 13.6858 40.4575C13.6858 40.4575 14.2014 39.4261 15.6957 39.7564C15.6957 39.7564 16.5367 39.9927 16.6291 39.3847L16.5851 37.1269C16.5851 37.1269 16.3956 36.5193 17.5642 36.1914C17.5642 36.1914 19.0584 36.6121 19.5239 35.8626C19.5239 35.8626 20.0392 34.8263 20.4545 35.5306C20.4545 35.5306 21.3457 36.3778 23.7737 36.2877C23.7737 36.2877 27.9778 35.9558 28.0701 36.14C28.0701 36.14 29.0979 36.2877 29.3766 36.6121L29.6571 36.658Z" fill="#0D1114"/>
<path d="M29.6568 36.6007C29.6568 36.6007 29.9808 36.4637 30.0766 36.2291C30.0766 36.2291 31.057 36.1332 31.1964 35.9927L34.2793 36.2291C34.2793 36.2291 37.3149 36.4637 38.6228 35.5207C38.6228 35.5207 39.0927 35.5207 39.4199 35.6639C39.4199 35.6639 40.0717 35.8053 40.255 36.0828L42.0342 36.0369C42.0342 36.0369 43.0603 36.3692 42.9649 37.0255V37.8699C42.9649 37.8699 42.7785 39.5607 43.2453 39.6539H44.6016C44.6016 39.6539 45.7217 40.1719 45.5837 40.8285C45.5837 40.8285 45.6307 41.764 44.6503 41.9545C44.6503 41.9545 43.6669 42.2347 43.3438 42.1888C43.3438 42.1888 43.015 42.6108 42.9649 43.1274L42.8269 49.2793C42.8269 49.2793 42.7332 49.9329 43.7135 49.8414C43.7135 49.8414 45.1594 49.7031 45.5837 50.4995C45.5837 50.4995 45.9582 51.8601 45.2109 52.0961L44.6503 52.3767L43.4331 52.5671C43.4331 52.5671 42.9209 52.6127 42.8756 53.5009V55.1479C42.8756 55.1479 42.9209 56.2735 42.0342 56.2735L40.7264 56.3681C40.7264 56.3681 40.3989 56.6486 39.746 56.4613C39.746 56.4613 31.8057 56.6027 31.5252 56.5054L30.5888 56.6956C30.5888 56.6956 29.5641 57.6355 28.7231 56.9271L28.0684 56.4105C28.0684 56.4105 27.6016 56.5054 27.4169 56.4613C27.2288 56.4105 18.6369 56.5555 18.6369 56.5555C18.6369 56.5555 16.8138 56.7446 16.6744 56.1321C16.6744 56.1321 16.4424 53.7369 16.5347 53.4536C16.5347 53.4536 16.5347 52.7528 16.1135 52.7055C16.1135 52.7055 14.2935 52.6127 14.2451 52.4236C14.2451 52.4236 13.2643 51.7186 13.5445 51.016C13.5445 51.016 13.8733 50.0747 14.8541 49.9798C14.8541 49.9798 16.347 50.221 16.347 49.7924C16.347 49.7924 16.4424 49.5122 16.4424 49.046C16.4424 49.046 16.5347 43.4566 16.4894 43.0815C16.4894 43.0815 16.6288 42.3748 16.0195 42.3748C16.0195 42.3748 15.3666 42.5622 14.9464 42.2834C14.9464 42.2834 13.8266 42.3292 13.5932 41.4379C13.5932 41.4379 13.4037 40.8758 13.6855 40.4034C13.6855 40.4034 14.1981 39.3703 15.6937 39.6995C15.6937 39.6995 16.5347 39.9372 16.6288 39.3278L16.5818 37.0714C16.5818 37.0714 16.394 36.4637 17.5625 36.1332C17.5625 36.1332 19.0568 36.5566 19.5236 35.8053C19.5236 35.8053 20.0358 34.7712 20.4542 35.472C20.4542 35.472 21.3454 36.3192 23.7717 36.2291C23.7717 36.2291 27.9775 35.8968 28.0684 36.0828C28.0684 36.0828 29.0976 36.2291 29.3763 36.5566L29.6568 36.6007Z" stroke="#0D1114" stroke-width="0.0133333"/>
<path d="M30.8697 55.1082C30.8697 55.1082 31.4319 54.8231 31.8065 54.9208C32.1806 55.014 37.6428 54.8749 37.6428 54.8749C37.6428 54.8749 40.0238 55.0609 40.3997 54.7286L40.9558 54.5429C40.9558 54.5429 41.1906 54.2627 41.1906 53.8894C41.1906 53.5101 41.2376 52.2423 41.2376 52.2423L41.3801 51.7765C41.3801 51.7765 41.3317 51.3069 41.3801 38.7701C41.3801 38.7701 41.5634 37.7891 40.9558 37.1752C40.9558 37.1752 40.9558 36.8032 41.1422 36.8477C41.3317 36.8981 41.2376 36.8981 41.2376 36.8981C41.2376 36.8981 42.0772 36.6586 42.2152 36.9875C42.2152 36.9875 42.5925 38.1103 42.2636 38.7701C42.2636 38.7701 42.1696 40.1335 42.876 40.1335C42.876 40.1335 43.1517 40.4171 43.7126 40.2739C43.7126 40.2739 44.9264 40.4171 44.9264 40.7888C44.9264 40.7888 44.9264 41.6373 44.0854 41.4958L42.9626 41.5869C42.9626 41.5869 42.2152 41.7319 42.3107 42.6204C42.4061 43.5128 42.2636 49.8976 42.2636 49.8976C42.2636 49.8976 42.2636 50.6519 43.4339 50.6046C43.4339 50.6046 44.8797 50.556 44.8797 50.9763C44.8797 50.9763 45.2522 51.9149 44.2265 51.9639C44.2265 51.9639 42.2636 51.9149 42.4061 52.477C42.4061 52.477 42.2636 53.7948 42.1696 54.0264C42.1696 54.0264 42.3608 55.1082 42.1229 55.2973C42.1229 55.2973 41.9849 55.9049 40.7254 55.8121C40.7254 55.8121 32.6945 55.7662 31.4319 55.8594C31.4319 55.8594 30.6833 55.7662 30.8697 55.1082Z" fill="#9C9C9C"/>
<path d="M29.4251 54.2161C29.4251 54.2161 30.2177 54.3548 30.2177 55.1074C30.2177 55.8569 30.2648 56.2803 29.7952 56.3735C29.3297 56.4677 28.8175 56.3293 28.6795 55.7196C28.5357 55.1074 28.7688 54.3548 29.4251 54.2161Z" fill="#9C9C9C"/>
<path d="M30.3571 53.842C30.3571 53.842 31.1968 53.275 31.5239 53.373C31.5239 53.373 35.7723 53.6515 37.0832 53.4213C38.3894 53.1853 37.5954 53.373 37.5954 53.373C37.5954 53.373 38.7172 53.373 39.0413 52.9476C39.0413 52.9476 39.3701 52.8575 39.5565 53.1853L40.2537 53.9393C40.2537 53.9393 40.3066 54.4041 39.5095 54.3568C39.5095 54.3568 31.8953 54.3568 31.665 54.4041C31.665 54.4041 30.2177 54.6357 30.3571 53.842Z" fill="#9C9C9C"/>
<path d="M30.3571 53.8404C30.3571 53.8404 31.1968 53.2734 31.5239 53.3697C31.5239 53.3697 35.7754 53.6499 37.0846 53.4197C38.3928 53.1823 37.5968 53.3697 37.5968 53.3697C37.5968 53.3697 38.72 53.3697 39.0444 52.9428C39.0444 52.9428 39.3719 52.8548 39.5596 53.1823L40.2568 53.9377C40.2568 53.9377 40.3083 54.4042 39.5126 54.3552C39.5126 54.3552 31.8984 54.3552 31.665 54.4042C31.665 54.4042 30.2177 54.6357 30.3571 53.8404Z" stroke="#0D1114" stroke-width="0.016"/>
<path d="M19.2921 37.1759C19.2921 37.1759 19.6196 37.1759 19.5722 37.7398L19.4771 51.9156C19.4771 51.9156 19.6196 52.857 18.8253 53.465C18.8253 53.465 18.4023 53.9798 18.4023 53.1848L18.5932 38.7253C18.5932 38.7253 18.6375 37.6449 19.2921 37.1759Z" fill="#9C9C9C"/>
<path d="M19.2913 37.1748C19.2913 37.1748 19.6188 37.1748 19.5745 37.7383L19.4763 51.9176C19.4763 51.9176 19.6188 52.859 18.8231 53.467C18.8231 53.467 18.3984 53.9818 18.3984 53.1864L18.5896 38.7256C18.5896 38.7256 18.635 37.6438 19.2913 37.1748Z" stroke="#0D1114" stroke-width="0.016"/>
<path d="M18.5435 37.2693C18.5435 37.2693 17.9826 38.3039 18.0296 38.5402L17.9826 41.6814C17.9826 41.6814 17.9355 43.7001 17.9826 43.9361C18.0296 44.1694 17.9355 50.0852 17.9355 50.0852C17.9355 50.0852 17.8888 51.2091 17.9355 51.587V54.1208C17.9355 54.1208 17.8418 55.2496 18.6815 54.9632C18.6815 54.9632 26.9019 54.7775 27.4171 54.9204C27.4171 54.9204 28.1613 55.0594 27.8854 55.4356C27.8854 55.4356 27.8854 55.7665 27.367 55.6702C27.367 55.6702 23.4918 56.0432 19.9907 55.9049C19.9907 55.9049 17.6554 56.0432 17.5129 55.7665C17.5129 55.7665 17.1415 55.7189 17.1415 54.3555C17.1415 54.3555 17.1415 53.0912 17.0506 52.8562C17.0506 52.8562 17.1415 52.1905 15.9747 52.0549C15.9747 52.0549 14.3407 52.3382 14.2937 51.3527C14.2937 51.3527 14.5258 50.6487 16.1155 50.7402C16.1155 50.7402 17.2826 50.9289 17.0506 49.9876L17.1886 43.0448C17.1886 43.0448 17.3324 41.8187 16.5353 41.7697C16.5353 41.7697 15.7911 41.7318 15.5532 41.8187C15.5532 41.8187 14.2 41.8187 14.2937 41.0265C14.2937 41.0265 14.7606 40.1793 16.1155 40.3681C16.1155 40.3681 17.1415 40.5544 17.1886 39.3839C17.1886 39.3839 17.1415 36.9878 17.7007 36.8963C17.7007 36.8963 18.8709 36.9388 18.5435 37.2693Z" fill="#9C9C9C"/>
<path d="M19.9423 52.8064C19.9423 52.8064 20.5969 53.5072 21.6731 53.4661L28.0185 53.5576C28.0185 53.5576 28.7236 53.6076 28.6793 53.9793C28.6793 53.9793 28.5794 54.5417 27.7429 54.3544L20.083 54.2615L19.2406 54.3129C19.2406 54.3129 18.6797 54.2156 19.5708 53.1369L19.9423 52.8064Z" fill="#9C9C9C"/>
<path d="M19.9416 52.8046C19.9416 52.8046 20.5965 53.5068 21.6741 53.464L28.0212 53.5571C28.0212 53.5571 28.7243 53.6058 28.682 53.9788C28.682 53.9788 28.5835 54.5427 27.747 54.357L20.0826 54.2639L19.2399 54.3125C19.2399 54.3125 18.6807 54.2169 19.5701 53.1351L19.9416 52.8046Z" stroke="#0D1114" stroke-width="0.016"/>
<path d="M39.5566 52.1933C39.5566 52.1933 40.1172 53.2751 40.3977 53.4227C40.3977 53.4227 40.9115 54.0277 40.7722 52.949L40.8645 39.4281C40.8645 39.4281 40.7234 38.9574 40.8645 38.2093L40.3053 37.1761C40.3053 37.1761 39.696 36.7072 39.696 37.4567L39.6037 51.8703L39.5566 52.1933Z" fill="#9C9C9C"/>
<path d="M39.5566 52.1949C39.5566 52.1949 40.1189 53.2749 40.4008 53.4244C40.4008 53.4244 40.9146 54.0306 40.7753 52.9492L40.8676 39.4249C40.8676 39.4249 40.7265 38.9573 40.8676 38.2092L40.307 37.175C40.307 37.175 39.696 36.7071 39.696 37.4566L39.6037 51.8715L39.5566 52.1949Z" stroke="#0D1114" stroke-width="0.016"/>
<path d="M29.1911 45.766C29.1911 45.766 29.2381 46.8889 29.0956 47.9662C29.0198 48.5618 29.2848 51.3041 29.0486 52.7102C29.0486 52.7102 29.0061 53.1809 28.0209 52.7606C28.0209 52.7606 22.0451 52.899 21.8587 52.7102C21.8587 52.7102 20.2251 52.7606 20.084 51.9135C20.084 51.9135 20.3174 45.4827 20.178 45.2436C20.178 45.2436 20.084 41.7242 20.178 41.3967C20.178 41.3967 20.3174 38.1579 20.2251 37.7828C20.2251 37.7828 20.2721 37.0316 20.131 36.6541C20.131 36.6541 20.131 36.1848 20.9267 36.4653C20.9267 36.4653 21.2027 36.9833 22.7454 36.7531C22.7454 36.7531 23.8683 36.9391 24.943 36.7973C24.943 36.7973 27.3223 36.6099 27.9316 36.7973C27.9316 36.7973 28.8667 36.6099 29.1423 37.6458L29.0956 40.5541L29.3744 41.4927L29.7032 41.2594L29.8412 40.5541L29.8883 37.4554C29.8883 37.4554 30.0747 36.8901 30.8247 36.7973C30.8247 36.7973 31.9919 36.6541 32.1813 36.7531C32.3677 36.8432 34.885 36.9833 35.5897 36.8432C36.2883 36.7028 36.4263 37.3122 38.5316 36.2352C38.5316 36.2352 39.0922 36.2825 39.0922 36.6541C39.0922 36.6541 38.9013 40.6504 39.0922 41.3967C39.0922 41.3967 39.0922 48.7188 38.9466 49.2354L39.042 51.5825C39.042 51.5825 39.1347 52.616 37.5038 52.7102C37.5038 52.7102 38.5316 52.8517 32.0828 52.6643C32.0828 52.6643 31.0568 52.616 29.9367 53.1309C29.9367 53.1309 29.7032 53.085 29.7032 52.4756C29.7032 52.4756 29.8883 50.2713 29.7032 48.1077L29.6126 45.7146L29.1911 45.766Z" fill="#9C9C9C"/>
<path d="M24.9868 42.4357C24.9868 42.4357 25.1278 45.9082 24.9868 46.3771L24.9428 47.13C24.9428 47.13 25.1278 47.6432 25.4083 47.8336C25.4083 47.8336 25.6431 48.4886 25.0808 48.443C25.0808 48.443 23.9154 48.3485 23.6349 48.393C23.6349 48.393 22.9786 48.393 23.6349 47.5531C23.6349 47.5531 23.8684 47.2194 23.82 46.3771C23.82 46.3771 23.82 42.4357 23.9154 42.2028C23.9154 42.2028 24.0077 41.6831 23.6802 41.5416L23.118 41.5903L22.4208 42.247C22.4208 42.247 22.2783 42.954 21.9512 42.2028V41.8236L22.3741 40.6976L22.6545 40.6486C22.6545 40.6486 23.0727 40.9309 23.4454 41.0282H25.6431L26.4357 40.6486C26.4357 40.6486 26.7615 40.6976 26.6722 41.1196C26.6722 41.1196 26.8085 42.2028 26.2023 42.3401C26.2023 42.3401 25.8281 42.2028 25.6431 41.6831C25.6431 41.6831 25.0355 41.3574 24.9868 42.4357Z" fill="#0D1114"/>
<path d="M35.3059 41.1678C35.3059 41.1678 33.5342 41.026 33.4903 42.9501C33.4903 42.9501 33.2977 44.2679 35.2619 45.1137C35.2619 45.1137 36.7109 45.8145 36.6138 46.7059C36.6138 46.7059 36.4274 48.3025 34.8861 47.5054C34.8861 47.5054 34.1405 47.1275 34.1902 46.7059C34.1902 46.7059 33.9527 46.1879 33.6736 46.2835C33.6736 46.2835 33.3447 46.3753 33.4903 47.926C33.4903 47.926 33.4903 48.5368 34.1902 47.926L34.5586 48.022C34.5586 48.022 35.8211 49.0548 36.8928 47.7846C36.8928 47.7846 38.0627 46.7059 37.22 45.3925C37.22 45.3925 36.6138 44.457 35.541 43.9864C35.541 43.9864 34.5133 43.5126 34.2815 42.7155C34.2815 42.7155 34.6087 41.3048 35.8668 42.056C35.8668 42.056 36.335 42.6199 36.6138 42.7155C36.6138 42.7155 36.9883 42.7155 36.8928 41.8669L36.8046 41.1678C36.8046 41.1678 36.7109 40.645 36.0546 41.1678C36.0546 41.1678 35.447 41.3994 35.3059 41.1678Z" fill="#0D1114"/>
<path d="M29.6103 40.1787C29.9361 40.4179 29.9831 40.8858 29.9831 40.8858C30.9168 43.372 31.7125 46.9901 31.7125 46.9901C31.9442 47.4549 32.3658 47.8327 32.3658 47.8327C33.1598 48.1129 32.3658 48.3462 32.3658 48.3462C32.0383 48.4894 30.9669 48.3034 30.9669 48.3034C30.4029 48.203 30.635 48.0201 30.635 48.0201C30.8712 47.7855 30.6834 46.8438 30.6834 46.8438C30.635 46.4721 30.2183 45.86 30.2183 45.86C30.0319 45.7651 29.7044 46.1874 29.7044 46.1874C29.7044 46.1874 29.1922 46.3762 29.1421 46.1874C29.0951 45.9966 28.7693 45.8189 28.7693 45.8189C28.2084 45.8189 27.9767 47.2185 27.9767 47.2185C28.3024 48.3935 27.9767 48.203 27.9767 48.203C27.6979 48.5826 26.8082 48.3034 26.8082 48.3034C26.3883 48.203 26.6715 47.8755 26.6715 47.8755C27.1823 47.7855 27.3217 47.2185 27.3217 47.2185C27.5568 46.891 29.048 40.7899 29.048 40.7899C29.1922 40.5062 29.2828 39.9441 29.6103 40.1787ZM28.8664 43.2761C28.8177 43.5121 28.4888 44.8268 28.4888 44.8268L28.7693 45.3006C28.7693 45.3006 29.518 45.3434 29.7967 45.3434C30.0741 45.3434 30.1242 45.1132 30.1242 44.8738C30.1242 44.6412 29.6103 43.2333 29.6103 43.2333L29.3741 42.9514L28.8664 43.2761Z" fill="#0D1114"/>
<path d="M16.9609 28.8112C16.9609 28.8112 16.4457 30.4579 14.1574 28.764L6.31251 28.5749C6.31251 28.5749 5.28509 28.9072 5.144 27.8257C5.144 27.8257 5.33212 25.6683 5.23497 25.4793C5.23497 25.4793 5.28509 24.8668 4.25595 24.8668C4.25595 24.8668 2.67071 25.0586 2.62505 23.6497C2.62505 23.6497 2.34322 22.1428 4.53778 22.1945C4.53778 22.1945 5.23497 22.522 5.28509 21.6296C5.28509 21.6296 5.19103 15.5278 5.23497 15.0557C5.23497 15.0557 5.42583 14.4981 4.35138 14.4018C4.35138 14.4018 2.80836 14.7279 2.62505 13.6951C2.62505 13.6951 2.52962 12.1488 3.55567 12.0529C3.55567 12.0529 4.81686 12.1488 5.05166 11.8241C5.05166 11.8241 5.33212 12.0056 5.28509 10.8779L5.33212 8.95556C5.33212 8.95556 5.47286 8.43899 6.2624 8.48627C6.2624 8.48627 7.71445 8.57909 7.90222 8.43899C7.90222 8.43899 8.22833 8.0187 8.31758 7.82787C8.31758 7.82787 9.06936 7.7837 9.20873 7.96659C9.20873 7.96659 10.3271 8.72229 14.5813 8.43899C14.5813 8.43899 15.2315 8.43899 15.3726 8.62809C15.3726 8.62809 16.1652 9.23714 16.6321 8.57909C16.6321 8.57909 17.3323 8.43899 19.4356 8.48627C19.4356 8.48627 21.7197 9.09566 23.3098 7.7837L23.822 7.87998C23.822 7.87998 24.4752 8.95556 24.9465 8.62809C24.9465 8.62809 26.3454 8.48627 26.5802 8.76957C26.5802 8.76957 27.0484 9.47351 26.8105 11.3062C26.8105 11.3062 26.5331 12.1029 27.8867 12.1029C27.8867 12.1029 29.4263 11.8241 29.2416 13.2731C29.2416 13.2731 29.6628 14.917 27.0941 14.6837C27.0941 14.6837 26.7652 15.1544 26.8105 15.4822C26.8105 15.4822 26.7652 20.8312 26.7195 21.445C26.7195 21.445 26.6742 22.2846 27.7943 22.2418C27.7943 22.2418 29.2886 22.1428 29.3339 23.5096C29.3339 23.5096 29.5203 25.2919 27.3742 24.9613C27.3742 24.9613 26.7195 25.0586 26.6241 25.4793L26.5331 27.8257C26.5331 27.8257 26.5802 29 25.2692 28.7198C25.0828 28.7198 17.9887 28.8585 17.379 28.6743C17.379 28.6743 17.0533 28.627 16.9609 28.8112Z" fill="#0D1114"/>
<path d="M16.9602 28.813C16.9602 28.813 16.4449 30.4601 14.1567 28.7658L6.31041 28.577C6.31041 28.577 5.28265 28.909 5.1419 27.8261C5.1419 27.8261 5.33139 25.6688 5.23424 25.4797C5.23424 25.4797 5.28265 24.8689 4.25351 24.8689C4.25351 24.8689 2.66826 25.0608 2.62295 23.6515C2.62295 23.6515 2.34249 22.1432 4.53705 22.1949C4.53705 22.1949 5.23424 22.5228 5.28265 21.6314C5.28265 21.6314 5.18859 15.5268 5.23424 15.0561C5.23424 15.0561 5.42511 14.4968 4.34928 14.4022C4.34928 14.4022 2.80626 14.7287 2.62295 13.6941C2.62295 13.6941 2.52752 12.1475 3.55494 12.0533C3.55494 12.0533 4.81442 12.1475 5.05093 11.8218C5.05093 11.8218 5.33139 12.0061 5.28265 10.8784L5.33139 8.95426C5.33139 8.95426 5.47076 8.43803 6.26167 8.48669C6.26167 8.48669 7.71235 8.57813 7.90012 8.43803C7.90012 8.43803 8.2276 8.01912 8.31686 7.82829C8.31686 7.82829 9.06691 7.78274 9.208 7.96701C9.208 7.96701 10.325 8.72134 14.5806 8.43803C14.5806 8.43803 15.2308 8.43803 15.3718 8.62679C15.3718 8.62679 16.1645 9.23618 16.6313 8.57813C16.6313 8.57813 17.333 8.43803 19.4349 8.48669C19.4349 8.48669 21.7207 9.09298 23.3091 7.78274L23.8226 7.87867C23.8226 7.87867 24.4759 8.95426 24.9458 8.62679C24.9458 8.62679 26.3446 8.48669 26.5825 8.76689C26.5825 8.76689 27.0477 9.47255 26.8115 11.3035C26.8115 11.3035 26.5324 12.1034 27.8859 12.1034C27.8859 12.1034 29.4286 11.8218 29.2409 13.2721C29.2409 13.2721 29.6621 14.9174 27.0947 14.6828C27.0947 14.6828 26.7645 15.1534 26.8115 15.4826C26.8115 15.4826 26.7645 20.8316 26.7205 21.4441C26.7205 21.4441 26.6735 22.2864 27.7936 22.2439C27.7936 22.2439 29.2879 22.1432 29.3349 23.5114C29.3349 23.5114 29.5196 25.2923 27.3734 24.9617C27.3734 24.9617 26.7205 25.0608 26.6251 25.4797L26.5324 27.8261C26.5324 27.8261 26.5825 29.0021 25.2702 28.7216C25.0838 28.7216 17.9879 28.8589 17.3783 28.6747C17.3783 28.6747 17.0525 28.6288 16.9602 28.813Z" stroke="#0D1114" stroke-width="0.0133333"/>
<path d="M8.13442 9.47501C8.13442 9.47501 8.22848 10.4119 8.22848 10.6465C8.22848 10.8812 8.08602 24.2133 8.08602 24.2133C8.08602 24.2133 8.22848 25.2492 7.33905 25.7627C7.33905 25.7627 7.107 25.8586 7.05859 25.2019L7.15402 11.1189C7.15402 11.1189 7.24637 9.38046 8.13442 9.47501Z" fill="#9C9C9C"/>
<path d="M8.13613 9.47266C8.13613 9.47266 8.22985 10.4095 8.22985 10.6442C8.22985 10.8788 8.08739 24.2123 8.08739 24.2123C8.08739 24.2123 8.22985 25.2482 7.33905 25.7648C7.33905 25.7648 7.107 25.8594 7.05859 25.2027L7.15093 11.118C7.15093 11.118 7.24499 9.37949 8.13613 9.47266Z" stroke="#0D1114" stroke-width="0.016"/>
<path d="M6.59248 25.9019C6.59248 25.9019 6.68345 12.6643 6.63951 12.428C6.59248 12.1964 6.68345 12.6184 6.68345 12.6184C6.68345 12.6184 6.54717 10.321 7.15305 9.37961C7.15305 9.37961 6.96528 8.58112 5.89083 9.56526L5.84826 11.4911C5.84826 11.4911 5.84826 12.5712 4.86478 12.5239C4.86478 12.5239 3.7433 12.4752 3.22804 12.9949C3.22804 12.9949 2.94896 14.026 4.02067 13.8403C4.02067 13.8403 5.70443 13.8403 5.79677 14.5394L5.70443 21.6299C5.70443 21.6299 6.0786 22.8032 4.76935 22.8032C4.76935 22.8032 3.18239 22.7131 3.22804 23.699C3.22804 23.699 3.55518 24.5444 4.91181 24.2611C4.91181 24.2611 5.89083 24.4499 5.84826 25.384V27.1725C5.84826 27.1725 5.74974 27.8778 6.68345 27.9206H13.9702C13.9702 27.9206 14.3433 27.9675 14.3433 27.4968C14.3433 27.4968 14.2959 27.1266 13.7384 27.1266L7.67002 27.0293C7.67002 27.0293 6.68345 27.3585 6.59248 25.9019Z" fill="#9C9C9C"/>
<path d="M7.85428 25.9976C7.85428 25.9976 7.66925 26.6574 8.36644 26.5124H13.1768L14.4846 26.793C14.4846 26.793 15.8426 26.4652 14.4846 25.7126C14.4846 25.7126 10.1882 25.7629 9.81369 25.6684C9.81369 25.6684 8.92873 25.4341 8.74096 25.3865C8.74096 25.3865 8.27273 25.2008 7.85428 25.9976Z" fill="#9C9C9C"/>
<path d="M7.85232 25.9968C7.85232 25.9968 7.6673 26.6593 8.36449 26.5116H13.1765L14.4861 26.7949C14.4861 26.7949 15.8438 26.4675 14.4861 25.7135C14.4861 25.7135 10.1876 25.7635 9.81345 25.6662C9.81345 25.6662 8.92677 25.4329 8.739 25.3874C8.739 25.3874 8.27043 25.2 7.85232 25.9968Z" stroke="#0D1114" stroke-width="0.016"/>
<path d="M15.8406 26.6584C15.8406 26.6584 14.9512 26.6584 14.9979 27.8255C14.9979 27.8255 15.0919 28.7227 16.0239 28.7227C16.0239 28.7227 16.8653 28.5767 16.7743 27.6426C16.7743 27.6426 16.2587 26.4666 15.8406 26.6584Z" fill="#9C9C9C"/>
<path d="M16.4921 26.1833C16.4921 26.1833 16.9105 25.714 17.1937 25.714C17.1937 25.714 21.8619 26.1378 22.6559 25.5753C22.6559 25.5753 23.359 25.4352 23.5426 25.5753C23.5426 25.5753 24.2429 26.1378 24.2429 26.4652C24.2429 26.4652 24.1972 26.8918 23.359 26.6571C23.359 26.6571 18.0773 26.7013 17.8 26.7013C17.8 26.7013 16.351 27.0287 16.4921 26.1833Z" fill="#9C9C9C"/>
<path d="M16.4901 26.1837C16.4901 26.1837 16.91 25.713 17.1918 25.713C17.1918 25.713 21.8614 26.1381 22.6554 25.5757C22.6554 25.5757 23.3601 25.4342 23.5434 25.5757C23.5434 25.5757 24.2437 26.1381 24.2437 26.467C24.2437 26.467 24.1984 26.8938 23.3601 26.6575C23.3601 26.6575 18.0785 26.7034 17.798 26.7034C17.798 26.7034 16.3491 27.0308 16.4901 26.1837Z" stroke="#0D1114" stroke-width="0.016"/>
<path d="M17.2402 27.5937C17.2402 27.5937 17.2402 27.2204 17.8904 27.2204L24.4332 27.1717C24.4332 27.1717 25.0377 27.4961 25.0377 26.3732C25.0377 26.3732 25.2773 21.2544 25.2986 15.6205C25.3075 13.9448 25.3803 12.1853 25.3168 10.5549C25.3168 10.5549 25.1774 9.85263 24.991 9.7077C24.991 9.7077 24.991 8.95683 25.7881 9.24151C25.7881 9.24151 26.4836 9.28603 26.2986 10.3644L26.3442 12.0083C26.3442 12.0083 26.2049 12.7122 27.4657 12.5249C27.4657 12.5249 28.7252 12.7122 28.7705 13.1815C28.7705 13.1815 29.1481 14.1229 27.6552 14.0269H26.5821C26.5821 14.0269 26.1139 14.3075 26.2533 14.8727L26.1139 21.6778C26.1139 21.6778 26.0168 22.8511 27.1413 22.8083C27.1413 22.8083 28.3085 22.7596 28.5388 23.1344C28.5388 23.1344 29.3359 24.309 27.6068 24.2148C27.6068 24.2148 26.532 24.1658 26.2986 24.3532C26.2986 24.3532 26.1139 24.5923 25.9728 26.7956C25.9728 26.7956 26.0652 28.1103 25.0848 27.9685C25.0848 27.9685 18.5934 28.0599 17.9889 27.9212C17.9889 27.9212 17.3326 28.1103 17.2402 27.5937Z" fill="#9C9C9C"/>
<path d="M8.83185 9.04829L8.69557 24.1185C8.69557 24.1185 8.64855 24.818 9.81534 24.9595C9.81534 24.9595 11.172 25.1013 11.4964 24.9595C11.4964 24.9595 12.3813 24.9139 14.6713 25.0085C14.6713 25.0085 15.2322 25.5689 15.2775 24.8684C15.2775 24.8684 15.652 12.6605 15.4653 10.127C15.4653 10.127 15.42 9.04829 14.6229 9.00102C14.6229 9.00102 11.0765 9.28156 10.749 9.00102L9.3502 8.62455C9.3502 8.62455 8.78654 8.66906 8.83185 9.04829Z" fill="#9C9C9C"/>
<path d="M23.6355 9.61096L23.5898 24.4466C23.5898 24.4466 23.9644 25.7647 24.5737 25.6243C24.5737 25.6243 24.666 25.341 24.7117 24.8686L24.9012 10.7369C24.9012 10.7369 24.4326 8.48327 23.6355 9.61096Z" fill="#9C9C9C" stroke="#0D1114" stroke-width="0.016"/>
<path d="M23.6355 9.61096L23.5898 24.4466C23.5898 24.4466 23.9644 25.7647 24.5737 25.6243C24.5737 25.6243 24.666 25.341 24.7117 24.8686L24.9012 10.7369C24.9012 10.7369 24.4326 8.48327 23.6355 9.61096Z" stroke="#0D1114" stroke-width="0.016"/>
<path d="M16.214 9.73682C16.214 9.73682 16.0733 16.8242 16.1172 17.062L16.029 23.0248L15.8398 25.0845C15.8398 25.0845 16.1172 25.5127 16.352 25.2291C16.352 25.2291 17.848 24.8557 18.7814 24.9948C18.7814 24.9948 21.7716 25.2781 22.3765 24.8071C22.3765 24.8071 22.8433 25.0403 22.9841 24.2891C22.9841 24.2891 23.1691 11.1475 23.0764 10.9114C23.0764 10.9114 23.2645 9.03599 23.1691 8.85034C23.1691 8.85034 23.1221 8.42349 22.3326 8.79685C22.3326 8.79685 22.4232 9.17608 17.9887 9.03599C17.9887 9.03599 16.3067 8.98733 16.214 9.73682Z" fill="#9C9C9C"/>
<path d="M14.7724 14.0793L14.3499 14.9751C14.3499 14.9751 13.3265 19.5259 12.7674 20.4628C12.7674 20.4628 12.6733 21.4044 11.8793 20.6515C11.8793 20.6515 10.0562 14.8792 9.96348 14.6904L9.35588 14.2681C9.35588 14.2681 8.98755 13.7518 9.63771 13.7059L11.3654 13.7518C11.3654 13.7518 11.9246 14.2194 11.179 14.7418C11.179 14.7418 11.2717 15.4917 12.2521 18.3513C12.2521 18.3513 12.5308 19.4313 12.8583 18.6328L13.7934 15.2995L13.5129 14.3139C13.5129 14.3139 13.2311 13.8446 13.654 13.7991C13.654 13.7991 14.6348 13.7059 14.7724 14.0793Z" fill="#0D1114"/>
<path d="M17.4829 14.8326L17.4328 19.8085L17.2965 20.1832C17.2965 20.1832 16.8283 20.7913 17.1541 20.8399C17.1541 20.8399 16.7373 21.1232 20.1412 21.1688C20.1412 21.1688 21.4522 21.402 21.1234 19.7126C21.1234 19.7126 20.984 19.1028 20.514 19.9959C20.514 19.9959 20.3747 20.7436 18.6971 20.5107C18.6971 20.5107 18.3226 20.1832 18.3226 19.8085V17.7412C18.3226 17.7412 18.2728 17.2229 19.0682 17.2764C19.0682 17.2764 19.9548 17.8371 20.0959 17.5994C20.0959 17.5994 20.4217 16.8512 20.0959 16.3806C20.0959 16.3806 19.6744 16.3364 19.6291 16.5238C19.6291 16.5238 19.3486 17.0842 18.5546 16.7553C18.5546 16.7553 18.1818 16.0058 18.4149 15.3947C18.4149 15.3947 18.3226 14.2204 19.1169 14.316C19.1169 14.316 20.0503 14.502 20.1412 14.787C20.1412 14.787 20.3747 15.3523 20.6112 14.6942L20.3747 13.8926C20.3747 13.8926 20.2384 13.5634 20.0032 13.658C20.0032 13.658 18.4149 13.8926 18.2258 13.7021L16.9646 13.8453C16.9646 13.8453 16.7799 14.316 17.3422 14.5479C17.3422 14.5479 17.4829 14.6438 17.4829 14.8326Z" fill="#0D1114"/>
</svg>
