<svg width="31" height="31" viewBox="0 0 31 31" fill="none" xmlns="http://www.w3.org/2000/svg">
<path fill-rule="evenodd" clip-rule="evenodd" d="M3.90961 16.75C2.13641 15.3366 1 13.1581 1 10.7143C1 6.4538 4.4538 3 8.71429 3C11.6452 3 14.1944 4.63455 15.5 7.04181C16.8056 4.63455 19.3548 3 22.2857 3C26.5462 3 30 6.4538 30 10.7143C30 13.1581 28.8636 15.3366 27.0904 16.75H27.1913L15.5 28L3.80866 16.75H3.90961Z" fill="#292E32"/>
<path fill-rule="evenodd" clip-rule="evenodd" d="M8.49017 18.6961C7.41776 17.8413 6.73047 16.5238 6.73047 15.0458C6.73047 12.4691 8.81929 10.3802 11.396 10.3802C13.1686 10.3802 14.7103 11.3688 15.4999 12.8247C16.2895 11.3688 17.8312 10.3802 19.6038 10.3802C22.1805 10.3802 24.2694 12.4691 24.2694 15.0458C24.2694 16.5238 23.5821 17.8413 22.5097 18.6961H22.5707L15.4999 25.5L8.42911 18.6961H8.49017Z" fill="#E6E6E6"/>
</svg>
