<svg width="44" height="44" viewBox="0 0 44 44" fill="none" xmlns="http://www.w3.org/2000/svg">
<path d="M37.7773 15.445C37.7577 14.102 37.5071 12.7697 37.0276 11.5137C36.1883 9.36889 34.4795 7.67291 32.316 6.84267C31.0652 6.3761 29.7429 6.12596 28.4044 6.09757C26.683 6.02129 26.1372 6 21.7674 6C17.3977 6 16.8376 6 15.1287 6.09757C13.792 6.12596 12.4697 6.3761 11.2188 6.84267C9.05545 7.67291 7.34477 9.36889 6.50732 11.5137C6.0367 12.7537 5.78261 14.0648 5.75756 15.39C5.68061 17.0983 5.65735 17.6394 5.65735 21.9716C5.65735 26.3038 5.65735 26.8573 5.75756 28.5533C5.7844 29.8803 6.0367 31.1895 6.50732 32.4331C7.34656 34.5761 9.05545 36.2721 11.2206 37.1023C12.4661 37.5849 13.7885 37.8581 15.1305 37.9007C16.8537 37.9769 17.3995 38 21.7692 38C26.139 38 26.6991 38 28.408 37.9007C29.7447 37.874 31.067 37.6239 32.3196 37.1573C34.483 36.3253 36.1919 34.6293 37.0312 32.4863C37.5018 31.2445 37.7541 29.9353 37.7809 28.6065C37.8579 26.8999 37.8811 26.3588 37.8811 22.0248C37.8775 17.6927 37.8775 17.1427 37.7773 15.445ZM21.7567 30.1641C17.1865 30.1641 13.4842 26.4936 13.4842 21.9627C13.4842 17.4319 17.1865 13.7614 21.7567 13.7614C26.3233 13.7614 30.0292 17.4319 30.0292 21.9627C30.0292 26.4936 26.3233 30.1641 21.7567 30.1641ZM30.3584 15.3704C29.2901 15.3704 28.4294 14.5154 28.4294 13.458C28.4294 12.4007 29.2901 11.5456 30.3584 11.5456C31.4231 11.5456 32.2856 12.4007 32.2856 13.458C32.2856 14.5154 31.4231 15.3704 30.3584 15.3704Z" fill="white"/>
<path d="M21.7692 27C24.55 27 26.8042 24.7614 26.8042 22C26.8042 19.2386 24.55 17 21.7692 17C18.9885 17 16.7343 19.2386 16.7343 22C16.7343 24.7614 18.9885 27 21.7692 27Z" fill="white"/>
</svg>
