<svg width="1124" height="298" viewBox="0 0 1124 298" fill="none" xmlns="http://www.w3.org/2000/svg">
<path d="M663.326 29.702V90.296H724.097V99.1588H663.326V187.786H724.097V196.935H654.563V20.8392H724.097V29.702H663.326Z" fill="white"/>
<path d="M792.531 187.437C792.531 190.423 792.531 193.409 792.531 196.379C771.85 196.379 751.169 196.379 730.488 196.379V24.8259H739.25V187.501C757.01 187.485 774.77 187.453 792.531 187.437Z" fill="white"/>
<path d="M923.243 24.8259V196.363H914.481V40.5502L865.016 115.741H856.819L807.354 40.5502V196.363H798.592V24.8259H806.789L860.776 109.451L914.763 24.8259H923.243Z" fill="white"/>
<path d="M987.689 111.738H931.44L900.065 196.363H891.586L955.748 24.8259H963.38L1027.54 196.363H1019.35L987.689 111.738ZM984.862 104.019L959.706 36.5476L934.267 104.019H984.862Z" fill="white"/>
<path d="M1114.04 196.363H1106.12L1007.47 38.263V196.363H999.843V24.8259H1007.47L1106.12 182.355V24.8259H1114.04V196.363Z" fill="white"/>
<path d="M687.838 239.819C687.838 245.807 685.169 251.097 680.285 254.861C675.637 258.387 669.356 260.388 662.509 260.388C661.583 260.388 660.656 260.388 659.714 260.277V290.248H656.573V217.964C658.552 217.488 660.53 217.266 662.493 217.266C669.23 217.266 675.621 219.616 680.395 223.841C685.169 228.066 687.838 233.832 687.838 239.819ZM685.043 239.819C685.043 229.003 674.93 220.077 662.493 220.077C661.567 220.077 660.64 220.188 659.698 220.315V257.466C660.625 257.577 661.551 257.577 662.493 257.577C675.511 257.577 685.043 250.175 685.043 239.835V239.819Z" fill="#9C9C9C"/>
<path d="M755.126 221.713V246.633H780.109V250.271H755.126V286.706H780.109V290.471H751.514V218.06H780.109V221.697H755.126V221.713Z" fill="#9C9C9C"/>
<path d="M881.897 255.449H858.766L845.874 290.248H842.388L868.769 219.727H871.909L898.291 290.248H894.914L881.897 255.449ZM880.735 252.272L870.386 224.524L859.928 252.272H880.735Z" fill="#9C9C9C"/>
<path d="M1016.82 278.844L1020.3 279.67C1013.8 287.31 1004.27 292.25 993.687 292.25C974.168 292.25 958.245 275.684 958.245 255.337C958.245 234.991 974.168 218.425 993.687 218.425C1004.25 218.425 1013.79 223.365 1020.3 231.004L1016.82 231.83C1010.9 225.477 1002.75 221.602 993.687 221.602C975.785 221.602 961.385 236.77 961.385 255.337C961.385 273.905 975.801 288.962 993.687 288.962C1002.75 288.962 1010.88 285.086 1016.82 278.844Z" fill="#9C9C9C"/>
<path d="M1086.65 221.713V246.633H1111.63V250.271H1086.65V286.706H1111.63V290.471H1083.04V218.06H1111.63V221.697H1086.65V221.713Z" fill="#9C9C9C"/>
<path fill-rule="evenodd" clip-rule="evenodd" d="M606.104 97.9517C606.104 97.9517 607.784 119.124 591.515 134.88C591.013 135.356 590.558 135.881 590.055 136.373C569.201 156.449 543.825 152.272 541.14 151.795C512.67 146.697 497.046 114.2 497.046 114.2L496.779 122.586C496.779 122.586 502.432 153.368 530.446 162.358C573.284 176.081 619.263 149.222 606.072 97.9835L606.104 97.9517Z" fill="#007A90"/>
<path fill-rule="evenodd" clip-rule="evenodd" d="M386.151 138.247C341.868 126.764 311.216 134.8 296.894 142.027C272.084 154.575 243.834 181.894 268.032 227.51C268.032 227.51 261.233 210.531 267.812 192.949C282.024 154.893 343.721 140.28 387.234 154.48L386.166 138.247H386.151Z" fill="#007A90"/>
<path fill-rule="evenodd" clip-rule="evenodd" d="M323.888 115.264C277.862 89.4225 278.726 63.3266 278.726 63.3266C274.015 73.8571 281.239 101.24 309.19 123.381C332.478 141.837 387.234 155.306 387.234 155.306L387.501 135.563C387.501 135.563 350.002 129.94 323.888 115.28V115.264Z" fill="#10D9D1"/>
<path fill-rule="evenodd" clip-rule="evenodd" d="M607.439 97.1417C604.926 90.2008 601.299 81.3221 587.668 76.5889C575.357 72.3164 559.748 73.6188 543.574 91.2014C524.071 112.405 509.294 142.17 493.057 163.962C433.621 243.774 400.095 277.685 354.085 275.144C283.955 271.252 265.63 219.14 265.63 219.14C265.441 224.747 272.068 244.33 284.599 258.101C297.837 272.634 320.858 286.357 342.858 288.946C422.315 298.253 458.699 236.849 547.578 110.944C565.464 85.6105 586.098 90.8678 595.677 102.288C606.088 114.677 605.57 132.863 605.57 132.863C605.57 132.863 613.374 113.533 607.439 97.1576V97.1417Z" fill="#10D9D1"/>
<path fill-rule="evenodd" clip-rule="evenodd" d="M425.707 38.4377C407.13 20.8551 387.25 9.35578 361.56 4.08259C324.736 -3.47776 274.942 23.3011 277.642 69.2668C277.642 69.2668 280.343 50.5407 299.564 35.1817C333.53 8.0216 400.833 4.05082 463.378 110.388V102.812C457.662 77.2878 443.64 55.4009 425.707 38.4377Z" fill="#007A90"/>
<path fill-rule="evenodd" clip-rule="evenodd" d="M367.499 172.289C321.817 190.545 277.173 203.01 213.998 208.485C123.445 216.335 -0.385507 193.419 6.25635 145.695C6.25635 145.695 12.8982 165.137 60.1635 181.084C113.381 199.05 202.039 206.393 299.499 182.114C341.81 171.574 400.999 149.538 420.5 136.093C440 122.649 454 114.376 463 103V110.866C448.944 137.367 411.598 154.677 367.499 172.289Z" fill="#10D9D1"/>
</svg>
