<svg width="616" height="293" viewBox="0 0 616 293" fill="none" xmlns="http://www.w3.org/2000/svg">
<path fill-rule="evenodd" clip-rule="evenodd" d="M606.104 97.9517C606.104 97.9517 607.784 119.124 591.515 134.88C591.013 135.356 590.558 135.881 590.055 136.373C569.201 156.449 543.825 152.272 541.14 151.795C512.67 146.697 497.046 114.2 497.046 114.2L496.779 122.586C496.779 122.586 502.432 153.368 530.446 162.358C573.284 176.081 619.263 149.222 606.072 97.9835L606.104 97.9517Z" fill="#007A90"/>
<path fill-rule="evenodd" clip-rule="evenodd" d="M386.151 138.247C341.868 126.764 311.216 134.8 296.894 142.027C272.084 154.575 243.834 181.894 268.032 227.51C268.032 227.51 261.233 210.531 267.812 192.949C282.024 154.893 343.721 140.28 387.234 154.48L386.166 138.247H386.151Z" fill="#007A90"/>
<path fill-rule="evenodd" clip-rule="evenodd" d="M323.888 115.264C277.862 89.4225 278.726 63.3266 278.726 63.3266C274.015 73.8571 281.239 101.24 309.19 123.381C332.478 141.837 387.234 155.306 387.234 155.306L387.501 135.563C387.501 135.563 350.002 129.94 323.888 115.28V115.264Z" fill="#10D9D1"/>
<path fill-rule="evenodd" clip-rule="evenodd" d="M607.439 97.1417C604.926 90.2008 601.299 81.3221 587.668 76.5889C575.357 72.3164 559.748 73.6188 543.574 91.2014C524.071 112.405 509.294 142.17 493.057 163.962C433.621 243.774 400.095 277.685 354.085 275.144C283.955 271.252 265.63 219.14 265.63 219.14C265.441 224.747 272.068 244.33 284.599 258.101C297.837 272.634 320.858 286.357 342.858 288.946C422.315 298.253 458.699 236.849 547.578 110.944C565.464 85.6105 586.098 90.8678 595.677 102.288C606.088 114.677 605.57 132.863 605.57 132.863C605.57 132.863 613.374 113.533 607.439 97.1576V97.1417Z" fill="#10D9D1"/>
<path fill-rule="evenodd" clip-rule="evenodd" d="M425.707 38.4377C407.13 20.8551 387.25 9.35578 361.56 4.08259C324.736 -3.47776 274.942 23.3011 277.642 69.2668C277.642 69.2668 280.343 50.5407 299.564 35.1817C333.53 8.0216 400.833 4.05082 463.378 110.388V102.812C457.662 77.2878 443.64 55.4009 425.707 38.4377Z" fill="#007A90"/>
<path fill-rule="evenodd" clip-rule="evenodd" d="M367.499 172.289C321.817 190.545 277.173 203.01 213.998 208.485C123.445 216.335 -0.385507 193.419 6.25635 145.695C6.25635 145.695 12.8982 165.137 60.1635 181.084C113.381 199.05 202.039 206.393 299.499 182.114C341.81 171.574 400.999 149.538 420.5 136.093C440 122.649 454 114.376 463 103V110.866C448.944 137.367 411.598 154.677 367.499 172.289Z" fill="#10D9D1"/>
</svg>
