<svg width="851" height="497" viewBox="0 0 851 497" fill="none" xmlns="http://www.w3.org/2000/svg">
<g clip-path="url(#clip0_141_821)">
<path d="M16.2222 9.4497V121.915H128.731V138.365H16.2222V302.862H128.731V319.842H0V-7H128.731V9.4497H16.2222Z" fill="white"/>
<path d="M255.427 302.212C255.427 307.754 255.427 313.297 255.427 318.809C217.139 318.809 178.851 318.809 140.563 318.809V0.398663H156.785V302.33C189.666 302.301 222.546 302.242 255.427 302.212Z" fill="white"/>
<path d="M497.422 0.398663V318.78H481.2V29.5836L389.623 169.141H374.448L282.871 29.5836V318.78H266.648V0.398663H281.824L381.774 157.467L481.723 0.398663H497.422Z" fill="white"/>
<path d="M616.733 161.712H512.598L454.512 318.78H438.813L557.601 0.398663H571.73L690.518 318.78H675.343L616.733 161.712ZM611.5 147.385L564.927 22.1547L517.83 147.385H611.5Z" fill="white"/>
<path d="M850.647 318.78H835.995L653.364 25.3385V318.78H639.235V0.398663H653.364L835.995 292.779V0.398663H850.647V318.78Z" fill="white"/>
<path d="M61.6036 399.437C61.6036 410.551 56.6613 420.367 47.6199 427.354C39.0146 433.899 27.3858 437.613 14.7104 437.613C12.9952 437.613 11.2799 437.613 9.53559 437.407V493.035H3.72119V358.873C7.38426 357.988 11.0474 357.576 14.6814 357.576C27.1533 357.576 38.9856 361.939 47.8235 369.78C56.6613 377.622 61.6036 388.323 61.6036 399.437ZM56.4287 399.437C56.4287 379.361 37.7064 362.793 14.6814 362.793C12.9661 362.793 11.2509 363 9.50658 363.236V432.189C11.2218 432.395 12.9371 432.395 14.6814 432.395C38.7821 432.395 56.4287 418.658 56.4287 399.466V399.437Z" fill="white"/>
<path d="M186.177 365.831V412.085H232.431V418.836H186.177V486.462H232.431V493.449H179.491V359.051H232.431V365.802H186.177V365.831Z" fill="white"/>
<path d="M420.875 428.445H378.052L354.184 493.035H347.73L396.571 362.145H402.386L451.226 493.035H444.976L420.875 428.445ZM418.724 422.549L399.566 371.048L380.204 422.549H418.724Z" fill="white"/>
<path d="M670.662 471.869L677.116 473.402C665.08 487.582 647.433 496.75 627.839 496.75C591.702 496.75 562.223 466.002 562.223 428.239C562.223 390.475 591.702 359.728 627.839 359.728C647.404 359.728 665.051 368.896 677.116 383.076L670.662 384.609C659.702 372.817 644.613 365.624 627.839 365.624C594.697 365.624 568.038 393.777 568.038 428.239C568.038 462.701 594.726 490.647 627.839 490.647C644.613 490.647 659.673 483.454 670.662 471.869Z" fill="white"/>
<path d="M799.945 365.831V412.085H846.199V418.836H799.945V486.462H846.199V493.449H793.259V359.051H846.199V365.802H799.945V365.831Z" fill="white"/>
</g>
<defs>
<clipPath id="clip0_141_821">
<rect width="851" height="497" fill="white"/>
</clipPath>
</defs>
</svg>
