<svg width="20" height="20" viewBox="0 0 20 20" fill="none" xmlns="http://www.w3.org/2000/svg">
<path fill-rule="evenodd" clip-rule="evenodd" d="M5 8.66851C5 5.33482 8.81726 5.71732 10.0004 8.17662C11.1836 5.71741 15 5.33487 15 8.66851C15 11.1147 11.5401 13.3964 10.0004 15C8.52563 13.4755 5 11.0845 5 8.66851Z" fill="#10D9D1"/>
<path fill-rule="evenodd" clip-rule="evenodd" d="M1.25 7.51428C1.25 4.74497 3.33418 2.5 5.90514 2.5C7.67386 2.5 9.21218 3.56251 10 5.12729C10.7878 3.56252 12.3262 2.50002 14.0949 2.50002C16.6658 2.50002 18.75 4.745 18.75 7.51431C18.75 11.8993 12.7112 15.9154 9.99988 18.75C7.3912 16.0461 1.25 11.8524 1.25 7.51428Z" stroke="#10D9D1" stroke-linejoin="round"/>
</svg>
