<svg width="44" height="44" viewBox="0 0 44 44" fill="none" xmlns="http://www.w3.org/2000/svg">
<path d="M35.8814 11.331C37.4637 10.348 38.6477 8.80018 39.2122 6.9765C37.7254 7.89326 36.0986 8.53906 34.4022 8.88596C32.0503 6.30063 28.324 5.67148 25.3054 7.35006C22.2868 9.02864 20.7233 12.5994 21.4885 16.0671C15.3981 15.7493 9.72382 12.7597 5.87765 7.84227C3.87041 11.44 4.89615 16.0391 8.22175 18.3525C7.01918 18.3124 5.84328 17.974 4.79209 17.3657C4.79209 17.3987 4.79209 17.4317 4.79209 17.4648C4.79279 21.2124 7.33455 24.4406 10.8695 25.1833C9.754 25.4986 8.58397 25.5451 7.44862 25.319C8.44275 28.524 11.2852 30.7196 14.525 30.7851C11.8417 32.9736 8.52796 34.1604 5.11688 34.1546C4.51227 34.1555 3.90813 34.1194 3.30762 34.0464C6.7715 36.3594 10.803 37.5872 14.9204 37.5828C20.6487 37.6237 26.1538 35.277 30.2043 31.0676C34.2547 26.8582 36.5125 21.1374 36.4727 15.1848C36.4727 14.8436 36.4651 14.5043 36.4498 14.1668C37.9333 13.0526 39.2136 11.6725 40.2307 10.0911C38.8486 10.7277 37.3826 11.1456 35.8814 11.331Z" fill="white"/>
</svg>
