<svg width="259" height="93" viewBox="0 0 259 93" fill="none" xmlns="http://www.w3.org/2000/svg">
<path d="M102.978 64.9433C102.978 65.1267 102.97 65.2831 102.955 65.4081C102.938 65.5335 102.913 65.6323 102.879 65.7056C102.845 65.7792 102.806 65.8357 102.763 65.8711C102.719 65.909 102.669 65.9261 102.612 65.9261H98.6388V69.1286H102.368C102.423 69.1286 102.474 69.1435 102.518 69.1738C102.562 69.2037 102.601 69.2572 102.636 69.3309C102.67 69.4031 102.696 69.5022 102.711 69.6247C102.727 69.7483 102.734 69.9014 102.734 70.0844C102.734 70.2688 102.727 70.423 102.711 70.5433C102.696 70.6702 102.67 70.7675 102.636 70.8488C102.602 70.929 102.562 70.987 102.518 71.0198C102.474 71.0515 102.424 71.0701 102.368 71.0701H98.6388V75.5043C98.6388 75.5703 98.6206 75.6297 98.5833 75.6782C98.5453 75.7267 98.4787 75.7682 98.3812 75.8018C98.2832 75.8364 98.1571 75.8619 98.0014 75.8816C97.8439 75.8977 97.644 75.9093 97.3995 75.9093C97.1619 75.9093 96.9631 75.8977 96.8034 75.8816C96.6441 75.8619 96.5169 75.8364 96.4237 75.8018C96.3286 75.7682 96.2618 75.7267 96.2208 75.6782C96.1803 75.6297 96.1602 75.5703 96.1602 75.5043V64.714C96.1602 64.4432 96.2303 64.25 96.3721 64.13C96.5121 64.0105 96.685 63.9492 96.8926 63.9492H102.612C102.668 63.9492 102.719 63.966 102.763 64.0021C102.806 64.0334 102.845 64.0885 102.879 64.1668C102.913 64.2427 102.938 64.3444 102.955 64.4738C102.97 64.6043 102.978 64.761 102.978 64.9433Z" fill="#9C9C9C"/>
<path d="M116.74 69.7653C116.74 70.7517 116.616 71.6368 116.365 72.4144C116.115 73.1938 115.742 73.8532 115.248 74.3967C114.753 74.9384 114.14 75.3529 113.412 75.6395C112.683 75.9238 111.838 76.0674 110.881 76.0674C109.935 76.0674 109.111 75.9435 108.405 75.7029C107.702 75.4605 107.115 75.0912 106.645 74.5947C106.175 74.1 105.823 73.4675 105.588 72.6995C105.353 71.9347 105.236 71.0248 105.236 69.9778C105.236 69.0136 105.361 68.1482 105.611 67.3779C105.862 66.6099 106.234 65.9544 106.73 65.4145C107.224 64.8761 107.836 64.4598 108.566 64.1726C109.295 63.8853 110.142 63.7402 111.107 63.7402C112.027 63.7402 112.84 63.8605 113.543 64.1004C114.247 64.3384 114.837 64.7063 115.309 65.2028C115.782 65.6993 116.138 66.3274 116.379 67.083C116.621 67.8409 116.74 68.7359 116.74 69.7653ZM114.15 69.8933C114.15 69.2692 114.1 68.7001 113.999 68.1883C113.898 67.6769 113.729 67.2372 113.487 66.8731C113.247 66.5074 112.926 66.226 112.525 66.0251C112.124 65.8257 111.623 65.7273 111.022 65.7273C110.414 65.7273 109.908 65.8396 109.5 66.0631C109.093 66.2873 108.764 66.5865 108.515 66.9598C108.264 67.3331 108.088 67.7713 107.982 68.2696C107.88 68.7697 107.828 69.2987 107.828 69.8572C107.828 70.5079 107.878 71.0915 107.979 71.6095C108.078 72.1271 108.248 72.5704 108.486 72.9382C108.724 73.3057 109.043 73.5882 109.444 73.7814C109.845 73.9743 110.349 74.0698 110.956 74.0698C111.563 74.0698 112.07 73.9593 112.478 73.738C112.885 73.5171 113.214 73.2182 113.464 72.8384C113.714 72.4578 113.891 72.0145 113.995 71.5089C114.098 71.0033 114.15 70.4634 114.15 69.8933Z" fill="#9C9C9C"/>
<path d="M129.696 71.4198C129.696 72.1503 129.587 72.804 129.367 73.3796C129.147 73.9555 128.826 74.4433 128.401 74.8428C127.974 75.242 127.448 75.5442 126.822 75.7523C126.197 75.9597 125.476 76.0666 124.662 76.0666C123.898 76.0666 123.212 75.9714 122.606 75.7851C121.997 75.5981 121.484 75.3149 121.064 74.9347C120.644 74.5545 120.324 74.0798 120.102 73.5133C119.878 72.9461 119.77 72.2816 119.77 71.5211V64.2829C119.77 64.2227 119.787 64.167 119.825 64.1167C119.863 64.0671 119.93 64.0277 120.027 63.996C120.124 63.9654 120.251 63.9421 120.408 63.9246C120.564 63.9074 120.765 63.8965 121.009 63.8965C121.247 63.8965 121.443 63.9074 121.601 63.9246C121.757 63.9421 121.883 63.9654 121.976 63.996C122.07 64.0277 122.137 64.0671 122.18 64.1167C122.219 64.167 122.239 64.2227 122.239 64.2829V71.3115C122.239 71.7825 122.299 72.1904 122.418 72.5378C122.537 72.8838 122.707 73.1699 122.93 73.3963C123.151 73.6253 123.419 73.7944 123.728 73.9089C124.038 74.0215 124.384 74.0787 124.766 74.0787C125.154 74.0787 125.502 74.0208 125.809 73.9034C126.116 73.7875 126.375 73.6165 126.588 73.3938C126.801 73.1681 126.965 72.8918 127.081 72.5677C127.197 72.2378 127.255 71.8642 127.255 71.4479V64.2829C127.255 64.2227 127.274 64.167 127.311 64.1167C127.349 64.0671 127.415 64.0277 127.509 63.996C127.602 63.9654 127.73 63.9421 127.889 63.9246C128.048 63.9074 128.248 63.8965 128.485 63.8965C128.723 63.8965 128.918 63.9074 129.072 63.9246C129.225 63.9421 129.349 63.9654 129.444 63.996C129.537 64.0277 129.603 64.0671 129.641 64.1167C129.677 64.167 129.696 64.2227 129.696 64.2829V71.4198Z" fill="#9C9C9C"/>
<path d="M143.318 75.0055C143.318 75.1469 143.293 75.273 143.243 75.3839C143.194 75.4947 143.126 75.5855 143.041 75.6587C142.957 75.7324 142.857 75.787 142.74 75.8206C142.624 75.8552 142.507 75.8702 142.39 75.8702H141.336C141.116 75.8702 140.928 75.8501 140.768 75.8067C140.609 75.7633 140.462 75.6861 140.327 75.5723C140.193 75.4586 140.062 75.3051 139.938 75.113C139.813 74.9187 139.672 74.6675 139.516 74.3621L136.49 68.797C136.315 68.4653 136.137 68.1095 135.956 67.7257C135.774 67.3418 135.611 66.97 135.468 66.6076H135.448C135.473 67.0491 135.493 67.4898 135.504 67.9302C135.517 68.3665 135.524 68.8182 135.524 69.2855V75.5122C135.524 75.5745 135.505 75.6296 135.471 75.678C135.437 75.7265 135.378 75.7681 135.295 75.8016C135.208 75.8363 135.093 75.8618 134.951 75.8815C134.806 75.8975 134.622 75.9092 134.396 75.9092C134.177 75.9092 133.996 75.8975 133.852 75.8815C133.709 75.8618 133.595 75.8363 133.513 75.8016C133.432 75.7681 133.375 75.7265 133.344 75.678C133.314 75.6296 133.297 75.5745 133.297 75.5122V64.8141C133.297 64.5261 133.382 64.3099 133.556 64.1671C133.728 64.0227 133.939 63.9494 134.19 63.9494H135.513C135.751 63.9494 135.952 63.9691 136.115 64.0107C136.277 64.05 136.424 64.1153 136.553 64.2082C136.679 64.3001 136.8 64.4277 136.914 64.5899C137.026 64.7514 137.141 64.9508 137.262 65.1918L139.627 69.5429C139.765 69.8061 139.902 70.0671 140.036 70.3215C140.17 70.5742 140.301 70.8282 140.424 71.0841C140.552 71.3379 140.673 71.5857 140.791 71.8333C140.912 72.079 141.026 72.325 141.14 72.5689H141.148C141.129 72.1402 141.116 71.6929 141.106 71.2278C141.098 70.7615 141.091 70.315 141.091 69.8921V64.3092C141.091 64.2483 141.112 64.1922 141.148 64.1437C141.187 64.0949 141.247 64.0519 141.336 64.015C141.425 63.9775 141.54 63.9531 141.684 63.9359C141.828 63.9214 142.013 63.9141 142.238 63.9141C142.451 63.9141 142.629 63.9214 142.774 63.9359C142.918 63.9531 143.029 63.9775 143.107 64.015C143.186 64.0519 143.241 64.0949 143.271 64.1437C143.303 64.1922 143.318 64.2483 143.318 64.3092V75.0055H143.318Z" fill="#9C9C9C"/>
<path d="M157.027 69.7275C157.027 70.8171 156.881 71.7518 156.588 72.5282C156.297 73.3025 155.88 73.9357 155.333 74.4275C154.79 74.9189 154.128 75.2779 153.349 75.508C152.569 75.7373 151.641 75.8539 150.563 75.8539H147.661C147.455 75.8539 147.281 75.7927 147.142 75.6735C146.999 75.5524 146.93 75.3603 146.93 75.0891V64.714C146.93 64.4432 146.999 64.25 147.142 64.13C147.281 64.0105 147.454 63.9492 147.661 63.9492H150.78C151.864 63.9492 152.782 64.0746 153.537 64.3225C154.29 64.5715 154.927 64.9386 155.442 65.4278C155.959 65.9148 156.352 66.5174 156.622 67.2319C156.89 67.9515 157.027 68.7826 157.027 69.7275ZM154.472 69.8095C154.472 69.2459 154.403 68.7206 154.27 68.2365C154.133 67.7524 153.917 67.3318 153.621 66.9771C153.323 66.6205 152.941 66.3435 152.475 66.1448C152.009 65.9451 151.397 65.8466 150.639 65.8466H149.389V73.9379H150.677C151.352 73.9379 151.922 73.8541 152.386 73.6831C152.849 73.5103 153.235 73.2515 153.546 72.9055C153.856 72.5592 154.088 72.1262 154.24 71.614C154.395 71.0982 154.472 70.4963 154.472 69.8095Z" fill="#9C9C9C"/>
<path d="M169.519 74.9522C169.594 75.1734 169.64 75.3484 169.66 75.4775C169.679 75.6058 169.653 75.7017 169.584 75.7662C169.515 75.83 169.394 75.8693 169.218 75.8865C169.043 75.9 168.801 75.9098 168.494 75.9098C168.176 75.9098 167.925 75.9029 167.749 75.8949C167.57 75.8865 167.433 75.8675 167.34 75.8391C167.245 75.8121 167.18 75.7738 167.142 75.7246C167.104 75.675 167.073 75.6109 167.048 75.5321L166.231 73.1404H161.668L160.898 75.468C160.873 75.5526 160.84 75.6258 160.799 75.6831C160.757 75.7432 160.691 75.7877 160.602 75.8216C160.511 75.8562 160.382 75.8788 160.215 75.8901C160.05 75.9032 159.832 75.9102 159.563 75.9102C159.275 75.9102 159.05 75.8985 158.887 75.8825C158.724 75.8628 158.611 75.8172 158.548 75.7494C158.487 75.6776 158.464 75.5773 158.483 75.449C158.503 75.3207 158.548 75.1479 158.625 74.9347L162.373 64.3744C162.409 64.2709 162.452 64.1856 162.504 64.1207C162.552 64.0572 162.633 64.0084 162.743 63.9756C162.852 63.9402 163.005 63.9205 163.197 63.9103C163.391 63.9016 163.648 63.8965 163.968 63.8965C164.337 63.8965 164.63 63.9016 164.85 63.9103C165.07 63.9202 165.241 63.9402 165.363 63.9756C165.485 64.0088 165.572 64.0591 165.624 64.1254C165.679 64.1932 165.723 64.2847 165.761 64.4014L169.519 74.9522ZM163.94 66.2222H163.931L162.211 71.2816H165.659L163.94 66.2222Z" fill="#9C9C9C"/>
<path d="M178.764 64.9433C178.764 65.1216 178.756 65.2721 178.741 65.3983C178.725 65.5237 178.702 65.6268 178.67 65.7016C178.639 65.7788 178.6 65.8361 178.554 65.8714C178.506 65.9093 178.455 65.9265 178.398 65.9265H175.356V75.5218C175.356 75.582 175.334 75.637 175.295 75.6877C175.253 75.7351 175.186 75.7755 175.092 75.8062C174.997 75.8379 174.872 75.8612 174.711 75.8809C174.551 75.8969 174.353 75.9086 174.116 75.9086C173.876 75.9086 173.678 75.8969 173.519 75.8809C173.359 75.8612 173.232 75.8379 173.137 75.8062C173.044 75.7755 172.977 75.7351 172.936 75.6877C172.895 75.637 172.875 75.582 172.875 75.5218V65.9265H169.831C169.77 65.9265 169.717 65.909 169.672 65.8714C169.629 65.8361 169.59 65.7788 169.56 65.7016C169.528 65.6268 169.505 65.5237 169.489 65.3983C169.473 65.2721 169.465 65.1216 169.465 64.9433C169.465 64.761 169.473 64.6039 169.489 64.4738C169.505 64.3447 169.528 64.2427 169.56 64.1668C169.59 64.0885 169.629 64.0334 169.672 64.0021C169.716 63.966 169.77 63.9492 169.831 63.9492H178.397C178.455 63.9492 178.506 63.966 178.554 64.0021C178.6 64.0334 178.638 64.0885 178.67 64.1668C178.702 64.2427 178.724 64.3444 178.74 64.4738C178.756 64.6043 178.764 64.761 178.764 64.9433Z" fill="#9C9C9C"/>
<path d="M183.644 75.5234C183.644 75.5835 183.622 75.6386 183.582 75.6893C183.541 75.7367 183.475 75.7771 183.378 75.8077C183.286 75.8395 183.161 75.8628 183.004 75.8825C182.849 75.8985 182.648 75.9102 182.403 75.9102C182.165 75.9102 181.968 75.8985 181.808 75.8825C181.647 75.8628 181.521 75.8395 181.426 75.8077C181.332 75.7771 181.266 75.7367 181.225 75.6893C181.184 75.6386 181.164 75.5835 181.164 75.5234V64.2829C181.164 64.2227 181.184 64.167 181.225 64.1167C181.266 64.0671 181.334 64.0277 181.431 63.996C181.528 63.9654 181.655 63.9421 181.811 63.9246C181.968 63.9074 182.165 63.8965 182.403 63.8965C182.647 63.8965 182.848 63.9074 183.004 63.9246C183.161 63.9421 183.286 63.9654 183.378 63.996C183.474 64.0277 183.54 64.0671 183.582 64.1167C183.622 64.167 183.643 64.2227 183.643 64.2829V75.5234H183.644Z" fill="#9C9C9C"/>
<path d="M198.185 69.7653C198.185 70.7517 198.061 71.6368 197.81 72.4144C197.56 73.1938 197.186 73.8532 196.692 74.3967C196.199 74.9384 195.586 75.3529 194.856 75.6395C194.125 75.9238 193.282 76.0674 192.324 76.0674C191.379 76.0674 190.554 75.9435 189.851 75.7029C189.147 75.4605 188.558 75.0912 188.09 74.5947C187.62 74.1 187.267 73.4675 187.032 72.6995C186.798 71.9347 186.68 71.0248 186.68 69.9778C186.68 69.0136 186.805 68.1482 187.056 67.3779C187.307 66.6099 187.68 65.9544 188.174 65.4145C188.668 64.8761 189.28 64.4598 190.01 64.1726C190.739 63.8853 191.586 63.7402 192.55 63.7402C193.471 63.7402 194.283 63.8605 194.986 64.1004C195.691 64.3384 196.279 64.7063 196.753 65.2028C197.225 65.6993 197.583 66.3274 197.825 67.083C198.067 67.8409 198.185 68.7359 198.185 69.7653ZM195.593 69.8933C195.593 69.2692 195.544 68.7001 195.442 68.1883C195.343 67.6769 195.173 67.2372 194.931 66.8731C194.692 66.5074 194.371 66.226 193.969 66.0251C193.566 65.8257 193.068 65.7273 192.466 65.7273C191.859 65.7273 191.352 65.8396 190.944 66.0631C190.538 66.2873 190.208 66.5865 189.958 66.9598C189.708 67.3331 189.532 67.7713 189.43 68.2696C189.325 68.7697 189.273 69.2987 189.273 69.8572C189.273 70.5079 189.322 71.0915 189.424 71.6095C189.523 72.1271 189.692 72.5704 189.93 72.9382C190.168 73.3057 190.488 73.5882 190.889 73.7814C191.289 73.9743 191.794 74.0698 192.401 74.0698C193.008 74.0698 193.515 73.9593 193.922 73.738C194.329 73.5171 194.658 73.2182 194.908 72.8384C195.157 72.4578 195.335 72.0145 195.438 71.5089C195.542 71.0025 195.593 70.4634 195.593 69.8933Z" fill="#9C9C9C"/>
<path d="M211.243 75.0055C211.243 75.1469 211.217 75.273 211.169 75.3839C211.118 75.4947 211.051 75.5855 210.967 75.6587C210.883 75.7324 210.781 75.787 210.666 75.8206C210.551 75.8552 210.433 75.8702 210.314 75.8702H209.262C209.042 75.8702 208.855 75.8501 208.694 75.8067C208.534 75.7633 208.387 75.6861 208.252 75.5723C208.117 75.4586 207.987 75.3051 207.862 75.113C207.737 74.9187 207.597 74.6675 207.442 74.3621L204.416 68.797C204.241 68.4653 204.062 68.1095 203.88 67.7257C203.699 67.3418 203.536 66.97 203.392 66.6076H203.372C203.398 67.0491 203.418 67.4898 203.429 67.9302C203.442 68.3665 203.448 68.8182 203.448 69.2855V75.5122C203.448 75.5745 203.432 75.6296 203.397 75.678C203.362 75.7265 203.303 75.7681 203.217 75.8016C203.133 75.8363 203.02 75.8618 202.875 75.8815C202.731 75.8975 202.546 75.9092 202.321 75.9092C202.101 75.9092 201.92 75.8975 201.776 75.8815C201.633 75.8618 201.519 75.8363 201.439 75.8016C201.355 75.7681 201.3 75.7265 201.27 75.678C201.237 75.6296 201.223 75.5745 201.223 75.5122V64.8141C201.223 64.5261 201.308 64.3099 201.48 64.1671C201.652 64.0227 201.864 63.9494 202.114 63.9494H203.437C203.676 63.9494 203.876 63.9691 204.039 64.0107C204.202 64.05 204.348 64.1153 204.475 64.2082C204.603 64.3001 204.724 64.4277 204.838 64.5899C204.95 64.7514 205.067 64.9508 205.186 65.1918L207.551 69.5429C207.689 69.8061 207.826 70.0671 207.96 70.3215C208.095 70.5742 208.225 70.8282 208.35 71.0841C208.475 71.3379 208.598 71.5857 208.716 71.8333C208.835 72.079 208.95 72.325 209.063 72.5689H209.073C209.055 72.1402 209.039 71.6929 209.031 71.2278C209.022 70.7615 209.016 70.315 209.016 69.8921V64.3092C209.016 64.2483 209.036 64.1922 209.073 64.1437C209.109 64.0949 209.172 64.0519 209.261 64.015C209.349 63.9775 209.464 63.9531 209.608 63.9359C209.753 63.9214 209.937 63.9141 210.163 63.9141C210.375 63.9141 210.554 63.9214 210.697 63.9359C210.841 63.9531 210.953 63.9775 211.031 64.015C211.109 64.0519 211.165 64.0949 211.197 64.1437C211.227 64.1922 211.242 64.2483 211.242 64.3092V75.0055H211.243Z" fill="#9C9C9C"/>
<path d="M113.583 56.4774C113.583 56.7205 113.439 56.843 113.159 56.843H106.435C106.15 56.843 106.011 56.7205 106.011 56.4774V55.2336C106.011 54.9901 106.15 54.8676 106.435 54.8676H108.125L100.834 46.8558H100.763V54.8676H102.982C103.264 54.8676 103.405 54.9901 103.405 55.2336V56.4774C103.405 56.7205 103.264 56.843 102.982 56.843H95.6582C95.3731 56.843 95.2324 56.7205 95.2324 56.4774V55.2336C95.2324 54.9901 95.3731 54.8676 95.6582 54.8676H97.8756V38.0194H95.6582C95.3731 38.0194 95.2324 37.9028 95.2324 37.66V36.4191C95.2324 36.1752 95.3731 36.0527 95.6582 36.0527H102.982C103.264 36.0527 103.405 36.1752 103.405 36.4191V37.66C103.405 37.9031 103.264 38.0194 102.982 38.0194H100.763V46.4924H100.834L108.23 38.0194H106.505C106.221 38.0194 106.081 37.9028 106.081 37.66V36.4191C106.081 36.1752 106.221 36.0527 106.505 36.0527H112.947C113.232 36.0527 113.373 36.1752 113.373 36.4191V37.66C113.373 37.9031 113.232 38.0194 112.947 38.0194H111.363L103.684 46.5241L111.432 54.868H113.159C113.439 54.868 113.583 54.9904 113.583 55.234V56.4774Z" fill="#9C9C9C"/>
<path d="M120.786 57.0839C116.03 57.0839 113.986 53.7761 113.986 49.4377C113.986 45.2514 116.03 41.668 121.137 41.668C125.962 41.668 128.004 45.0086 128.004 49.2872C128.004 53.5296 125.928 57.0839 120.786 57.0839ZM125.117 49.2576C125.117 46.2816 124.167 43.5497 120.997 43.5497C117.828 43.5497 116.876 46.1613 116.876 49.1647C116.876 52.6216 117.79 55.2025 121.036 55.2025C124.167 55.2029 125.117 52.7433 125.117 49.2576Z" fill="#9C9C9C"/>
<path d="M136.654 54.9589C136.937 54.9589 137.077 55.0818 137.077 55.3245V56.4772C137.077 56.7204 136.937 56.8428 136.654 56.8428H130.666C130.384 56.8428 130.243 56.7204 130.243 56.4772V55.3245C130.243 55.0818 130.384 54.9589 130.666 54.9589H131.512V44.1551H129.046C128.799 44.1551 128.799 43.9426 128.799 43.7906V42.6408C128.799 42.4265 128.799 42.2752 129.046 42.2752H131.512V39.9075C131.512 37.6325 132.04 34.8711 136.406 34.8711C138.025 34.8711 139.15 35.2079 139.15 35.6651C139.15 35.7569 139.041 35.8776 138.971 36.0908L138.478 37.0926C138.409 37.1863 138.336 37.273 138.23 37.273C137.634 37.273 137.782 36.9001 136.301 36.9001C134.327 36.9001 134.186 38.1764 134.186 39.9334V42.2752H137.009C137.22 42.2752 137.392 42.3051 137.392 42.4837C137.392 42.549 137.357 42.6058 137.357 42.6999L136.898 43.8835C136.829 44.0315 136.654 44.1551 136.442 44.1551H134.186V54.9589H136.654Z" fill="#9C9C9C"/>
<path d="M147.606 56.4777C147.606 56.7208 147.467 56.8433 147.184 56.8433H140.597C140.315 56.8433 140.175 56.7208 140.175 56.4777V55.325C140.175 55.0822 140.315 54.9594 140.597 54.9594H142.004V44.1556H139.225C138.941 44.1556 138.801 44.032 138.801 43.7911V42.6413C138.801 42.3964 138.941 42.2757 139.225 42.2757H144.226C144.614 42.2757 144.684 42.4558 144.684 42.7281V54.9594H147.185C147.467 54.9594 147.607 55.0822 147.607 55.325V56.4777H147.606ZM143.113 39.6652C142.013 39.6652 141.137 38.8501 141.137 37.8181C141.133 36.7887 142.004 35.9619 143.098 35.959C144.191 35.9572 145.061 36.8043 145.069 37.8072C145.073 38.8108 144.204 39.6601 143.113 39.6652Z" fill="#9C9C9C"/>
<path d="M174.619 56.4774C174.619 56.7205 174.479 56.843 174.193 56.843H167.079C166.8 56.843 166.659 56.7205 166.659 56.4774V55.2336C166.659 54.9901 166.8 54.8676 167.079 54.8676H169.266L167.891 50.6506H160.671L159.328 54.8676H161.585C161.871 54.8676 162.006 54.9901 162.006 55.2336V56.4774C162.006 56.7205 161.871 56.843 161.585 56.843H154.504C154.226 56.843 154.082 56.7205 154.082 56.4774V55.2336C154.082 54.9901 154.227 54.8676 154.504 54.8676H156.23L162.783 36.3815C162.888 36.0844 162.923 36.0527 163.31 36.0527H165.388C165.673 36.0527 165.779 36.0527 165.917 36.3815L172.437 54.8676H174.193C174.479 54.8676 174.619 54.9901 174.619 55.2336V56.4774ZM165.104 41.819C164.791 40.8767 164.474 39.7871 164.299 38.9359H164.228C164.084 39.6649 163.736 41.0013 163.49 41.819L161.341 48.5268H167.226L165.104 41.819Z" fill="#9C9C9C"/>
<path d="M192.657 56.4776C192.657 56.7208 192.518 56.8433 192.235 56.8433H188.009C187.724 56.8433 187.587 56.7208 187.587 56.4776V46.3384C187.587 45.0363 187.198 43.884 185.299 43.884C183.007 43.884 181.568 45.0651 180.677 45.7322V54.9593H182.692C182.97 54.9593 183.111 55.0822 183.111 55.325V56.4776C183.111 56.7208 182.97 56.8433 182.692 56.8433H177.126C176.845 56.8433 176.702 56.7208 176.702 56.4776V55.325C176.702 55.0822 176.845 54.9593 177.126 54.9593H178.001V46.0675C178.001 44.9455 177.933 44.8241 177.794 44.1552H175.791C175.508 44.1552 175.369 44.0316 175.369 43.7906V42.6409C175.369 42.3959 175.508 42.2753 175.791 42.2753H179.309C180.081 42.2753 180.261 43.4578 180.401 43.9109C181.568 43.1217 183.394 41.8477 186.071 41.8477C189.984 41.8477 190.261 44.2212 190.261 46.3971V54.959H192.236C192.519 54.959 192.658 55.0818 192.658 55.3246V56.4776H192.657Z" fill="#9C9C9C"/>
<path d="M210.77 56.4776C210.77 56.7208 210.626 56.8433 210.347 56.8433H206.121C205.834 56.8433 205.695 56.7208 205.695 56.4776V46.3384C205.695 45.0363 205.305 43.884 203.407 43.884C201.12 43.884 199.676 45.0651 198.792 45.7322V54.9593H200.8C201.08 54.9593 201.225 55.0822 201.225 55.325V56.4776C201.225 56.7208 201.08 56.8433 200.8 56.8433H195.235C194.956 56.8433 194.81 56.7208 194.81 56.4776V55.325C194.81 55.0822 194.956 54.9593 195.235 54.9593H196.116V46.0675C196.116 44.9455 196.048 44.8241 195.905 44.1552H193.899C193.614 44.1552 193.477 44.0316 193.477 43.7906V42.6409C193.477 42.3959 193.614 42.2753 193.899 42.2753H197.417C198.193 42.2753 198.372 43.4578 198.513 43.9109C199.676 43.1217 201.506 41.8477 204.181 41.8477C208.092 41.8477 208.373 44.2212 208.373 46.3971V54.959H210.347C210.627 54.959 210.77 55.0818 210.77 55.3246V56.4776Z" fill="#9C9C9C"/>
<path d="M213.175 43.6412C213.103 43.4863 213.07 43.3973 213.07 43.2493C213.07 42.7276 216.306 41.8477 218.562 41.8477C222.612 41.8477 223.987 43.5497 223.987 46.096V51.9264C223.987 53.8384 224.09 54.1096 224.407 54.9586H225.522C225.804 54.9586 225.942 55.0815 225.942 55.3242V56.4769C225.942 56.72 225.803 56.8425 225.522 56.8425H223.07C222.189 56.8425 221.906 55.7172 221.731 55.2331C221.307 55.5681 219.583 57.2639 216.657 57.2639C213.875 57.2639 212.08 55.6837 212.08 52.9854C212.08 47.8571 219.123 47.7641 221.307 47.7065V46.6125C221.307 44.8573 220.675 43.8836 218.174 43.8836C215.817 43.8836 214.191 44.8573 213.875 44.8573C213.772 44.8573 213.666 44.7873 213.629 44.7002L213.175 43.6412ZM221.307 49.5893C219.759 49.617 214.762 49.617 214.762 52.8046C214.762 54.017 215.532 55.3833 217.296 55.3833C219.123 55.3833 220.746 53.9306 221.308 53.5019L221.307 49.5893Z" fill="#9C9C9C"/>
<path d="M244.33 56.4776C244.33 56.7208 244.189 56.8433 243.905 56.8433H239.678C239.399 56.8433 239.255 56.7208 239.255 56.4776V46.3384C239.255 45.0363 238.871 43.884 236.968 43.884C234.677 43.884 233.235 45.0651 232.355 45.7322V54.9593H234.363C234.64 54.9593 234.781 55.0822 234.781 55.325V56.4776C234.781 56.7208 234.64 56.8433 234.363 56.8433H228.797C228.512 56.8433 228.376 56.7208 228.376 56.4776V55.325C228.376 55.0822 228.512 54.9593 228.797 54.9593H229.679V46.0675C229.679 44.9455 229.605 44.8241 229.467 44.1552H227.459C227.177 44.1552 227.035 44.0316 227.035 43.7906V42.6409C227.035 42.3959 227.178 42.2753 227.459 42.2753H230.979C231.755 42.2753 231.932 43.4578 232.072 43.9109C233.235 43.1217 235.067 41.8477 237.744 41.8477C241.65 41.8477 241.934 44.2212 241.934 46.3971V54.959H243.906C244.189 54.959 244.33 55.0818 244.33 55.3246V56.4776H244.33Z" fill="#9C9C9C"/>
<path d="M30.0898 74.9356C30.092 74.9156 30.0917 74.9013 30.0906 74.8809C30.0884 73.8358 30.9272 72.9897 31.9721 72.9842C33.0177 72.9835 33.8678 73.8238 33.8711 74.8591C33.8714 74.8755 33.8758 74.8962 33.8736 74.9145C33.8777 75.956 33.0392 76.8035 31.9918 76.8104C31.8789 76.8119 31.771 76.8061 31.6621 76.7849C30.7762 76.6296 30.095 75.8677 30.0898 74.9356ZM30.5416 68.4753C30.5441 68.456 30.5463 68.437 30.5482 68.4213C30.7006 67.3846 31.6636 66.6748 32.6964 66.8279C33.7296 66.9869 34.4434 67.9409 34.2896 68.9711C34.287 68.9926 34.2855 69.0046 34.2826 69.0257C34.1295 70.0545 33.1705 70.7657 32.1351 70.614C32.1226 70.6126 32.1058 70.6104 32.0945 70.6089C31.085 70.4347 30.3921 69.4942 30.5416 68.4753ZM33.2308 64.5124C32.2367 64.1905 31.6928 63.1312 32.0141 62.1415C32.0229 62.1214 32.0258 62.1032 32.0305 62.0886C32.3573 61.0952 33.4237 60.5521 34.4142 60.8769C35.4072 61.1951 35.9492 62.2632 35.6305 63.2529C35.6232 63.2664 35.6129 63.2879 35.6111 63.3021C35.3195 64.2036 34.4069 64.734 33.4979 64.5787C33.4098 64.5642 33.3185 64.5445 33.2308 64.5124ZM35.3498 58.6867C34.4398 58.1782 34.1134 57.0299 34.6214 56.1208C34.632 56.1051 34.6397 56.0872 34.6514 56.0701C35.1616 55.1638 36.3136 54.8383 37.224 55.3468C38.134 55.8579 38.4571 57.0088 37.9494 57.9179C37.941 57.9307 37.9315 57.9427 37.9246 57.9606C37.5229 58.6754 36.7229 59.0316 35.9576 58.9018C35.75 58.8675 35.5424 58.7957 35.3498 58.6867ZM38.6161 53.4097C37.8592 52.6897 37.8314 51.4959 38.5499 50.7376C38.5642 50.7285 38.5784 50.7161 38.5927 50.7019C39.316 49.9506 40.5104 49.9236 41.2651 50.6436C42.0172 51.3668 42.0476 52.5611 41.3213 53.3091C41.3097 53.3204 41.298 53.3346 41.2885 53.3488C40.8364 53.8172 40.199 54.0053 39.6018 53.9029C39.2436 53.8439 38.8971 53.6787 38.6161 53.4097ZM60.422 43.0379C59.6629 42.3219 59.6263 41.1284 60.3401 40.3727C60.3511 40.3589 60.3664 40.3461 60.3737 40.333C61.0882 39.574 62.2863 39.5325 63.0468 40.2455C63.8103 40.9604 63.849 42.1473 63.1345 42.9107C63.1243 42.9263 63.11 42.9384 63.1002 42.9533C62.6463 43.4338 62.0059 43.6222 61.3992 43.5249C61.0477 43.4597 60.7063 43.3 60.422 43.0379ZM64.4232 38.2934C63.5095 37.7893 63.1758 36.6497 63.6809 35.7337C63.6864 35.7172 63.6952 35.7056 63.7047 35.6888C64.2058 34.7738 65.3548 34.4428 66.2707 34.943C67.1881 35.4424 67.5221 36.5921 67.0159 37.5064C67.0097 37.5213 66.9995 37.5363 66.9881 37.5527C66.5905 38.2723 65.7879 38.6321 65.0197 38.5027C64.8154 38.468 64.6133 38.401 64.4232 38.2934ZM67.1946 32.7514C66.1991 32.4324 65.6483 31.3698 65.9663 30.3786C65.9703 30.3673 65.978 30.3451 65.9794 30.3338L65.9801 30.3276C66.2981 29.3375 67.3591 28.7896 68.3561 29.0998C69.3513 29.4199 69.905 30.4767 69.5885 31.4722C69.579 31.4882 69.5743 31.5083 69.5684 31.5229C69.2771 32.4302 68.3656 32.9686 67.4541 32.813C67.3686 32.7995 67.2816 32.7732 67.1946 32.7514ZM67.2739 24.6506C67.2758 24.635 67.2787 24.6131 67.2809 24.5959C67.4274 23.5709 68.3821 22.8542 69.42 22.9989C70.4521 23.1433 71.1699 24.1002 71.0248 25.1293C71.0226 25.1489 71.0201 25.1672 71.0172 25.185C70.868 26.2145 69.9116 26.9355 68.8777 26.7868C68.8623 26.7821 68.8426 26.7824 68.8272 26.7781C67.8218 26.6104 67.1256 25.6633 67.2739 24.6506ZM67.6621 18.7608C67.6614 18.7397 67.6628 18.7247 67.6646 18.7083C67.6526 17.6657 68.4884 16.8109 69.5304 16.8029C70.5738 16.7905 71.4276 17.6256 71.4422 18.6689C71.4422 18.6832 71.4397 18.7028 71.4415 18.72C71.455 19.7604 70.6151 20.6137 69.5713 20.6272C69.458 20.6276 69.3451 20.6167 69.2347 20.5984C68.3495 20.4523 67.6694 19.6849 67.6621 18.7608Z" fill="#86939B"/>
<path d="M60.25 55.4793C60.2313 55.4764 60.2101 55.4717 60.1922 55.4695C59.1766 55.2223 58.5563 54.198 58.8045 53.1875C59.0541 52.1759 60.0756 51.5547 61.0887 51.8063C61.1023 51.8084 61.1213 51.8106 61.1388 51.8128L61.1385 51.8172C62.1523 52.0614 62.7787 53.081 62.5298 54.0941C62.2945 55.0645 61.3402 55.6784 60.3636 55.5052C60.3289 55.5008 60.2913 55.4903 60.25 55.4793ZM64.9116 54.3205C64.9003 53.279 65.7351 52.4274 66.7825 52.4187C66.7979 52.4143 66.8114 52.4158 66.8293 52.4158C67.8724 52.4015 68.7327 53.2374 68.7459 54.272C68.759 55.3186 67.9221 56.1723 66.8786 56.1858C66.8607 56.1873 66.841 56.1887 66.8227 56.1909C66.7036 56.1902 66.5866 56.1825 66.466 56.1545C65.5881 56.0014 64.9204 55.2446 64.9116 54.3205ZM15.321 45.1458C14.8039 44.2454 15.12 43.0924 16.0191 42.5714C16.0392 42.5623 16.0549 42.5528 16.0721 42.5474L16.0725 42.5426C16.9774 42.0243 18.1305 42.3425 18.6505 43.2425C19.1684 44.1495 18.8559 45.2996 17.9496 45.8191C17.9324 45.8271 17.921 45.8359 17.9057 45.8413C17.5029 46.0703 17.0545 46.1399 16.6327 46.0641C16.1013 45.9711 15.6131 45.6536 15.321 45.1458ZM71.1142 53.9957C70.9018 52.9739 71.5557 51.978 72.5779 51.7636C72.5929 51.7614 72.6126 51.7578 72.6265 51.7508C73.6462 51.5401 74.6524 52.1923 74.8687 53.2105C75.0825 54.2235 74.4294 55.2325 73.4068 55.4425C73.3907 55.4531 73.3703 55.4509 73.3538 55.4589C73.1086 55.5074 72.8633 55.5089 72.6357 55.4662C71.8956 55.3335 71.2743 54.7718 71.1142 53.9957ZM77.1479 52.5197C76.7659 51.55 77.2484 50.452 78.2213 50.0798C78.2351 50.0685 78.2538 50.0627 78.2691 50.0598C79.2395 49.6781 80.3403 50.1553 80.7142 51.122C81.0983 52.0946 80.6206 53.1868 79.6473 53.5662C79.6316 53.5739 79.6126 53.579 79.6002 53.5863C79.2625 53.7201 78.9084 53.7485 78.5754 53.6895C77.9545 53.5757 77.3949 53.1529 77.1479 52.5197ZM20.7988 42.2204C20.4216 41.2449 20.9066 40.156 21.8784 39.7784C21.8956 39.7722 21.9143 39.7718 21.9325 39.759C22.9062 39.385 24.0022 39.8684 24.3765 40.8417C24.7537 41.811 24.2676 42.9032 23.2906 43.2772C23.2764 43.2837 23.261 43.2918 23.2439 43.2976C22.9091 43.423 22.5604 43.4551 22.2315 43.3916C21.6058 43.2816 21.0473 42.8529 20.7988 42.2204ZM26.6615 40.1629C26.4535 39.1433 27.1088 38.1449 28.1318 37.9371C28.1519 37.9345 28.1701 37.9316 28.1892 37.9232C29.2088 37.718 30.2135 38.3782 30.4178 39.3974C30.6269 40.4174 29.9698 41.4133 28.9409 41.62C28.9278 41.6262 28.9113 41.6266 28.8931 41.6328C28.6508 41.6838 28.4136 41.6823 28.1829 41.6404C27.4414 41.5117 26.8197 40.942 26.6615 40.1629ZM82.8595 50.0864C82.3373 49.1827 82.6435 48.0337 83.551 47.5069C83.5656 47.504 83.5825 47.4883 83.596 47.4876C84.4965 46.9601 85.6558 47.2674 86.1799 48.1704C86.7044 49.0697 86.3966 50.2223 85.4928 50.7476C85.476 50.7549 85.4606 50.7655 85.4435 50.7746C85.044 51.0076 84.5882 51.0743 84.1665 51.001C83.6384 50.9066 83.149 50.5847 82.8595 50.0864ZM32.788 39.1342C32.7806 38.0894 33.6245 37.2383 34.6665 37.2324C34.6895 37.2353 34.7067 37.2335 34.7265 37.2361C35.7699 37.2284 36.6185 38.0668 36.6247 39.1116C36.6299 40.1564 35.782 41.0017 34.7414 41.0047C34.7268 41.0068 34.7093 41.0047 34.6917 41.0076C34.5766 41.0054 34.4571 40.9959 34.3464 40.9762C33.4656 40.8235 32.7964 40.0547 32.788 39.1342ZM40.4202 41.6623C40.4053 41.6605 40.3892 41.6586 40.3753 41.6521C39.3622 41.3936 38.7474 40.3729 38.9989 39.361C39.2536 38.3541 40.2821 37.7417 41.2963 37.9936C41.3127 37.9954 41.3336 38.0016 41.354 38.0092C42.3668 38.2648 42.9775 39.291 42.7206 40.2996C42.4757 41.2646 41.5229 41.8613 40.5577 41.6965C40.512 41.6863 40.4685 41.6714 40.4202 41.6623Z" fill="#86939B"/>
<path d="M64.6886 78.671C64.6703 78.6575 64.6549 78.6477 64.6396 78.6389C63.7369 78.1242 63.4211 76.9708 63.9401 76.0657C64.4591 75.158 65.6154 74.8517 66.5207 75.3672C66.5368 75.377 66.5496 75.3836 66.5653 75.3934C67.4753 75.9162 67.7845 77.0608 67.2685 77.9678C66.8639 78.6754 66.0617 79.0235 65.2986 78.8883C65.0891 78.8504 64.8801 78.7811 64.6886 78.671ZM59.3106 75.0377C59.2948 75.0278 59.2802 75.0129 59.263 75.0019C58.4491 74.352 58.3154 73.1701 58.9663 72.3532C59.6198 71.5359 60.8046 71.4014 61.6222 72.0521C61.6368 72.067 61.6493 72.0729 61.6657 72.0864L61.6653 72.0893C62.4804 72.7331 62.6163 73.9196 61.9661 74.7358C61.5191 75.2983 60.8167 75.5374 60.1574 75.4186C59.8584 75.3679 59.5646 75.2396 59.3106 75.0377ZM54.5539 70.5914C54.5392 70.5786 54.5246 70.5637 54.5151 70.5495C53.8152 69.7748 53.8839 68.5843 54.6588 67.8843C55.4369 67.191 56.6327 67.2522 57.33 68.0309C57.3425 68.0458 57.3531 68.0571 57.3637 68.0699L57.364 68.0655C58.061 68.8409 58.0007 70.0315 57.2248 70.7285C56.7749 71.1371 56.1802 71.2844 55.6258 71.1885C55.2282 71.1182 54.8452 70.9158 54.5539 70.5914ZM50.6348 65.3319C50.6235 65.314 50.6177 65.2976 50.6089 65.2779C50.0709 64.3866 50.3688 63.2303 51.2642 62.6963C52.1629 62.1673 53.3207 62.4608 53.8558 63.3557C53.8664 63.3706 53.8719 63.382 53.8836 63.3969C54.4172 64.2918 54.1259 65.4474 53.2286 65.9851C52.8219 66.225 52.3625 66.2968 51.9308 66.2221C51.41 66.1276 50.928 65.8174 50.6348 65.3319ZM47.9237 59.2572C47.9201 59.2379 47.9142 59.2146 47.9047 59.2003C47.6131 58.2001 48.185 57.1542 49.1872 56.8586C50.1908 56.5658 51.2393 57.1392 51.5354 58.1381C51.5401 58.1545 51.5431 58.1665 51.5511 58.1858C51.846 59.1825 51.2752 60.2342 50.2741 60.5269C49.9839 60.6122 49.6861 60.6279 49.4068 60.5801C48.7256 60.4576 48.1353 59.9677 47.9237 59.2572ZM49.9697 35.22C49.9638 35.2014 49.9631 35.1883 49.958 35.1686C49.6693 34.1709 50.2496 33.1275 51.2562 32.837C52.2627 32.5556 53.3054 33.1337 53.5938 34.1355C53.5985 34.153 53.6014 34.1709 53.608 34.1905C53.8931 35.1897 53.3112 36.236 52.3033 36.5177C52.0211 36.6027 51.7327 36.61 51.4597 36.5629C50.7723 36.4397 50.174 35.9367 49.9697 35.22ZM47.6902 29.9878C47.6854 29.9743 47.6752 29.959 47.6657 29.944C47.1347 29.0425 47.4391 27.8877 48.34 27.3595C49.2409 26.8338 50.4017 27.1375 50.9272 28.0306C50.94 28.047 50.9499 28.0656 50.9561 28.0813C51.482 28.9806 51.1823 30.1398 50.2811 30.6585C49.8776 30.8962 49.4237 30.9673 48.9968 30.8933C48.4694 30.7989 47.9851 30.4817 47.6902 29.9878ZM44.2532 25.2936C44.2375 25.2783 44.2306 25.2659 44.2174 25.2535C43.523 24.4745 43.591 23.2839 44.372 22.5891C45.1516 21.8991 46.346 21.9702 47.0426 22.7463C47.0546 22.7605 47.0678 22.7772 47.0784 22.7904C47.7764 23.5646 47.7026 24.7592 46.9198 25.4508C46.4735 25.847 45.8825 25.9968 45.3354 25.8977C44.9338 25.8208 44.5471 25.6221 44.2532 25.2936ZM39.9823 21.2484C39.9684 21.2327 39.9552 21.2283 39.9399 21.2156C39.1278 20.5627 38.9958 19.3739 39.6526 18.5628C40.3024 17.7488 41.4931 17.6234 42.3085 18.2734C42.3239 18.284 42.337 18.2938 42.3531 18.3098C43.1641 18.9613 43.2942 20.1478 42.6364 20.9578C42.1905 21.517 41.4939 21.7525 40.8338 21.6377C40.5316 21.5827 40.2359 21.4514 39.9823 21.2484ZM35.0987 17.9074C35.083 17.9034 35.0702 17.8932 35.0527 17.8822C34.1518 17.3595 33.8437 16.2083 34.3649 15.3061C34.8901 14.4024 36.0442 14.0958 36.9499 14.6174C36.9656 14.6236 36.9806 14.6353 36.9945 14.6477C37.8983 15.1697 38.2057 16.3249 37.6849 17.2221C37.2737 17.9271 36.4773 18.2705 35.7208 18.1392C35.5041 18.0991 35.2972 18.0204 35.0987 17.9074Z" fill="#86939B"/>
<path d="M58.0653 47.9005C57.3336 51.8215 53.5615 54.4032 49.6363 53.6755C45.7111 52.9494 43.1187 49.1859 43.85 45.2675C44.5759 41.3549 48.3527 38.7685 52.2747 39.4954C56.2025 40.2234 58.7944 43.9814 58.0653 47.9005Z" fill="#9C9C9C"/>
<path d="M18.0972 60.0406C18.2796 59.0203 19.2675 58.3338 20.2937 58.5205C20.3087 58.5227 20.3281 58.5249 20.3431 58.5271C21.3719 58.7122 22.0557 59.6896 21.8704 60.7172C21.6866 61.7474 20.7034 62.4247 19.6786 62.2417C19.6556 62.2388 19.6391 62.2366 19.6187 62.2297C19.6187 62.2297 19.6154 62.2289 19.6147 62.2289C18.5899 62.0386 17.9108 61.0661 18.0972 60.0406ZM30.4536 60.9399C30.3056 59.909 31.0256 58.9506 32.061 58.8056C32.0764 58.8012 32.0943 58.7997 32.1122 58.7979C33.1461 58.6506 34.1015 59.3648 34.2488 60.4004C34.3997 61.432 33.6783 62.3831 32.6465 62.5348C32.6264 62.5362 32.6085 62.5355 32.5895 62.5424C32.3826 62.5658 32.1772 62.5647 31.977 62.5268C31.2029 62.3824 30.5677 61.7601 30.4536 60.9399ZM36.5703 59.854C36.2271 58.8708 36.7457 57.7929 37.734 57.4539C37.7468 57.4462 37.7672 57.4382 37.7796 57.4345C38.765 57.0857 39.845 57.6062 40.1922 58.5857C40.5375 59.5725 40.0186 60.6468 39.0336 60.991C39.0164 61.0001 38.9989 61.0052 38.981 61.0117C38.6575 61.1222 38.329 61.1433 38.0136 61.0821C37.3692 60.9647 36.8053 60.5134 36.5703 59.854ZM42.3445 57.5552C41.7652 56.6909 41.9991 55.5174 42.8678 54.94C42.8784 54.9327 42.8934 54.9185 42.9069 54.9138C43.7731 54.3312 44.947 54.5591 45.5307 55.4227C46.1115 56.2884 45.8834 57.4611 45.0187 58.0429C45.0008 58.0502 44.9854 58.0623 44.9708 58.0743C44.5403 58.3561 44.0425 58.4494 43.5728 58.3597C43.0857 58.2715 42.6383 57.9959 42.3445 57.5552ZM56.3342 37.9099C55.7626 37.0387 56.0038 35.8722 56.8777 35.2977C56.893 35.2864 56.9062 35.2791 56.9274 35.2637C57.7991 34.6943 58.9708 34.9397 59.5431 35.808C60.114 36.6829 59.8684 37.8509 58.9953 38.4261C58.9814 38.4323 58.9664 38.4381 58.9558 38.4491C58.5271 38.7258 58.0344 38.8169 57.5692 38.7287C57.0813 38.6361 56.6303 38.355 56.3342 37.9099ZM61.7075 34.7971C61.3672 33.8125 61.8939 32.7401 62.8767 32.4029C62.8935 32.3912 62.9158 32.389 62.9304 32.385C63.9208 32.0482 64.9924 32.5749 65.3363 33.5592C65.67 34.5423 65.1412 35.6144 64.1544 35.9531C64.1383 35.9564 64.124 35.9622 64.1098 35.9684C63.7874 36.0785 63.4622 36.0964 63.1493 36.0388C62.5024 35.9206 61.9337 35.4642 61.7075 34.7971ZM67.6597 33.0306C67.5197 31.9975 68.2386 31.0479 69.2773 30.9061C69.2941 30.901 69.3138 30.9013 69.3347 30.8981C70.3671 30.7588 71.3185 31.4806 71.4621 32.5155C71.6017 33.5446 70.8741 34.4957 69.8423 34.6357C69.8244 34.6375 69.8069 34.6433 69.7875 34.6411C69.5817 34.6747 69.3833 34.6652 69.1855 34.6291C68.4071 34.4825 67.7704 33.857 67.6597 33.0306ZM80.0432 32.7809C80.2303 31.7558 81.2174 31.0796 82.2441 31.2684C82.2612 31.2706 82.2813 31.275 82.2956 31.2804C83.3251 31.4675 84.0024 32.4528 83.8098 33.479C83.6227 34.5011 82.6344 35.1752 81.6074 34.986C81.5906 34.9838 81.5723 34.9816 81.5581 34.9769C80.5303 34.7862 79.8524 33.8045 80.0432 32.7809Z" fill="#D0C6C4"/>
<path d="M46.0138 81.6892C45.2175 81.0148 45.1188 79.8308 45.7931 79.0292C45.8063 79.0172 45.8154 79.0066 45.8286 78.992C46.4999 78.2002 47.691 78.0978 48.4918 78.7649C49.2904 79.4411 49.3905 80.6302 48.718 81.43C48.7063 81.4384 48.6921 81.4526 48.6829 81.4705C48.2276 82.0038 47.5361 82.2244 46.8903 82.1048C46.5781 82.0443 46.2759 81.9072 46.0138 81.6892ZM52.9755 71.4694C52.0077 71.0765 51.5362 69.9785 51.9309 69.0117C51.9364 68.9946 51.943 68.9818 51.9474 68.9654L51.9496 68.9661C52.3395 67.9979 53.4404 67.5302 54.4081 67.9196C55.3763 68.3027 55.8445 69.4025 55.4571 70.3725C55.4498 70.386 55.4461 70.4083 55.4362 70.4239C55.0916 71.2704 54.2064 71.7348 53.3384 71.5744C53.22 71.5471 53.0968 71.5157 52.9755 71.4694ZM55.0989 65.6416C54.0715 65.4458 53.3969 64.4605 53.5917 63.4365C53.5939 63.4193 53.5957 63.4029 53.603 63.3836C53.796 62.3611 54.7842 61.69 55.8105 61.8784C56.8324 62.0749 57.5107 63.0581 57.3177 64.0813C57.3152 64.1029 57.3119 64.1178 57.3089 64.1419C57.1138 65.1622 56.1277 65.8271 55.1073 65.6419C55.1029 65.6419 55.0996 65.6412 55.0996 65.6412H55.0989V65.6416ZM53.9827 57.745C53.9798 57.73 53.982 57.7107 53.9776 57.6943C53.9089 56.6539 54.6954 55.7564 55.7374 55.6864C56.7775 55.6161 57.6788 56.4005 57.7501 57.438C57.7526 57.4595 57.7512 57.4836 57.7567 57.5014C57.8254 58.5404 57.0345 59.4386 55.991 59.5079C55.831 59.513 55.6742 59.5064 55.5214 59.4751C54.6892 59.3212 54.0376 58.6217 53.9827 57.745ZM43.9332 35.8126C43.9343 35.7907 43.9299 35.7714 43.9288 35.7532C43.8703 34.7084 44.6693 33.8229 45.712 33.7642C46.7547 33.7041 47.6468 34.497 47.7049 35.541C47.7071 35.5581 47.7049 35.5742 47.7053 35.5942C47.7689 36.6288 46.9732 37.5248 45.9283 37.5839C45.7726 37.5915 45.6188 37.5824 45.4718 37.5547C44.6378 37.3994 43.9818 36.6973 43.9332 35.8126ZM45.9122 31.3875C44.8893 31.1906 44.2168 30.1976 44.4185 29.1776C44.4229 29.1601 44.4284 29.1394 44.431 29.1193L44.4317 29.1197C44.6309 28.0957 45.6257 27.4286 46.6498 27.6298C47.6746 27.8347 48.3408 28.8233 48.1406 29.8462C48.1387 29.8622 48.1325 29.8816 48.1303 29.898C47.9304 30.9136 46.9484 31.5803 45.9298 31.3955C45.9207 31.3944 45.9166 31.3882 45.9122 31.3875ZM47.3519 25.3591C46.3888 24.9654 45.9221 23.8663 46.3183 22.9029C46.3267 22.8817 46.3318 22.8693 46.3377 22.8504C46.736 21.884 47.8405 21.4232 48.8087 21.8184C49.775 22.2153 50.2326 23.3224 49.8382 24.2855C49.8324 24.2976 49.8218 24.3133 49.8196 24.3297C49.4731 25.175 48.5886 25.6329 47.7239 25.4703C47.6 25.4459 47.4769 25.4101 47.3519 25.3591ZM49.896 19.7095C49.0097 19.158 48.7378 17.9995 49.2896 17.1115C49.2969 17.0925 49.3057 17.0797 49.3185 17.0644C49.8667 16.1797 51.0341 15.9052 51.9214 16.4557C52.8092 17.0072 53.0818 18.1661 52.5281 19.0555C52.5201 19.0705 52.508 19.0854 52.5 19.0978C52.0782 19.7766 51.2899 20.0999 50.545 19.9592C50.3236 19.9158 50.1061 19.8349 49.896 19.7095ZM53.3278 14.5429C52.5325 13.8671 52.44 12.6736 53.1154 11.8818C53.1264 11.8658 53.1418 11.8541 53.1553 11.8388C53.8325 11.0477 55.0258 10.9555 55.8185 11.6339C56.6142 12.3105 56.7074 13.5003 56.0279 14.2907C56.0133 14.3056 56.0082 14.3191 55.994 14.3333C55.5389 14.8615 54.8551 15.0803 54.2093 14.9629C53.8947 14.9016 53.5887 14.7642 53.3278 14.5429Z" fill="#D0C6C4"/>
<path d="M76.3671 67.2509C76.3602 67.2381 76.3551 67.2195 76.3521 67.2031C75.9936 66.2247 76.5078 65.142 77.4866 64.7895C78.4705 64.4341 79.5519 64.9455 79.9079 65.9243C79.9156 65.9429 79.9152 65.9549 79.928 65.9764C80.2766 66.9574 79.769 68.0346 78.7851 68.3886C78.4569 68.5038 78.1214 68.5275 77.802 68.4699C77.1628 68.3518 76.6003 67.9074 76.3671 67.2509ZM70.7348 56.9399C70.7253 56.9264 70.7128 56.9129 70.7041 56.898C70.059 56.0836 70.2015 54.896 71.0246 54.2507C71.8458 53.6091 73.0351 53.7553 73.6779 54.5712C73.6911 54.5861 73.701 54.604 73.7152 54.6167C74.3555 55.4391 74.2104 56.6231 73.3918 57.2662C72.9437 57.6143 72.3991 57.727 71.8802 57.6344C71.4452 57.5553 71.0308 57.3187 70.7348 56.9399ZM66.7277 52.7149C66.7119 52.7036 66.6995 52.6927 66.6882 52.6799C65.8966 52.0092 65.8052 50.8139 66.4842 50.0294C67.1655 49.2354 68.3577 49.1406 69.1497 49.8223C69.1654 49.8344 69.1753 49.8446 69.1954 49.8581C69.9837 50.5386 70.074 51.727 69.3898 52.5195C68.9351 53.0448 68.2517 53.2621 67.6117 53.144C67.2956 53.0802 66.9882 52.9406 66.7277 52.7149ZM37.9075 47.2476C37.8922 47.2341 37.8735 47.2276 37.8534 47.2206C36.9251 46.7486 36.5468 45.6141 37.0209 44.686C37.4898 43.7521 38.6297 43.3824 39.5606 43.8538C39.5741 43.8621 39.5905 43.8672 39.6037 43.876C40.5349 44.3422 40.9132 45.4778 40.4454 46.4059C40.0587 47.1729 39.2192 47.5615 38.4104 47.4098C38.2397 47.3858 38.0702 47.3274 37.9075 47.2476ZM61.9805 49.5311C61.9651 49.526 61.949 49.5212 61.9348 49.5117V49.5096C60.9959 49.0524 60.6143 47.9213 61.0704 46.9862C61.5298 46.0497 62.6632 45.6626 63.5999 46.127C63.6196 46.1343 63.6379 46.1423 63.6536 46.1514C64.5896 46.6144 64.9726 47.7434 64.5096 48.6795C64.128 49.452 63.2819 49.8464 62.472 49.694C62.3032 49.6649 62.138 49.6087 61.9805 49.5311ZM32.3906 43.5089C32.3764 43.4983 32.3632 43.4838 32.3464 43.4725C31.5621 42.7875 31.4828 41.5925 32.167 40.8044C32.8555 40.0279 34.0499 39.9463 34.8328 40.6302C34.8459 40.6418 34.8616 40.6517 34.8741 40.6633C35.6587 41.3436 35.7446 42.5411 35.0583 43.3252C34.5999 43.8476 33.9209 44.0586 33.2864 43.942C32.9615 43.8804 32.653 43.7382 32.3906 43.5089ZM27.8912 38.7273C27.8817 38.7163 27.8678 38.7007 27.8605 38.6868C27.2191 37.8608 27.3733 36.6757 28.1986 36.0392C29.0238 35.4042 30.212 35.5576 30.8531 36.3775C30.8615 36.3913 30.8713 36.4055 30.8819 36.4165C31.5226 37.2414 31.3717 38.4251 30.5435 39.067C30.0998 39.4104 29.5538 39.5216 29.0425 39.4272C28.6021 39.3488 28.1895 39.1111 27.8912 38.7273ZM21.7216 27.3461C21.7179 27.3326 21.7084 27.3136 21.7044 27.2939C21.3565 26.3151 21.8711 25.2376 22.8571 24.8873C23.8406 24.5413 24.9221 25.0538 25.2693 26.0377C25.2755 26.0523 25.2828 26.0702 25.2861 26.0855C25.6359 27.0639 25.1231 28.1466 24.1381 28.4976C23.8129 28.6117 23.4781 28.6307 23.1623 28.5709C22.5198 28.4539 21.9559 28.0077 21.7216 27.3461Z" fill="#D0C6C4"/>
<path d="M34.4925 78.0296C33.9717 77.1219 34.2761 75.9733 35.1777 75.4502C35.1931 75.4396 35.2077 75.4338 35.2231 75.4217L35.2223 75.4283C36.1254 74.8986 37.2825 75.2041 37.8095 76.1045C38.3322 77.0082 38.027 78.1601 37.1224 78.6847C37.1067 78.6953 37.091 78.7055 37.076 78.7117C36.6696 78.9461 36.212 79.0135 35.7837 78.9344C35.2578 78.8363 34.7786 78.5199 34.4925 78.0296ZM39.7747 74.7721C39.1212 73.9563 39.2488 72.7672 40.0649 72.1172C40.0784 72.1088 40.0934 72.0902 40.1055 72.0822C40.9179 71.4286 42.1083 71.5595 42.7632 72.3713C43.4189 73.1787 43.2917 74.3686 42.4752 75.0215C42.4624 75.035 42.4486 75.0455 42.4325 75.0565C41.9866 75.4137 41.4245 75.5398 40.9037 75.4396C40.4706 75.3616 40.0689 75.1312 39.7747 74.7721ZM44.4978 70.7403C43.7157 70.047 43.647 68.8542 44.3388 68.0767C44.352 68.0646 44.3644 68.0504 44.3761 68.0377C45.0668 67.2594 46.2671 67.1861 47.0426 67.8787C47.8269 68.5681 47.8978 69.7641 47.2012 70.5417C47.1899 70.5566 47.1789 70.5716 47.1658 70.5821C46.7078 71.0939 46.0368 71.2984 45.4071 71.1811C45.08 71.1246 44.762 70.9736 44.4978 70.7403ZM48.464 65.9671C47.562 65.4374 47.2601 64.2826 47.7908 63.384C47.7992 63.3741 47.8068 63.3563 47.8156 63.345H47.8145C48.3401 62.442 49.4986 62.1409 50.4025 62.6651C51.3034 63.1911 51.6052 64.3482 51.079 65.2446C51.0684 65.2617 51.0618 65.2803 51.049 65.2938C50.6375 66.0006 49.8334 66.336 49.075 66.1953C48.8645 66.1563 48.6613 66.0768 48.464 65.9671ZM51.3768 60.4899C50.375 60.2001 49.7899 59.1594 50.0812 58.1569C50.083 58.1412 50.0889 58.1284 50.0907 58.112C50.375 57.1118 51.4221 56.5256 52.4301 56.8085C53.4326 57.0939 54.0152 58.1376 53.7305 59.1368C53.7261 59.1575 53.7221 59.1787 53.7126 59.1944C53.4432 60.1378 52.4992 60.7065 51.5559 60.5293C51.4923 60.5198 51.4342 60.5049 51.3768 60.4899ZM49.3089 36.4666C48.305 36.1724 47.7297 35.1225 48.0236 34.1255C48.0279 34.108 48.0342 34.0861 48.0429 34.0712C48.3364 33.0731 49.3901 32.4989 50.3911 32.7964C51.3925 33.0913 51.9645 34.1415 51.6663 35.1393C51.6641 35.1568 51.6557 35.1739 51.6535 35.1881C51.3775 36.1257 50.4405 36.6878 49.4957 36.5107C49.4321 36.5001 49.3682 36.4833 49.3089 36.4666ZM51.3823 30.6267C50.4854 30.0952 50.1883 28.9349 50.7208 28.0428C50.7354 28.0246 50.7456 28.0118 50.7511 27.9925C51.2854 27.0965 52.4469 26.8052 53.346 27.336C54.2414 27.8755 54.5345 29.0311 53.9988 29.9268C53.9893 29.9362 53.9812 29.9545 53.9735 29.9647C53.5576 30.6653 52.7612 31.0018 52.0025 30.8629C51.7913 30.8188 51.5789 30.7415 51.3823 30.6267ZM54.7747 25.4346C53.9962 24.7401 53.9304 23.5506 54.6303 22.7713C54.6431 22.7603 54.653 22.745 54.6687 22.7326C55.3653 21.9583 56.5626 21.8916 57.3363 22.5937C58.1122 23.2856 58.1776 24.4809 57.4777 25.2563C57.4679 25.268 57.4569 25.2789 57.4441 25.2942C56.9869 25.8017 56.3148 26.0036 55.6906 25.8873C55.3598 25.8246 55.0451 25.6777 54.7747 25.4346ZM59.0785 20.973C58.4291 20.1561 58.5614 18.9691 59.3771 18.3199C59.3925 18.3057 59.4078 18.2958 59.4232 18.2845C60.2393 17.6353 61.4293 17.772 62.0769 18.5867C62.7322 19.4055 62.5948 20.5888 61.7743 21.2387C61.7619 21.246 61.7484 21.2562 61.7345 21.2672C61.293 21.6241 60.7301 21.7433 60.2112 21.6499C59.7795 21.5701 59.3746 21.3386 59.0785 20.973ZM64.0538 17.2544C63.5326 16.3525 63.8484 15.1987 64.7497 14.6822C64.7698 14.6698 64.7844 14.6625 64.8027 14.6508C65.7054 14.1397 66.8614 14.447 67.3826 15.3529C67.8993 16.2566 67.5817 17.4085 66.6794 17.924C66.667 17.9317 66.6501 17.9426 66.6319 17.9543C66.2317 18.1836 65.7734 18.2506 65.3494 18.1712C64.8224 18.0731 64.3418 17.7556 64.0538 17.2544Z" fill="#9C9C9C"/>
<path d="M67.9486 74.6179C67.949 74.6022 67.9468 74.5873 67.9494 74.5672C67.9439 73.5276 68.7903 72.6811 69.8312 72.6775C70.875 72.6753 71.7251 73.517 71.728 74.5585C71.7288 74.5785 71.7269 74.5942 71.7284 74.6132C71.7299 75.6554 70.8845 76.5029 69.84 76.5048C69.7216 76.5004 69.605 76.4913 69.4895 76.472C68.6123 76.3046 67.9461 75.5387 67.9486 74.6179ZM67.4921 68.7328C67.4921 68.7142 67.4881 68.7007 67.4867 68.68C67.3247 67.6512 68.0294 66.6885 69.0597 66.5307C70.0954 66.3677 71.0614 67.0731 71.2233 68.1033C71.227 68.1197 71.2295 68.1383 71.2324 68.1547C71.3914 69.1849 70.6828 70.1476 69.6539 70.3062C69.4347 70.3441 69.2238 70.3361 69.0144 70.3018C68.2498 70.1596 67.6208 69.5457 67.4921 68.7328ZM66.1209 63.022C66.119 63.0027 66.1128 62.987 66.1062 62.9699C65.7777 61.9823 66.3113 60.9171 67.305 60.5869C68.2947 60.2544 69.3638 60.7917 69.6941 61.7793C69.6993 61.7979 69.708 61.815 69.7121 61.8314C70.0432 62.8204 69.5056 63.8892 68.5115 64.2173C68.2019 64.3176 67.877 64.3361 67.5736 64.2793C66.9202 64.159 66.3497 63.6949 66.1209 63.022ZM63.7727 57.6976C63.7643 57.6833 63.7584 57.6647 63.75 57.6498L63.7496 57.6549C63.2296 56.7443 63.5464 55.5967 64.4525 55.0791C65.3621 54.5636 66.5119 54.879 67.0302 55.7819C67.043 55.7983 67.0503 55.8176 67.0601 55.8359C67.5773 56.7374 67.2612 57.8878 66.3497 58.4055C65.9495 58.6333 65.4963 58.7011 65.0756 58.6184C64.5449 58.5207 64.0603 58.2003 63.7727 57.6976ZM60.3788 53.1048C60.366 53.092 60.3536 53.0821 60.3412 53.0705C59.6176 52.325 59.6329 51.1319 60.3796 50.4035C61.1292 49.6766 62.3294 49.6916 63.0516 50.4407C63.0666 50.4557 63.0783 50.4713 63.0991 50.4848C63.8198 51.231 63.8026 52.4256 63.0509 53.1492C62.5936 53.5914 61.9712 53.7595 61.3883 53.649C61.0155 53.5746 60.6606 53.3975 60.3788 53.1048ZM38.49 42.8693C38.475 42.8558 38.4622 42.8405 38.4513 42.8248C37.7294 42.0677 37.7609 40.8825 38.5225 40.1633C39.2761 39.4437 40.4749 39.4751 41.1931 40.2304C41.2033 40.2421 41.2132 40.2534 41.2245 40.2672C41.9456 41.0189 41.9204 42.2131 41.162 42.9316C40.7059 43.3643 40.0868 43.5295 39.5086 43.4226C39.1329 43.353 38.7754 43.1675 38.49 42.8693ZM34.5575 37.4996C34.5494 37.4818 34.541 37.4625 34.5268 37.4471C34.0202 36.5369 34.3458 35.3875 35.2588 34.8837C36.1699 34.3759 37.3223 34.6974 37.8318 35.6084C37.8383 35.6245 37.8468 35.6372 37.853 35.6522C38.3672 36.5606 38.0397 37.7082 37.1304 38.2218C36.7295 38.4416 36.2814 38.5098 35.8633 38.4285C35.3319 38.333 34.8407 38.0038 34.5575 37.4996ZM31.9341 31.4877C31.9311 31.4691 31.9238 31.4512 31.9169 31.4345C31.5956 30.4415 32.1362 29.3792 33.1336 29.0588C34.1244 28.7351 35.1912 29.2771 35.5121 30.2672C35.5187 30.2833 35.5238 30.2997 35.5318 30.3157C35.8534 31.3087 35.3122 32.3677 34.3192 32.6969C34.0107 32.7982 33.6916 32.808 33.3908 32.7552C32.7304 32.6363 32.1577 32.1661 31.9341 31.4877ZM30.444 25.1579C30.4367 25.1371 30.4382 25.1189 30.433 25.0999C30.2773 24.0737 30.9929 23.1106 32.0258 22.9586C33.0568 22.8019 34.0191 23.5123 34.17 24.5465C34.177 24.5633 34.1806 24.5764 34.181 24.5947C34.3367 25.6238 33.6251 26.5898 32.5923 26.7447C32.3785 26.7761 32.1687 26.768 31.9666 26.7305C31.198 26.5941 30.5661 25.9733 30.444 25.1579ZM29.9729 18.6975C29.9718 18.6822 29.9692 18.6615 29.9718 18.6429C29.9729 17.601 30.8256 16.7629 31.8712 16.7637C32.9117 16.7699 33.7571 17.6167 33.7523 18.6582C33.7519 18.6731 33.7501 18.6895 33.7527 18.7059C33.7519 19.7489 32.9026 20.592 31.8577 20.5888C31.7414 20.5891 31.6238 20.5778 31.5149 20.5567C30.6322 20.3915 29.97 19.6216 29.9729 18.6975Z" fill="#9C9C9C"/>
<path d="M28.1587 55.4467C28.1394 55.4438 28.1222 55.4369 28.1013 55.4339C27.0784 55.2152 26.4282 54.2157 26.6453 53.1982C26.8605 52.1786 27.8638 51.5294 28.886 51.7452C28.9036 51.7474 28.9193 51.7496 28.9379 51.7558C29.9587 51.9745 30.6136 52.9697 30.394 53.9915C30.1849 54.994 29.2113 55.6417 28.204 55.4555C28.1869 55.4533 28.1719 55.4518 28.1587 55.4467ZM32.7652 54.2714C32.7802 53.2311 33.6394 52.401 34.6843 52.4116C34.7004 52.4138 34.7132 52.4152 34.7333 52.4152C35.7764 52.428 36.613 53.281 36.6005 54.3276C36.5859 55.368 35.7296 56.2002 34.6847 56.1882C34.6672 56.186 34.65 56.1845 34.6277 56.1853C34.5184 56.1845 34.4117 56.174 34.3079 56.1561C33.4176 55.9888 32.751 55.2039 32.7652 54.2714ZM21.912 53.5701C21.8966 53.5686 21.8773 53.5595 21.8615 53.5522C20.8883 53.1713 20.4106 52.0769 20.7932 51.1087C21.1766 50.1376 22.2749 49.6619 23.2449 50.0435C23.2639 50.0494 23.2767 50.0578 23.2946 50.0621C24.2653 50.4431 24.7448 51.5374 24.3621 52.5056C24.0255 53.3594 23.1327 53.8322 22.2603 53.6718C22.1444 53.6528 22.0242 53.6156 21.912 53.5701ZM38.9783 54.0954C38.7349 53.0801 39.361 52.0649 40.3748 51.8228C40.3916 51.8163 40.407 51.8137 40.4212 51.8108C41.4391 51.5644 42.461 52.1866 42.7055 53.2001C42.9533 54.2098 42.3298 55.2291 41.3163 55.4748C41.2969 55.4792 41.2808 55.4846 41.2586 55.4926C40.9914 55.551 40.729 55.5561 40.4691 55.5105C39.7608 55.3785 39.1574 54.8438 38.9783 54.0954ZM16.0665 50.7522C16.0515 50.7416 16.0373 50.73 16.0186 50.7238C15.1174 50.2003 14.8107 49.0462 15.3323 48.145C15.8615 47.2443 17.0182 46.9377 17.921 47.4615C17.9374 47.4728 17.9498 47.4823 17.9666 47.4892C18.8679 48.0153 19.1753 49.1661 18.6545 50.065C18.2389 50.7748 17.4367 51.1189 16.6692 50.9735C16.4631 50.9377 16.2584 50.8608 16.0665 50.7522ZM58.8026 40.3323C58.5501 39.321 59.1611 38.2963 60.1731 38.0444C60.1907 38.0371 60.2119 38.032 60.2309 38.0291C61.2414 37.778 62.2673 38.3871 62.5268 39.3965C62.7779 40.4074 62.1606 41.4346 61.146 41.6854C61.1321 41.6927 61.1132 41.7 61.1018 41.6986C60.8292 41.7685 60.5536 41.7736 60.2923 41.7248C59.5898 41.595 58.9905 41.0679 58.8026 40.3323ZM83.6101 45.9101C83.5944 45.898 83.5787 45.8907 83.5659 45.8809C82.6595 45.3614 82.346 44.2106 82.8679 43.3022C83.3857 42.4043 84.5407 42.0901 85.4478 42.6092C85.4631 42.6179 85.4814 42.6321 85.4957 42.638C86.402 43.1552 86.7105 44.3094 86.1901 45.2112C85.7789 45.9261 84.9737 46.2724 84.2073 46.128C84.003 46.0861 83.7995 46.0198 83.6101 45.9101ZM78.2712 43.3499C78.2563 43.343 78.2398 43.3382 78.2237 43.3361C77.2505 42.954 76.7658 41.8659 77.143 40.894C77.522 39.9214 78.6155 39.4435 79.5888 39.8157C79.6078 39.823 79.6246 39.8288 79.6403 39.8394C80.6154 40.2112 81.1 41.3056 80.7174 42.28C80.3852 43.1363 79.489 43.6113 78.6152 43.4498C78.4982 43.4297 78.3845 43.3958 78.2712 43.3499ZM64.9021 39.1537C64.9072 38.1119 65.7602 37.2709 66.8 37.2756C66.8215 37.2756 66.8395 37.2745 66.8588 37.2771C67.9008 37.2851 68.7418 38.1337 68.7315 39.1741C68.7264 40.2167 67.873 41.0595 66.8318 41.0457C66.8168 41.0438 66.7989 41.0486 66.7802 41.0479L66.7806 41.046C66.668 41.0464 66.5544 41.0366 66.4436 41.0147C65.5636 40.851 64.8962 40.0815 64.9021 39.1537ZM72.6279 41.6814C72.6104 41.6741 72.595 41.6727 72.5789 41.6708V41.6687C71.5538 41.4591 70.8926 40.4628 71.1046 39.4446C71.3155 38.4254 72.314 37.7685 73.338 37.9737C73.3552 37.9781 73.3724 37.9803 73.3918 37.9861C74.4133 38.195 75.0718 39.1924 74.8628 40.2134C74.6534 41.221 73.6757 41.8703 72.6666 41.6862C72.6531 41.6847 72.6389 41.6829 72.6279 41.6814Z" fill="#9C9C9C"/>
<path d="M52.9285 81.4728C52.9135 81.4637 52.9026 81.4451 52.8883 81.4345H52.8876C52.2173 80.6358 52.32 79.4489 53.1219 78.7752C53.9193 78.1096 55.1123 78.212 55.7866 79.0074C55.7924 79.0246 55.8081 79.0351 55.818 79.0486C56.4908 79.8455 56.3896 81.035 55.5877 81.7028C55.1499 82.0732 54.5885 82.2063 54.0644 82.1235C53.6332 82.0539 53.2271 81.8359 52.9285 81.4728ZM49.1272 76.2198C49.1173 76.2056 49.1075 76.1878 49.0961 76.1779C48.5563 75.2837 48.8388 74.1267 49.7335 73.585C50.6235 73.044 51.7897 73.325 52.3295 74.2138C52.3383 74.2302 52.3511 74.2459 52.3562 74.2593C52.8986 75.1492 52.6186 76.3084 51.7301 76.849C51.3266 77.0955 50.8683 77.1716 50.433 77.1009C49.9108 77.0178 49.428 76.7116 49.1272 76.2198ZM46.1983 70.4142C46.1906 70.3927 46.1858 70.3763 46.1807 70.3614C45.7915 69.3917 46.2637 68.2952 47.2337 67.9091C48.2044 67.5245 49.3026 67.9988 49.6897 68.9623C49.6966 68.9816 49.6992 68.9936 49.7094 69.0122C50.0979 69.9764 49.6272 71.0769 48.6546 71.4644C48.322 71.596 47.9781 71.6274 47.6521 71.5734C47.0184 71.4674 46.4534 71.0492 46.1983 70.4142ZM44.3431 64.1223C44.3409 64.1066 44.3372 64.0851 44.335 64.0684C44.1432 63.0418 44.8233 62.059 45.85 61.8713C46.8737 61.6832 47.8601 62.3576 48.0534 63.3794C48.0531 63.3965 48.0611 63.4166 48.0618 63.4293C48.2548 64.4544 47.5772 65.4394 46.5513 65.6329C46.3309 65.6694 46.1094 65.6741 45.8982 65.6395C45.1329 65.5159 44.4951 64.9246 44.3431 64.1223ZM43.9147 57.4852C43.9126 57.4626 43.9147 57.4447 43.9169 57.4261C43.9922 56.3857 44.8942 55.6063 45.9351 55.676C46.9811 55.7492 47.761 56.65 47.6883 57.69C47.6861 57.7079 47.6861 57.7207 47.6883 57.7363C47.6159 58.7738 46.7136 59.5619 45.6745 59.4912C45.6128 59.4854 45.5506 59.4777 45.4925 59.4704C44.5415 59.3151 43.8468 58.457 43.9147 57.4852ZM54.0231 35.6024C54.025 35.5852 54.0279 35.5634 54.0283 35.5491C54.0867 34.5146 54.9807 33.7166 56.0249 33.7786C57.0668 33.8398 57.8618 34.7319 57.8047 35.7682C57.8022 35.7908 57.7996 35.8094 57.7971 35.8291C57.736 36.8673 56.837 37.6616 55.7975 37.5953C55.7292 37.5917 55.6674 37.5884 55.6024 37.5763C54.6569 37.4221 53.9669 36.5753 54.0231 35.6024ZM53.6182 29.905C53.6149 29.8908 53.6116 29.8733 53.608 29.8547C53.4121 28.8315 54.0812 27.8457 55.1053 27.6489C56.1283 27.4484 57.1224 28.1181 57.3187 29.1369C57.3227 29.1577 57.3289 29.1723 57.3322 29.1942C57.5292 30.2149 56.856 31.205 55.8323 31.4011C55.6057 31.4459 55.3823 31.4455 55.1693 31.4124C54.4091 31.2892 53.7713 30.7048 53.6182 29.905ZM51.9458 24.3327C51.9388 24.3181 51.9311 24.3003 51.9249 24.2868C51.5331 23.3189 51.998 22.2173 52.9651 21.8276C53.9321 21.4354 55.0333 21.8939 55.4262 22.8643C55.4346 22.8797 55.4427 22.8964 55.4507 22.9154C55.8439 23.8792 55.375 24.9779 54.4051 25.3705C54.0739 25.5043 53.722 25.5397 53.3923 25.4835C52.7622 25.3786 52.2005 24.9655 51.9458 24.3327ZM49.2781 19.0918C49.2694 19.0768 49.2595 19.0626 49.2485 19.0487C48.7029 18.1596 48.9777 16.9982 49.8655 16.4521C50.7569 15.9075 51.9198 16.1806 52.471 17.0686C52.475 17.0832 52.4896 17.1025 52.4998 17.1163C53.044 18.0032 52.7644 19.1658 51.8778 19.7111C51.4743 19.955 51.0145 20.0381 50.5833 19.9648C50.061 19.8817 49.576 19.5748 49.2781 19.0918ZM45.7999 14.3141C45.7856 14.2995 45.7754 14.2893 45.7644 14.2766H45.7655C45.0879 13.4801 45.1888 12.2895 45.9819 11.6176C46.7786 10.9425 47.9694 11.0377 48.6462 11.8353C48.6597 11.848 48.6703 11.8633 48.6809 11.8743C49.3564 12.6686 49.261 13.861 48.4639 14.5336C48.0249 14.9058 47.4613 15.0458 46.9336 14.9564C46.5085 14.8843 46.1014 14.6706 45.7999 14.3141Z" fill="#E6E6E6"/>
<path d="M22.7809 68.4194C21.7974 68.0607 21.2901 66.9784 21.6479 66.0007C21.6556 65.9843 21.6589 65.9672 21.6658 65.9486C22.0225 64.9662 23.1098 64.4642 24.0904 64.8207C25.0732 65.1732 25.5764 66.2603 25.2204 67.2351C25.2128 67.2551 25.2091 67.2708 25.2014 67.285C24.8886 68.1551 23.9972 68.6484 23.1179 68.5018C23.0035 68.4869 22.8891 68.4577 22.7809 68.4194ZM25.0677 62.6521C24.1514 62.1538 23.8108 61.011 24.3119 60.0952C24.3221 60.0766 24.3283 60.0624 24.3353 60.0413C24.8411 59.1314 25.9876 58.7997 26.9049 59.2973C27.8175 59.7941 28.156 60.9435 27.6578 61.8549C27.6483 61.8749 27.6377 61.884 27.6275 61.8997C27.2372 62.6259 26.436 62.9875 25.6645 62.861C25.4602 62.8223 25.2559 62.7611 25.0677 62.6521ZM28.2108 57.308C27.3917 56.6679 27.2499 55.4762 27.8928 54.6644C27.9052 54.645 27.9173 54.6308 27.9286 54.6151C28.5748 53.7971 29.7648 53.6568 30.5846 54.3046C31.4043 54.9509 31.5465 56.1349 30.8967 56.9573C30.8868 56.9664 30.8769 56.9799 30.8656 56.9916C30.4234 57.5519 29.7293 57.7946 29.0678 57.6886C28.7663 57.6375 28.4703 57.5103 28.2108 57.308ZM32.2237 52.577C31.5432 51.7801 31.6368 50.5943 32.4306 49.9126C32.443 49.905 32.4587 49.89 32.4723 49.8769C33.2675 49.2032 34.4597 49.2973 35.1381 50.0876C35.8157 50.8808 35.7221 52.0747 34.9294 52.752C34.9151 52.7611 34.9031 52.7662 34.8884 52.7812C34.4451 53.1585 33.8801 53.2966 33.3494 53.2062C32.9284 53.1366 32.5234 52.9266 32.2237 52.577ZM37.1157 48.7505C36.6581 47.8151 37.047 46.6846 37.9833 46.2264C37.9998 46.2188 38.0184 46.21 38.0367 46.2002C38.9745 45.7456 40.1042 46.1338 40.5618 47.074C41.0182 48.0068 40.6305 49.1351 39.6897 49.5907C39.6751 49.5991 39.6587 49.6049 39.647 49.6162C39.2808 49.7901 38.8827 49.8426 38.51 49.7807C37.9281 49.6841 37.3978 49.3202 37.1157 48.7505ZM61.1828 46.5527C60.7153 45.6176 61.0961 44.489 62.0307 44.0242C62.046 44.0177 62.061 44.0089 62.0734 44.0024C63.0079 43.5369 64.1453 43.9109 64.612 44.8426C65.0791 45.7751 64.7034 46.9041 63.7711 47.3765C63.7521 47.3842 63.7331 47.3937 63.7159 47.3991C63.3456 47.5858 62.9462 47.6343 62.5697 47.5741C61.9879 47.479 61.4664 47.1159 61.1828 46.5527ZM66.5779 43.4895C65.8952 42.6992 65.9807 41.5104 66.7731 40.8269C66.7852 40.8156 66.8005 40.8028 66.81 40.7959C67.5973 40.1109 68.7924 40.1966 69.4769 40.9771C70.1596 41.7685 70.0767 42.9613 69.2887 43.6426C69.2737 43.6579 69.2591 43.667 69.2445 43.683C68.8011 44.0647 68.2365 44.1996 67.7021 44.1125C67.2811 44.0461 66.8806 43.8369 66.5779 43.4895ZM71.1029 39.2441C70.281 38.601 70.1333 37.4196 70.7747 36.5975C70.7868 36.5851 70.7977 36.5695 70.8105 36.5531C71.4487 35.7325 72.6376 35.5856 73.4603 36.2268C74.28 36.8644 74.4324 38.0455 73.7939 38.8719C73.783 38.8854 73.7676 38.8974 73.7563 38.9153C73.3148 39.4803 72.6204 39.7282 71.9596 39.6166C71.6581 39.5681 71.3635 39.442 71.1029 39.2441ZM74.7529 34.2284C73.8356 33.7312 73.4964 32.5858 73.9906 31.6719C74.0037 31.657 74.0063 31.6402 74.015 31.6263C74.5128 30.711 75.6571 30.3676 76.5763 30.8575C77.4988 31.3573 77.842 32.4983 77.3467 33.4151C77.3351 33.4337 77.3252 33.4516 77.3193 33.4694C76.9242 34.1923 76.1206 34.5565 75.3487 34.43C75.1484 34.3983 74.9445 34.3297 74.7529 34.2284ZM77.543 28.6911C76.5577 28.3386 76.0486 27.2599 76.3994 26.2789C76.4086 26.2633 76.4133 26.2501 76.4159 26.2294C76.7693 25.2488 77.8529 24.7373 78.8324 25.0862C79.8196 25.4412 80.3283 26.5188 79.9789 27.4972C79.9727 27.5187 79.9632 27.5326 79.9588 27.5508C79.6493 28.4202 78.7586 28.9244 77.8771 28.7742C77.7678 28.7582 77.6519 28.7312 77.543 28.6911Z" fill="#E6E6E6"/>
<path d="M67.5532 60.3539C67.695 59.3186 68.6493 58.599 69.6832 58.7343C69.6997 58.7365 69.7179 58.7386 69.7315 58.7401C70.7669 58.8859 71.4953 59.8301 71.3568 60.8632C71.2193 61.8963 70.2647 62.6202 69.23 62.485C69.2121 62.4828 69.1902 62.4777 69.1708 62.4752C69.1573 62.4737 69.1401 62.4715 69.1303 62.4679C68.1179 62.3042 67.4154 61.3688 67.5532 60.3539ZM62.8276 60.9962C62.8108 60.994 62.7943 60.9889 62.7757 60.9857C61.7882 60.6437 61.2601 59.5702 61.597 58.587C61.9373 57.6009 63.0133 57.0756 64.0011 57.4143C64.0161 57.4219 64.0329 57.4241 64.0497 57.4285C65.0384 57.7697 65.5661 58.836 65.2291 59.8279C64.9254 60.705 64.0348 61.2204 63.143 61.0782C63.0396 61.0633 62.9321 61.0381 62.8276 60.9962ZM73.7375 60.9736C73.706 59.9347 74.5269 59.062 75.5682 59.0314C75.5839 59.0292 75.6007 59.0306 75.62 59.0306C76.6631 58.9949 77.5388 59.8104 77.5695 60.8541C77.6035 61.893 76.7856 62.7642 75.7403 62.7985C75.7231 62.8014 75.7041 62.8007 75.6888 62.8036C75.5638 62.8065 75.4391 62.8007 75.3262 62.7781C74.448 62.6403 73.7652 61.8948 73.7375 60.9736ZM56.8213 58.124C56.803 58.1091 56.7892 58.1033 56.7669 58.0883C55.8989 57.5182 55.6569 56.3491 56.2267 55.4804C56.7994 54.607 57.9719 54.3689 58.8439 54.942C58.8585 54.9493 58.8724 54.9555 58.8852 54.9642C59.7594 55.5325 60.0068 56.7049 59.4378 57.5714C59.0157 58.217 58.2661 58.5225 57.5523 58.4044C57.2986 58.3654 57.0516 58.2742 56.8213 58.124ZM79.9378 60.5927C79.7481 59.5661 80.4265 58.5855 81.4531 58.3956C81.4732 58.3934 81.4874 58.3872 81.5039 58.385C82.5283 58.1962 83.5191 58.8721 83.7103 59.8946C83.9018 60.9178 83.2242 61.901 82.1983 62.0917C82.1778 62.0946 82.1632 62.1022 82.1413 62.1037C81.9205 62.1463 81.7078 62.1449 81.4988 62.1113C80.7305 61.9896 80.0877 61.3987 79.9378 60.5927ZM42.78 38.485C42.7643 38.4744 42.7493 38.4671 42.7387 38.4543C41.8696 37.8747 41.6343 36.7067 42.2154 35.8413C42.7943 34.9719 43.966 34.7408 44.8366 35.3197C44.8508 35.3299 44.8654 35.3401 44.8841 35.351C45.7492 35.9288 45.9816 37.1008 45.4009 37.9673C44.9773 38.6009 44.2379 38.8954 43.5311 38.7791C43.2679 38.7369 43.015 38.6392 42.78 38.485ZM17.9622 33.3851C17.7762 32.3571 18.4575 31.3747 19.4852 31.192C19.5013 31.1887 19.5232 31.1844 19.5404 31.1789C20.5681 30.9985 21.5509 31.6769 21.7347 32.7049C21.9222 33.7259 21.2398 34.7084 20.2136 34.8899C20.1968 34.8968 20.1807 34.8997 20.1606 34.9023C19.9446 34.9417 19.7319 34.9402 19.5228 34.9107C18.7542 34.7864 18.1099 34.1918 17.9622 33.3851ZM24.1081 32.453C24.0767 31.4111 24.8972 30.5468 25.9414 30.5176C25.9644 30.5154 25.9794 30.5144 26.0006 30.5144C27.0436 30.4866 27.912 31.3087 27.9405 32.3498C27.9679 33.3913 27.1438 34.256 26.0967 34.2848C26.078 34.2855 26.066 34.2851 26.0492 34.2829C25.9278 34.2906 25.8076 34.2862 25.6954 34.2662C24.8131 34.1207 24.1311 33.372 24.1081 32.453ZM37.644 35.9686C37.6341 35.9598 37.6184 35.9518 37.5997 35.9496C36.6129 35.6095 36.094 34.5316 36.4375 33.5469C36.7807 32.5641 37.8589 32.045 38.8471 32.3863C38.8595 32.3928 38.8807 32.4041 38.8997 32.4067C39.8854 32.7482 40.4011 33.8291 40.0568 34.8082C39.7488 35.6871 38.8632 36.1917 37.9751 36.0509C37.8658 36.0331 37.7554 36.0057 37.644 35.9686ZM30.3194 32.4734C30.4609 31.4399 31.4169 30.7229 32.452 30.8639C32.4695 30.8661 32.4904 30.8687 32.5119 30.8712C33.5433 31.0185 34.2607 31.9783 34.1164 33.0071C33.968 34.0361 33.0137 34.7532 31.9809 34.6096C31.96 34.607 31.9432 34.6048 31.929 34.6034C31.9147 34.6015 31.9063 34.6005 31.8895 34.5983C30.8764 34.4342 30.1762 33.489 30.3194 32.4734Z" fill="#E6E6E6"/>
<path d="M58.1514 81.2558C57.1763 80.8898 56.6756 79.7984 57.0426 78.8295C57.051 78.8123 57.0543 78.7996 57.0583 78.7766C57.4256 77.8062 58.5122 77.305 59.488 77.6695C60.4675 78.0304 60.9682 79.1164 60.6042 80.0922C60.602 80.1108 60.5914 80.1294 60.587 80.1476C60.257 81.0185 59.3582 81.5088 58.4709 81.3422C58.366 81.3244 58.26 81.2952 58.1514 81.2558ZM59.4185 67.3301C59.4211 67.3094 59.4189 67.293 59.4193 67.2733C59.4569 66.2351 60.3388 65.4192 61.3819 65.4612C62.4224 65.4976 63.2378 66.3769 63.195 67.4206C63.1939 67.4311 63.1965 67.4534 63.1991 67.4745C63.1592 68.5149 62.2762 69.3242 61.2331 69.2873C61.144 69.2782 61.0522 69.2717 60.9576 69.2531C60.0505 69.0847 59.3835 68.2736 59.4185 67.3301ZM59.0929 61.5227C59.0882 61.5027 59.0882 61.487 59.0849 61.4713C58.9186 60.4426 59.6207 59.4755 60.6491 59.3096C61.6801 59.1437 62.6497 59.8466 62.816 60.8702C62.82 60.888 62.8215 60.9074 62.8259 60.9263C62.99 61.9558 62.2872 62.9229 61.2551 63.0858C61.0343 63.1216 60.8209 63.1223 60.6177 63.0793C59.8498 62.9386 59.2219 62.328 59.0929 61.5227ZM57.529 56.0317C57.5195 56.0167 57.5148 56.0018 57.5086 55.9861C57.0864 55.0343 57.5206 53.9192 58.4789 53.5029C59.435 53.0862 60.5508 53.5171 60.9715 54.474C60.978 54.4926 60.9835 54.5138 60.9945 54.5294C61.4115 55.4827 60.9737 56.5949 60.0146 57.0086C59.6557 57.1683 59.2731 57.2015 58.9171 57.134C58.3207 57.0243 57.7882 56.6321 57.529 56.0317ZM40.6388 38.7873C40.6312 38.7672 40.6253 38.749 40.6165 38.7337L40.6169 38.7307C40.2072 37.772 40.6586 36.666 41.6176 36.2621C42.5784 35.8546 43.6884 36.3 44.0981 37.2606C44.1039 37.2773 44.1087 37.2897 44.1174 37.3076C44.5261 38.2612 44.0798 39.3709 43.1197 39.7817C42.7612 39.9319 42.3829 39.9684 42.0328 39.9024C41.433 39.7908 40.8954 39.3876 40.6388 38.7873ZM38.8484 32.3769C38.844 32.3605 38.8407 32.3411 38.8378 32.3229C38.6832 31.2931 39.3904 30.3325 40.4214 30.1762C41.4553 30.0183 42.4176 30.7306 42.5762 31.7568C42.5751 31.7728 42.581 31.7914 42.5832 31.8064C42.7429 32.838 42.0346 33.7993 41.0021 33.9546C40.7839 33.9896 40.5716 33.9856 40.3695 33.9477C39.6038 33.8069 38.9741 33.192 38.8484 32.3769ZM38.5077 25.8338C38.5066 25.8167 38.5088 25.7977 38.5085 25.7802L38.5088 25.7773C38.5567 24.7391 39.4404 23.9327 40.4817 23.9757C41.5247 24.0231 42.3314 24.9064 42.286 25.9493C42.286 25.9614 42.2838 25.9771 42.2838 25.9949C42.2374 27.0379 41.3585 27.842 40.315 27.7997C40.2233 27.7994 40.1304 27.7881 40.0493 27.7669C39.1385 27.596 38.4657 26.7827 38.5077 25.8338ZM42.27 15.6023C41.2934 15.2327 40.7978 14.1431 41.1666 13.1712C41.1753 13.1504 41.179 13.1348 41.1881 13.1173C41.5602 12.1461 42.6486 11.6573 43.6241 12.0244C44.6002 12.3918 45.0951 13.4825 44.7252 14.454C44.7179 14.4712 44.7121 14.4872 44.7026 14.5003C44.3766 15.3657 43.4782 15.8571 42.5952 15.6913C42.4849 15.6716 42.3759 15.6362 42.27 15.6023Z" fill="#D9D9D9"/>
<path d="M37.1384 49.4727C37.2664 48.4352 38.2108 47.7014 39.2465 47.8279C39.2626 47.8301 39.2816 47.8323 39.2977 47.8345C40.3331 47.9613 41.0721 48.9018 40.946 49.9389C40.8195 50.9648 39.8817 51.7062 38.8416 51.5786C38.8229 51.5764 38.8017 51.5735 38.7831 51.5713C38.7425 51.5662 38.7074 51.5622 38.6687 51.5535C37.6925 51.3745 37.0164 50.4639 37.1384 49.4727ZM32.3865 49.9233C32.3642 49.9182 32.3485 49.9105 32.3284 49.8992C31.3537 49.5205 30.88 48.4254 31.2568 47.4586C31.6384 46.4904 32.7341 46.0067 33.7088 46.3927C33.7234 46.3975 33.7421 46.4004 33.7563 46.4062C34.7277 46.7868 35.2102 47.8768 34.8301 48.8486C34.496 49.7115 33.5991 50.1821 32.7282 50.0191C32.6127 49.9987 32.4958 49.9637 32.3865 49.9233ZM81.8159 57.4375C81.8086 57.4233 81.7944 57.4083 81.7841 57.397C81.1212 56.5932 81.2312 55.4048 82.0356 54.7392C82.8422 54.0743 84.0373 54.1902 84.7006 54.9911C84.7134 55.0053 84.7233 55.021 84.7394 55.0366C85.4009 55.8419 85.2854 57.0288 84.4821 57.6923C84.0311 58.0583 83.4628 58.1859 82.9314 58.0874C82.5096 58.008 82.1131 57.7922 81.8159 57.4375ZM26.5301 46.9446C26.514 46.9344 26.4986 46.9209 26.4818 46.9151C25.6021 46.3526 25.3459 45.1857 25.9091 44.3109C26.4672 43.432 27.6397 43.1695 28.5168 43.7338C28.5333 43.7444 28.549 43.7527 28.5592 43.76C29.4433 44.3211 29.6991 45.4839 29.1389 46.3639C28.7131 47.0354 27.9357 47.3438 27.1982 47.2056C26.9697 47.1674 26.7428 47.0762 26.5301 46.9446ZM73.0225 49.6342C73.0072 49.6229 72.9966 49.612 72.9776 49.6014C72.096 49.0495 71.8296 47.887 72.3837 47.0015C72.9385 46.1244 74.108 45.8554 74.9939 46.411C75.0085 46.4208 75.0206 46.4281 75.0396 46.4401C75.9211 46.9949 76.1883 48.1582 75.6313 49.0418C75.2055 49.7126 74.4219 50.0264 73.6822 49.8875C73.4553 49.8493 73.2301 49.7618 73.0225 49.6342ZM16.8676 38.3113C16.857 38.2971 16.842 38.2814 16.8325 38.2683C16.1695 37.4597 16.2905 36.2761 17.0978 35.617C17.9066 34.9539 19.0981 35.0771 19.7585 35.8824C19.7691 35.8977 19.783 35.9061 19.7914 35.9221C20.4551 36.7267 20.3341 37.9161 19.5283 38.5778C19.0802 38.943 18.5111 39.0681 17.9826 38.9704C17.5602 38.892 17.1625 38.6718 16.8676 38.3113ZM67.82 47.0099C67.8024 47.0026 67.7838 46.9964 67.7684 46.9924C66.7952 46.6187 66.3054 45.5291 66.6797 44.558C67.0499 43.5814 68.1438 43.0933 69.1167 43.4659C69.1335 43.4717 69.1514 43.4815 69.1708 43.4841C70.1462 43.857 70.6356 44.9495 70.2599 45.9207C69.9288 46.7846 69.0311 47.2662 68.15 47.1039C68.0433 47.081 67.9281 47.0518 67.82 47.0099ZM60.5528 43.5242C60.669 42.4907 61.6028 41.7412 62.6419 41.8597C62.6605 41.8619 62.6813 41.8648 62.7029 41.8674C63.7394 41.9884 64.4806 42.9172 64.3625 43.9565C64.2441 44.9878 63.3089 45.7282 62.2694 45.6144C62.2548 45.6126 62.242 45.6112 62.2234 45.609C62.1773 45.6031 62.1306 45.5955 62.0834 45.5878C61.1211 45.4081 60.4442 44.5154 60.5528 43.5242Z" fill="#D9D9D9"/>
<path d="M24.5291 70.5559C24.354 69.5279 25.0444 68.5517 26.0736 68.3764C26.0911 68.3778 26.1076 68.3735 26.1251 68.3705C27.1529 68.1919 28.1298 68.8783 28.3074 69.9071C28.4872 70.9303 27.7968 71.9062 26.768 72.0859C26.7486 72.0866 26.7322 72.0917 26.7124 72.0957C26.4935 72.1355 26.2713 72.1307 26.0637 72.0972C25.2981 71.9572 24.668 71.3619 24.5291 70.5559ZM36.4517 67.1938C35.9609 66.2697 36.311 65.1283 37.236 64.6406C37.2503 64.6322 37.2645 64.6242 37.2788 64.618C38.2031 64.1251 39.3481 64.47 39.8397 65.3948C40.328 66.3175 39.98 67.4588 39.0594 67.9473C39.0426 67.9539 39.0228 67.9674 39.0093 67.9736C38.6197 68.1792 38.1954 68.2364 37.7948 68.1642C37.2422 68.0669 36.7364 67.7242 36.4517 67.1938ZM41.8348 64.0967C41.1788 63.2871 41.2987 62.1009 42.1093 61.4403C42.1239 61.429 42.1374 61.4225 42.1488 61.4097C42.9558 60.7524 44.1505 60.8713 44.8095 61.6802C45.4695 62.4862 45.3493 63.6724 44.5375 64.3289C44.5262 64.3461 44.5112 64.3559 44.4966 64.3694C44.0518 64.7263 43.4926 64.8513 42.9722 64.7609C42.5428 64.684 42.1316 64.4612 41.8348 64.0967ZM46.487 59.9822C45.6457 59.3592 45.4721 58.1788 46.0897 57.3451C46.1022 57.328 46.1149 57.3159 46.1237 57.3046C46.741 56.468 47.923 56.285 48.7661 56.9058C49.6071 57.523 49.7851 58.7023 49.1652 59.5429C49.1554 59.5564 49.144 59.5706 49.132 59.587C48.6919 60.1779 47.965 60.4437 47.2826 60.3252C47.0027 60.272 46.7293 60.1593 46.487 59.9822ZM52.828 36.7302C51.9805 36.1177 51.7905 34.9399 52.4026 34.0993C52.414 34.084 52.4242 34.0632 52.4352 34.0505C53.0488 33.208 54.2311 33.0217 55.0787 33.6312C55.9193 34.2437 56.11 35.4244 55.4968 36.2665C55.4862 36.2832 55.4763 36.2949 55.4646 36.3084C55.0275 36.9135 54.2958 37.1796 53.6032 37.0557C53.3309 37.012 53.0645 36.9026 52.828 36.7302ZM56.7405 31.9201C56.0753 31.1192 56.1875 29.9286 56.9908 29.2677C57.0066 29.2557 57.0204 29.2448 57.0369 29.2287C57.842 28.5682 59.0313 28.679 59.6976 29.485C60.3616 30.2888 60.2472 31.4717 59.4414 32.1374C59.4271 32.1498 59.4169 32.1596 59.4037 32.1676C58.9586 32.5409 58.3917 32.6678 57.8694 32.5726C57.4407 32.5004 57.038 32.2777 56.7405 31.9201ZM61.6858 28.173C61.1887 27.2548 61.5356 26.1105 62.4544 25.618C62.4686 25.6089 62.4862 25.603 62.5019 25.5866C63.4244 25.0978 64.5676 25.439 65.065 26.3543C65.5573 27.2737 65.2159 28.4173 64.2938 28.9101C64.2796 28.9214 64.2649 28.9258 64.2514 28.9389C63.8582 29.1482 63.4302 29.2047 63.026 29.1343C62.4752 29.037 61.969 28.699 61.6858 28.173ZM73.195 23.601C73.0112 22.5756 73.6965 21.5931 74.7235 21.4138C74.7428 21.4119 74.7589 21.4079 74.7794 21.4058C75.81 21.2257 76.7902 21.9088 76.9719 22.9328C77.151 23.9619 76.4657 24.9381 75.4387 25.1197C75.4186 25.1211 75.4014 25.124 75.3853 25.1331C75.1587 25.1678 74.9376 25.1667 74.7275 25.1277C73.9644 24.9968 73.3368 24.4033 73.195 23.601Z" fill="#D9D9D9"/>
</svg>
