
<svg version="1.0" xmlns="http://www.w3.org/2000/svg"
 width="200px" height="200px" viewBox="0 0 300.000000 300.000000"
 preserveAspectRatio="xMidYMid meet">
<g transform="translate(-50.000000,340.000000) scale(0.100000,-0.100000)"
fill="#9C9C9C" stroke="none">
<path d="M1535 2572 c90 -182 263 -645 315 -839 6 -24 15 -43 20 -43 4 0 109
104 232 230 122 127 225 230 228 230 11 0 132 -170 211 -297 44 -70 84 -129
88 -131 4 -1 13 15 20 35 32 92 166 349 240 460 45 67 81 125 81 129 0 8 -161
-3 -255 -18 -100 -15 -210 -58 -304 -118 l-81 -52 -91 96 c-201 212 -442 351
-730 420 -26 6 -26 5 26 -102z"/>
<path d="M1180 2285 c67 -89 178 -278 265 -453 39 -77 73 -141 76 -141 21 -3
158 501 145 534 -8 21 -118 72 -209 97 -43 11 -123 21 -200 25 l-128 6 51 -68z"/>
<path d="M890 2186 c0 -4 33 -50 73 -104 93 -122 125 -171 170 -252 34 -61 36
-63 45 -40 34 90 102 294 102 305 0 21 -48 42 -141 65 -86 20 -249 37 -249 26z"/>
<path d="M2230 1436 l0 -136 40 0 40 0 0 56 0 55 48 -3 47 -3 3 -52 3 -53 35
0 34 0 0 135 0 135 -34 0 -35 0 -3 -52 -3 -53 -47 -3 -47 -3 -3 53 -3 53 -37
3 -38 3 0 -135z"/>
<path d="M2566 1551 c-49 -33 -69 -74 -64 -133 5 -43 11 -57 42 -85 33 -30 41
-33 101 -33 60 0 67 2 98 34 70 69 52 177 -35 222 -39 20 -108 17 -142 -5z
m124 -61 c44 -44 11 -140 -47 -140 -33 0 -73 43 -73 78 0 68 75 107 120 62z"/>
<path d="M2810 1461 c0 -94 3 -112 21 -135 19 -24 26 -26 95 -26 60 0 78 4 93
19 24 24 33 82 29 176 l-3 70 -35 0 -35 0 -3 -94 c-3 -100 -11 -121 -46 -121
-39 0 -46 18 -46 122 l0 98 -35 0 -35 0 0 -109z"/>
<path d="M3095 1545 c-30 -29 -34 -84 -7 -107 9 -9 34 -21 54 -27 43 -14 51
-22 42 -45 -8 -21 -52 -20 -76 1 -17 15 -19 15 -33 -3 -32 -42 -6 -64 78 -64
69 0 97 26 97 88 0 45 -18 64 -73 78 -32 7 -45 30 -28 47 8 8 19 8 42 0 27
-11 31 -10 39 10 11 30 -13 47 -67 47 -33 0 -50 -6 -68 -25z"/>
<path d="M3270 1435 l0 -135 86 0 85 0 -3 28 c-3 25 -7 27 -50 30 -39 3 -48 7
-48 22 0 15 9 19 48 22 43 3 47 5 50 31 3 26 2 27 -47 27 -48 0 -51 2 -51 25
0 23 3 25 51 25 49 0 50 1 47 28 -3 27 -4 27 -85 30 l-83 3 0 -136z"/>
<path d="M1348 1493 c-59 -37 -70 -119 -22 -167 22 -21 36 -26 79 -26 43 0 57
5 78 26 90 90 -26 234 -135 167z m94 -50 c36 -32 12 -103 -35 -103 -49 0 -75
64 -40 102 20 22 51 23 75 1z"/>
<path d="M1530 1405 c0 -105 0 -105 24 -105 21 0 25 6 28 33 3 29 7 32 38 35
19 2 41 8 47 14 14 11 17 76 5 95 -11 18 -58 33 -103 33 l-39 0 0 -105z m95
30 c0 -13 -8 -21 -22 -23 -19 -3 -23 1 -23 23 0 22 4 26 23 23 14 -2 22 -10
22 -23z"/>
<path d="M1707 1504 c-4 -4 -7 -52 -7 -106 l0 -98 65 0 c58 0 65 2 65 20 0 16
-7 20 -35 20 -28 0 -35 4 -35 20 0 15 7 20 29 20 20 0 30 6 34 20 4 17 0 20
-29 20 -27 0 -34 4 -34 20 0 16 7 20 36 20 31 0 35 3 32 23 -3 19 -10 22 -58
25 -31 2 -59 0 -63 -4z"/>
<path d="M1850 1405 c0 -105 0 -105 24 -105 21 0 25 5 28 38 l3 37 22 -37 c22
-37 24 -38 80 -38 47 0 61 4 71 20 8 13 23 20 42 20 19 0 34 -7 42 -20 14 -22
58 -28 57 -7 0 6 -15 53 -33 102 -33 89 -33 90 -67 90 l-34 0 -34 -97 c-18
-54 -37 -98 -41 -98 -4 0 -17 15 -28 32 -21 32 -21 33 -1 51 19 18 25 62 11
84 -11 18 -58 33 -103 33 l-39 0 0 -105z m95 30 c0 -13 -8 -21 -22 -23 -19 -3
-23 1 -23 23 0 22 4 26 23 23 14 -2 22 -10 22 -23z m192 -16 c11 -43 1 -58
-31 -46 -11 4 -12 13 -3 46 6 23 14 41 17 41 3 0 11 -18 17 -41z"/>
<path d="M541 1431 c-31 -31 -25 -53 23 -70 45 -18 26 -42 -24 -30 -8 2 -15
-3 -15 -11 0 -20 74 -27 86 -8 19 29 10 59 -21 71 -34 13 -35 33 -1 30 13 -2
21 3 21 12 0 8 -4 15 -9 15 -5 0 -16 3 -24 6 -9 3 -25 -4 -36 -15z"/>
<path d="M626 1428 c4 -7 16 -25 26 -40 10 -14 18 -40 18 -57 0 -21 5 -31 15
-31 9 0 15 10 15 26 0 14 12 45 26 70 25 43 25 44 5 44 -11 0 -26 -10 -32 -22
l-12 -23 -10 23 c-6 14 -19 22 -34 22 -17 0 -22 -4 -17 -12z"/>
<path d="M760 1370 l0 -70 45 0 c54 0 85 25 85 70 0 45 -31 70 -85 70 l-45 0
0 -70z m84 18 c13 -21 -2 -51 -28 -56 -13 -3 -16 5 -16 38 0 33 3 41 16 38 9
-2 22 -11 28 -20z"/>
<path d="M900 1370 c0 -63 2 -70 19 -70 16 0 20 8 23 42 l3 42 29 -42 c16 -24
37 -42 47 -42 17 0 19 8 19 70 0 56 -3 70 -15 70 -11 0 -15 -11 -15 -40 0 -22
-3 -40 -7 -40 -5 1 -20 19 -35 40 -17 24 -36 40 -48 40 -18 0 -20 -7 -20 -70z"/>
<path d="M1060 1370 l0 -70 45 0 c33 0 45 4 45 15 0 9 -9 15 -25 15 -31 0 -33
17 -3 22 29 4 34 26 7 30 -33 4 -36 28 -5 28 14 0 26 6 26 13 1 6 12 -1 25
-18 17 -20 25 -43 25 -67 0 -31 4 -38 20 -38 16 0 20 7 20 33 0 18 11 49 25
70 l26 37 -24 0 c-15 0 -28 -8 -34 -22 l-10 -23 -12 23 c-10 19 -20 22 -81 22
l-70 0 0 -70z"/>
</g>
</svg>
