<svg width="44" height="44" viewBox="0 0 44 44" fill="none" xmlns="http://www.w3.org/2000/svg">
<path fill-rule="evenodd" clip-rule="evenodd" d="M37.0276 11.5137C37.5071 12.7697 37.7577 14.102 37.7773 15.445C37.8771 17.1349 37.8775 17.6876 37.8811 21.9656L37.8811 22.0248C37.8811 26.3588 37.8579 26.8999 37.7809 28.6065C37.7541 29.9353 37.5018 31.2445 37.0312 32.4863C36.1919 34.6293 34.483 36.3253 32.3196 37.1573C31.067 37.6239 29.7447 37.874 28.408 37.9007C26.6991 38 26.139 38 21.7692 38C17.3995 38 16.8537 37.9769 15.1305 37.9007C13.7884 37.8581 12.4661 37.5849 11.2206 37.1023C9.05545 36.2721 7.34656 34.5761 6.50732 32.4331C6.0367 31.1895 5.7844 29.8803 5.75756 28.5533C5.65735 26.8573 5.65735 26.3038 5.65735 21.9716C5.65735 17.6394 5.68061 17.0984 5.75756 15.39C5.78261 14.0648 6.0367 12.7537 6.50732 11.5137C7.34477 9.36889 9.05545 7.67291 11.2188 6.84267C12.4696 6.3761 13.792 6.12596 15.1287 6.09757C16.8376 6 17.3977 6 21.7674 6C26.1372 6 26.683 6.02129 28.4044 6.09757C29.7429 6.12596 31.0652 6.3761 32.316 6.84267C34.4795 7.67291 36.1883 9.36889 37.0276 11.5137ZM22.9232 22.9811V33H18.9936V22.9737H15.7273V19.051H18.9865V16.1722C18.9865 12.824 20.9774 11.0002 23.8772 11.0002C24.8548 10.9965 25.8325 11.0479 26.8042 11.1554V14.6528H24.8062C23.2294 14.6528 22.9232 15.4278 22.9232 16.5597V19.0583H26.6915L26.2038 22.9811H22.9232Z" fill="white"/>
</svg>
