<svg width="98" height="34" viewBox="0 0 98 34" fill="none" xmlns="http://www.w3.org/2000/svg">
<path d="M46.1408 3.47956V10.3469H52.9085V11.3513H46.1408V21.3958H52.9085V22.4327H45.165V2.47511H52.9085V3.47956H46.1408Z" fill="white"/>
<path d="M60.5296 21.3562C60.5296 21.6946 60.5296 22.033 60.5296 22.3697C58.2264 22.3697 55.9233 22.3697 53.6202 22.3697V2.92694H54.596V21.3634C56.5739 21.3616 58.5517 21.358 60.5296 21.3562Z" fill="white"/>
<path d="M75.0862 2.92694V22.3679H74.1104V4.70902L68.6018 13.2306H67.689L62.1804 4.70902V22.3679H61.2046V2.92694H62.1174L68.1296 12.5178L74.1419 2.92694H75.0862Z" fill="white"/>
<path d="M82.2631 12.777H75.999L72.505 22.3679H71.5607L78.7061 2.92694H79.556L86.7014 22.3679H85.7885L82.2631 12.777ZM81.9483 11.9022L79.1468 4.2554L76.3138 11.9022H81.9483Z" fill="white"/>
<path d="M96.3335 22.3679H95.4521L84.4665 4.44981V22.3679H83.6166V2.92694H84.4665L95.4521 20.7802V2.92694H96.3335V22.3679Z" fill="white"/>
<path d="M48.8706 27.2929C48.8706 27.9715 48.5734 28.5709 48.0295 28.9976C47.5119 29.3972 46.8124 29.624 46.0499 29.624C45.9467 29.624 45.8436 29.624 45.7386 29.6114V33.0081H45.3889V24.816C45.6092 24.762 45.8296 24.7368 46.0482 24.7368C46.7984 24.7368 47.5101 25.0032 48.0417 25.482C48.5734 25.9608 48.8706 26.6142 48.8706 27.2929ZM48.5594 27.2929C48.5594 26.067 47.4332 25.0554 46.0482 25.0554C45.945 25.0554 45.8418 25.068 45.7369 25.0824V29.2928C45.8401 29.3054 45.9432 29.3054 46.0482 29.3054C47.4979 29.3054 48.5594 28.4665 48.5594 27.2947V27.2929Z" fill="#9C9C9C"/>
<path d="M56.364 25.2408V28.0651H59.1463V28.4773H56.364V32.6067H59.1463V33.0334H55.9618V24.8268H59.1463V25.239H56.364V25.2408Z" fill="#9C9C9C"/>
<path d="M70.4817 29.0642H67.9058L66.4701 33.0081H66.0818L69.0197 25.0158H69.3695L72.3074 33.0081H71.9314L70.4817 29.0642ZM70.3523 28.7041L69.1999 25.5594L68.0352 28.7041H70.3523Z" fill="#9C9C9C"/>
<path d="M85.507 31.7157L85.8952 31.8093C85.1712 32.6751 84.1097 33.235 82.9311 33.235C80.7574 33.235 78.9841 31.3575 78.9841 29.0516C78.9841 26.7457 80.7574 24.8682 82.9311 24.8682C84.108 24.8682 85.1695 25.428 85.8952 26.2938L85.507 26.3874C84.8477 25.6674 83.9401 25.2282 82.9311 25.2282C80.9375 25.2282 79.3339 26.9473 79.3339 29.0516C79.3339 31.1559 80.9392 32.8623 82.9311 32.8623C83.9401 32.8623 84.8459 32.4231 85.507 31.7157Z" fill="#9C9C9C"/>
<path d="M93.2837 25.2408V28.0651H96.0659V28.4773H93.2837V32.6067H96.0659V33.0334H92.8815V24.8268H96.0659V25.239H93.2837V25.2408Z" fill="#9C9C9C"/>
<path fill-rule="evenodd" clip-rule="evenodd" d="M39.7683 11.2145C39.7683 11.2145 39.9555 13.614 38.1438 15.3997C38.0878 15.4537 38.0371 15.5131 37.9811 15.5689C35.6588 17.8442 32.8328 17.3708 32.5338 17.3168C29.3633 16.739 27.6233 13.056 27.6233 13.056L27.5935 14.0065C27.5935 14.0065 28.2231 17.495 31.3429 18.5139C36.1135 20.0691 41.2338 17.0252 39.7648 11.2181L39.7683 11.2145Z" fill="#007A90"/>
<path fill-rule="evenodd" clip-rule="evenodd" d="M15.2736 15.7813C10.3421 14.4799 6.92855 15.3907 5.33368 16.2098C2.57066 17.6318 -0.575345 20.728 2.11948 25.8978C2.11948 25.8978 1.36227 23.9735 2.095 21.9808C3.67762 17.6678 10.5485 16.0117 15.3942 17.621L15.2753 15.7813H15.2736Z" fill="#007A90"/>
<path fill-rule="evenodd" clip-rule="evenodd" d="M8.33978 13.1766C3.21419 10.2479 3.31037 7.29034 3.31037 7.29034C2.78575 8.4838 3.59017 11.5871 6.70295 14.0965C9.29635 16.1882 15.3942 17.7146 15.3942 17.7146L15.424 15.4771C15.424 15.4771 11.248 14.8399 8.33978 13.1784V13.1766Z" fill="#10D9D1"/>
<path fill-rule="evenodd" clip-rule="evenodd" d="M39.917 11.1227C39.6372 10.3361 39.2332 9.32983 37.7153 8.7934C36.3443 8.30918 34.606 8.45679 32.8048 10.4495C30.6329 12.8526 28.9873 16.226 27.1791 18.6957C20.5601 27.7411 16.8265 31.5843 11.7027 31.2963C3.89273 30.8552 1.85194 24.9492 1.85194 24.9492C1.83095 25.5846 2.56892 27.8041 3.96443 29.3648C5.43862 31.0119 8.00229 32.5671 10.4523 32.8605C19.301 33.9154 23.3528 26.9563 33.2508 12.687C35.2426 9.81585 37.5404 10.4117 38.6072 11.7059C39.7666 13.11 39.7089 15.1711 39.7089 15.1711C39.7089 15.1711 40.578 12.9804 39.917 11.1245V11.1227Z" fill="#10D9D1"/>
<path fill-rule="evenodd" clip-rule="evenodd" d="M19.6787 4.46961C17.6099 2.47691 15.396 1.17365 12.535 0.576024C8.43422 -0.280817 2.88893 2.75413 3.18971 7.96357C3.18971 7.96357 3.4905 5.84127 5.63097 4.10059C9.41352 1.02244 16.9087 0.572423 23.8739 12.624V11.7654C23.2374 8.87261 21.6758 6.3921 19.6787 4.46961Z" fill="#007A90"/>
</svg>
